<?xml version="1.0" encoding="utf-8"?>
<svg xmlns="http://www.w3.org/2000/svg" xmlns:ev="http://www.w3.org/2001/xml-events" xmlns:xlink="http://www.w3.org/1999/xlink" version="1.1" baseProfile="full" width="3608.0" height="1920.0" viewBox="-2.0 -1472.0 3608.0 1920.0">
<defs/>
<g><path d="M 912.000000 -959.000000 C 791.666667 -604.333333 671.333333 -249.666667 551.000000 105.000000 C 545.000000 122.333333 538.000000 141.000000 530.000000 161.000000 C 522.666667 181.000000 513.666667 201.333333 503.000000 222.000000 C 476.333333 278.666667 439.000000 330.333333 391.000000 377.000000 C 343.000000 424.333333 275.333333 448.000000 188.000000 448.000000 C 121.333333 448.000000 73.000000 432.333333 43.000000 401.000000 C 13.000000 369.666667 -2.000000 335.333333 -2.000000 298.000000 C -2.000000 264.666667 9.000000 235.666667 31.000000 211.000000 C 53.666667 187.000000 81.666667 175.000000 115.000000 175.000000 C 126.333333 175.000000 137.000000 176.333333 147.000000 179.000000 C 157.666667 181.666667 167.666667 184.000000 177.000000 186.000000 C 187.000000 190.000000 195.333333 193.666667 202.000000 197.000000 C 209.333333 200.333333 217.000000 202.000000 225.000000 202.000000 C 227.666667 203.333333 229.666667 204.000000 231.000000 204.000000 C 233.000000 204.000000 235.333333 204.000000 238.000000 204.000000 C 262.666667 204.000000 283.000000 192.000000 299.000000 168.000000 C 315.000000 144.666667 330.000000 110.000000 344.000000 64.000000 C 348.000000 54.000000 351.000000 43.666667 353.000000 33.000000 C 355.666667 22.333333 359.000000 11.333333 363.000000 0.000000 C 245.666667 -320.333333 128.333333 -640.666667 11.000000 -961.000000 C 7.666667 -973.666667 5.333333 -981.666667 4.000000 -985.000000 C 2.666667 -989.000000 2.000000 -992.333333 2.000000 -995.000000 C 2.000000 -995.000000 2.000000 -995.333333 2.000000 -996.000000 C 2.000000 -996.666667 2.000000 -997.000000 2.000000 -997.000000 C 2.000000 -1006.333333 4.333333 -1012.666667 9.000000 -1016.000000 C 14.333333 -1020.000000 19.666667 -1022.000000 25.000000 -1022.000000 C 29.000000 -1023.333333 32.000000 -1024.000000 34.000000 -1024.000000 C 36.666667 -1024.000000 39.333333 -1024.000000 42.000000 -1024.000000 C 119.666667 -1024.000000 197.333333 -1024.000000 275.000000 -1024.000000 C 290.333333 -1024.000000 300.666667 -1022.666667 306.000000 -1020.000000 C 312.000000 -1017.333333 317.000000 -1010.333333 321.000000 -999.000000 C 322.333333 -996.333333 323.333333 -993.333333 324.000000 -990.000000 C 324.666667 -987.333333 325.333333 -984.000000 326.000000 -980.000000 C 382.333333 -782.666667 438.666667 -585.333333 495.000000 -388.000000 C 552.666667 -583.333333 610.333333 -778.666667 668.000000 -974.000000 C 669.333333 -979.333333 670.666667 -984.000000 672.000000 -988.000000 C 673.333333 -992.666667 675.333333 -996.333333 678.000000 -999.000000 C 682.000000 -1009.000000 686.333333 -1015.666667 691.000000 -1019.000000 C 696.333333 -1022.333333 706.000000 -1024.000000 720.000000 -1024.000000 C 772.666667 -1024.000000 825.333333 -1024.000000 878.000000 -1024.000000 C 880.666667 -1024.000000 882.666667 -1024.000000 884.000000 -1024.000000 C 886.000000 -1024.000000 888.333333 -1024.000000 891.000000 -1024.000000 C 897.666667 -1022.666667 904.000000 -1020.333333 910.000000 -1017.000000 C 916.666667 -1013.666667 920.000000 -1006.333333 920.000000 -995.000000 C 920.000000 -991.000000 919.666667 -986.333333 919.000000 -981.000000 C 918.333333 -976.333333 916.000000 -969.000000 912.000000 -959.000000 C 912.000000 -959.000000 912.000000 -959.000000 912.000000 -959.000000z "/>
</g></svg>
