<?xml version="1.0" encoding="utf-8"?>
<svg xmlns="http://www.w3.org/2000/svg" xmlns:ev="http://www.w3.org/2001/xml-events" xmlns:xlink="http://www.w3.org/1999/xlink" version="1.1" baseProfile="full" width="5745.0" height="1398.0" viewBox="94.0 -1375.0 5745.0 1398.0">
<defs/>
<g><path d="M 3919.000000 -1302.000000 C 4072.666667 -1059.000000 4226.333333 -816.000000 4380.000000 -573.000000 C 4380.000000 -816.000000 4380.000000 -1059.000000 4380.000000 -1302.000000 C 4380.000000 -1320.000000 4383.000000 -1331.333333 4389.000000 -1336.000000 C 4395.666667 -1341.333333 4406.666667 -1344.000000 4422.000000 -1344.000000 C 4475.333333 -1344.000000 4528.666667 -1344.000000 4582.000000 -1344.000000 C 4583.333333 -1344.000000 4584.333333 -1344.000000 4585.000000 -1344.000000 C 4585.666667 -1344.000000 4586.666667 -1344.000000 4588.000000 -1344.000000 C 4606.000000 -1344.000000 4617.000000 -1339.666667 4621.000000 -1331.000000 C 4625.666667 -1323.000000 4628.000000 -1312.000000 4628.000000 -1298.000000 C 4628.000000 -880.000000 4628.000000 -462.000000 4628.000000 -44.000000 C 4628.000000 -28.666667 4625.000000 -17.333333 4619.000000 -10.000000 C 4613.666667 -3.333333 4601.333333 0.000000 4582.000000 0.000000 C 4540.333333 0.000000 4498.666667 0.000000 4457.000000 0.000000 C 4441.666667 0.000000 4430.000000 -1.000000 4422.000000 -3.000000 C 4414.666667 -5.000000 4407.666667 -9.000000 4401.000000 -15.000000 C 4397.000000 -19.000000 4393.333333 -22.666667 4390.000000 -26.000000 C 4387.333333 -30.000000 4384.000000 -35.333333 4380.000000 -42.000000 C 4208.666667 -311.000000 4037.333333 -580.000000 3866.000000 -849.000000 C 3866.000000 -582.000000 3866.000000 -315.000000 3866.000000 -48.000000 C 3866.000000 -31.333333 3863.000000 -19.000000 3857.000000 -11.000000 C 3851.666667 -3.666667 3838.666667 0.000000 3818.000000 0.000000 C 3766.000000 0.000000 3714.000000 0.000000 3662.000000 0.000000 C 3644.000000 0.000000 3631.333333 -3.000000 3624.000000 -9.000000 C 3617.333333 -15.666667 3614.000000 -27.333333 3614.000000 -44.000000 C 3614.000000 -462.000000 3614.000000 -880.000000 3614.000000 -1298.000000 C 3614.000000 -1318.666667 3618.666667 -1331.333333 3628.000000 -1336.000000 C 3638.000000 -1341.333333 3650.000000 -1344.000000 3664.000000 -1344.000000 C 3724.666667 -1344.000000 3785.333333 -1344.000000 3846.000000 -1344.000000 C 3860.000000 -1344.000000 3870.666667 -1342.666667 3878.000000 -1340.000000 C 3886.000000 -1337.333333 3893.333333 -1333.000000 3900.000000 -1327.000000 C 3904.000000 -1323.000000 3907.000000 -1319.000000 3909.000000 -1315.000000 C 3911.666667 -1311.666667 3915.000000 -1307.333333 3919.000000 -1302.000000 C 3919.000000 -1302.000000 3919.000000 -1302.000000 3919.000000 -1302.000000z "/>
</g></svg>
