<?xml version="1.0" encoding="utf-8"?>
<svg xmlns="http://www.w3.org/2000/svg" xmlns:ev="http://www.w3.org/2001/xml-events" xmlns:xlink="http://www.w3.org/1999/xlink" version="1.1" baseProfile="full" width="8087.0" height="1920.0" viewBox="40.0 -1472.0 8087.0 1920.0">
<defs/>
<g><path d="M 6739.000000 -44.000000 C 6739.000000 -300.333333 6739.000000 -556.666667 6739.000000 -813.000000 C 6739.000000 -847.000000 6740.666667 -873.333333 6744.000000 -892.000000 C 6747.333333 -910.666667 6756.666667 -927.000000 6772.000000 -941.000000 C 6774.000000 -943.666667 6776.666667 -946.666667 6780.000000 -950.000000 C 6783.333333 -953.333333 6787.000000 -956.333333 6791.000000 -959.000000 C 6812.333333 -974.333333 6837.666667 -987.000000 6867.000000 -997.000000 C 6897.000000 -1007.666667 6927.333333 -1016.000000 6958.000000 -1022.000000 C 6995.333333 -1030.666667 7030.333333 -1036.666667 7063.000000 -1040.000000 C 7096.333333 -1043.333333 7124.000000 -1045.000000 7146.000000 -1045.000000 C 7208.666667 -1045.000000 7259.666667 -1038.333333 7299.000000 -1025.000000 C 7339.000000 -1012.333333 7371.333333 -998.333333 7396.000000 -983.000000 C 7408.666667 -975.666667 7419.333333 -968.333333 7428.000000 -961.000000 C 7437.333333 -954.333333 7445.000000 -947.666667 7451.000000 -941.000000 C 7457.666667 -946.333333 7464.000000 -951.333333 7470.000000 -956.000000 C 7476.666667 -961.333333 7484.000000 -967.333333 7492.000000 -974.000000 C 7504.666667 -982.666667 7520.666667 -991.000000 7540.000000 -999.000000 C 7560.000000 -1007.666667 7584.333333 -1016.000000 7613.000000 -1024.000000 C 7642.333333 -1031.333333 7672.333333 -1036.666667 7703.000000 -1040.000000 C 7733.666667 -1043.333333 7765.000000 -1045.000000 7797.000000 -1045.000000 C 7897.000000 -1045.000000 7969.333333 -1026.000000 8014.000000 -988.000000 C 8058.666667 -950.000000 8089.333333 -907.333333 8106.000000 -860.000000 C 8114.666667 -832.666667 8120.333333 -805.333333 8123.000000 -778.000000 C 8125.666667 -751.333333 8127.000000 -729.666667 8127.000000 -713.000000 C 8127.000000 -490.666667 8127.000000 -268.333333 8127.000000 -46.000000 C 8127.000000 -30.666667 8124.666667 -19.000000 8120.000000 -11.000000 C 8116.000000 -3.666667 8105.666667 0.000000 8089.000000 0.000000 C 8014.333333 0.000000 7939.666667 0.000000 7865.000000 0.000000 C 7848.333333 0.000000 7836.666667 -3.333333 7830.000000 -10.000000 C 7824.000000 -17.333333 7821.000000 -28.666667 7821.000000 -44.000000 C 7821.000000 -254.000000 7821.000000 -464.000000 7821.000000 -674.000000 C 7821.000000 -682.000000 7821.000000 -689.666667 7821.000000 -697.000000 C 7821.000000 -705.000000 7820.333333 -712.666667 7819.000000 -720.000000 C 7817.666667 -748.000000 7809.666667 -773.666667 7795.000000 -797.000000 C 7780.333333 -820.333333 7751.333333 -832.000000 7708.000000 -832.000000 C 7683.333333 -832.000000 7664.000000 -828.333333 7650.000000 -821.000000 C 7636.000000 -814.333333 7625.333333 -806.666667 7618.000000 -798.000000 C 7601.333333 -782.666667 7591.666667 -765.666667 7589.000000 -747.000000 C 7586.333333 -729.000000 7585.000000 -704.666667 7585.000000 -674.000000 C 7585.000000 -464.000000 7585.000000 -254.000000 7585.000000 -44.000000 C 7585.000000 -27.333333 7582.000000 -15.666667 7576.000000 -9.000000 C 7570.666667 -3.000000 7559.000000 0.000000 7541.000000 0.000000 C 7471.333333 0.000000 7401.666667 0.000000 7332.000000 0.000000 C 7315.333333 0.000000 7302.333333 -2.333333 7293.000000 -7.000000 C 7284.333333 -12.333333 7280.000000 -25.333333 7280.000000 -46.000000 C 7280.000000 -259.000000 7280.000000 -472.000000 7280.000000 -685.000000 C 7280.000000 -704.333333 7279.666667 -719.666667 7279.000000 -731.000000 C 7278.333333 -743.000000 7276.666667 -753.333333 7274.000000 -762.000000 C 7269.333333 -784.000000 7260.333333 -801.000000 7247.000000 -813.000000 C 7234.333333 -825.000000 7220.333333 -833.666667 7205.000000 -839.000000 C 7199.000000 -841.666667 7192.333333 -843.666667 7185.000000 -845.000000 C 7177.666667 -846.333333 7171.000000 -847.000000 7165.000000 -847.000000 C 7148.333333 -847.000000 7132.000000 -843.666667 7116.000000 -837.000000 C 7100.000000 -831.000000 7087.000000 -822.666667 7077.000000 -812.000000 C 7060.333333 -795.333333 7050.666667 -777.333333 7048.000000 -758.000000 C 7045.333333 -739.333333 7044.000000 -717.666667 7044.000000 -693.000000 C 7044.000000 -478.000000 7044.000000 -263.000000 7044.000000 -48.000000 C 7044.000000 -31.333333 7041.000000 -19.000000 7035.000000 -11.000000 C 7029.666667 -3.666667 7016.666667 0.000000 6996.000000 0.000000 C 6925.666667 0.000000 6855.333333 0.000000 6785.000000 0.000000 C 6768.333333 0.000000 6756.333333 -2.666667 6749.000000 -8.000000 C 6742.333333 -14.000000 6739.000000 -26.000000 6739.000000 -44.000000 C 6739.000000 -44.000000 6739.000000 -44.000000 6739.000000 -44.000000z "/>
</g></svg>
