<?xml version="1.0" ?>
<svg xmlns="http://www.w3.org/2000/svg" version="1.1" width="600" height="600">
  <defs/>
  <g>
    <path stroke-width="0" fill="rgb(0, 0, 0)" opacity="1.0" d="M 423.5775146484375 139.75106811523438 C 423.5775146484375 214.85836791992188 423.5775146484375 289.9656677246094 423.5775146484375 365.072998046875 C 423.5775146484375 370.22314453125 423.4058837890625 375.459228515625 423.06268310546875 380.7811279296875 C 422.71942138671875 385.93133544921875 422.03289794921875 391.25323486328125 421.00311279296875 396.74676513671875 C 419.80169677734375 405.3304443359375 417.14154052734375 413.74249267578125 413.0224609375 421.98284912109375 C 408.90338134765625 430.22314453125 402.38153076171875 438.0343017578125 393.4569091796875 445.41632080078125 C 392.0838623046875 446.44635009765625 390.62506103515625 447.6480712890625 389.0804443359375 449.021484375 C 387.7073974609375 450.22314453125 386.1627197265625 451.33905029296875 384.44647216796875 452.369140625 C 376.5516357421875 457.8626708984375 365.73907470703125 462.8411865234375 352.0089111328125 467.3046875 C 338.4503173828125 471.76824951171875 321.28753662109375 474.0 300.5206298828125 474.0 C 281.98486328125 474.0 265.3370361328125 471.93994140625 250.5770263671875 467.8197021484375 C 235.8170166015625 463.6995849609375 223.11663818359375 457.69097900390625 212.4757080078125 449.79400634765625 C 195.99951171875 437.60516357421875 186.04510498046875 424.04290771484375 182.612548828125 409.1072998046875 C 179.179931640625 394.17169189453125 177.4637451171875 378.54937744140625 177.4637451171875 362.2403564453125 C 177.4637451171875 287.562255859375 177.4637451171875 212.88412475585938 177.4637451171875 138.20602416992188 C 177.4637451171875 134.25750732421875 178.23602294921875 131.59658813476562 179.7806396484375 130.22317504882812 C 181.4969482421875 128.67813110351562 184.32879638671875 127.90557861328125 188.2762451171875 127.90557861328125 C 209.64385986328125 127.90557861328125 231.011474609375 127.90557861328125 252.379150390625 127.90557861328125 C 256.6697998046875 127.90557861328125 259.67327880859375 128.5064697265625 261.3895263671875 129.70816040039062 C 263.2774658203125 130.73822021484375 264.221435546875 133.9141845703125 264.221435546875 139.23605346679688 C 264.221435546875 210.9957275390625 264.221435546875 282.75537109375 264.221435546875 354.5150146484375 C 264.221435546875 354.5150146484375 264.221435546875 354.600830078125 264.221435546875 354.77252197265625 C 264.221435546875 354.77252197265625 264.221435546875 354.77252197265625 264.221435546875 354.77252197265625 C 264.221435546875 357.69097900390625 264.3072509765625 360.6953125 264.4788818359375 363.785400390625 C 264.6505126953125 366.703857421875 264.90789794921875 369.79400634765625 265.25115966796875 373.0557861328125 C 266.62420654296875 381.8111572265625 270.314208984375 389.87982177734375 276.3211669921875 397.2618408203125 C 282.499755859375 404.47210693359375 294.17041015625 408.0772705078125 311.3331298828125 408.0772705078125 C 325.7498779296875 408.0772705078125 335.961669921875 404.7296142578125 341.9686279296875 398.0343017578125 C 347.97564697265625 391.1673583984375 351.75146484375 383.785400390625 353.29608154296875 375.888427734375 C 354.3258056640625 371.93994140625 354.926513671875 368.0772705078125 355.09814453125 364.3004150390625 C 355.269775390625 360.52362060546875 355.3555908203125 357.2618408203125 355.3555908203125 354.5150146484375 C 355.3555908203125 282.5837097167969 355.3555908203125 210.65237426757812 355.3555908203125 138.72103881835938 C 355.3555908203125 134.42919921875 356.0421142578125 131.59658813476562 357.4151611328125 130.22317504882812 C 358.95977783203125 128.67813110351562 361.87744140625 127.90557861328125 366.16815185546875 127.90557861328125 C 381.185546875 127.90557861328125 396.20294189453125 127.90557861328125 411.2203369140625 127.90557861328125 C 415.85430908203125 127.90557861328125 419.0294189453125 128.5064697265625 420.74566650390625 129.70816040039062 C 422.633544921875 130.73822021484375 423.5775146484375 134.08584594726562 423.5775146484375 139.75106811523438 C 423.5775146484375 139.75106811523438 423.5775146484375 139.75106811523438 423.5775146484375 139.75106811523438"/>
  </g>
</svg>
