<?xml version="1.0" encoding="utf-8"?>
<svg xmlns="http://www.w3.org/2000/svg" xmlns:ev="http://www.w3.org/2001/xml-events" xmlns:xlink="http://www.w3.org/1999/xlink" version="1.1" baseProfile="full" width="8087.0" height="1920.0" viewBox="40.0 -1472.0 8087.0 1920.0">
<defs/>
<g><path d="M 4928.000000 -892.000000 C 4880.666667 -876.333333 4833.333333 -860.666667 4786.000000 -845.000000 C 4788.000000 -839.666667 4790.000000 -834.666667 4792.000000 -830.000000 C 4794.000000 -825.333333 4796.333333 -819.333333 4799.000000 -812.000000 C 4805.666667 -796.000000 4811.333333 -776.333333 4816.000000 -753.000000 C 4821.333333 -729.666667 4824.000000 -703.666667 4824.000000 -675.000000 C 4824.000000 -565.666667 4791.666667 -483.333333 4727.000000 -428.000000 C 4662.333333 -372.666667 4591.000000 -338.666667 4513.000000 -326.000000 C 4501.666667 -323.333333 4490.000000 -321.666667 4478.000000 -321.000000 C 4466.666667 -320.333333 4455.333333 -320.000000 4444.000000 -320.000000 C 4424.666667 -320.000000 4406.000000 -321.000000 4388.000000 -323.000000 C 4370.666667 -325.000000 4354.333333 -327.333333 4339.000000 -330.000000 C 4329.666667 -316.666667 4321.666667 -304.666667 4315.000000 -294.000000 C 4309.000000 -283.333333 4306.000000 -273.333333 4306.000000 -264.000000 C 4306.000000 -240.666667 4318.333333 -226.333333 4343.000000 -221.000000 C 4368.333333 -215.666667 4407.333333 -212.000000 4460.000000 -210.000000 C 4463.333333 -208.666667 4467.333333 -208.000000 4472.000000 -208.000000 C 4476.666667 -208.000000 4480.666667 -208.000000 4484.000000 -208.000000 C 4532.000000 -205.666667 4580.000000 -203.333333 4628.000000 -201.000000 C 4647.333333 -199.666667 4671.333333 -197.666667 4700.000000 -195.000000 C 4729.333333 -192.333333 4760.000000 -187.000000 4792.000000 -179.000000 C 4840.666667 -166.333333 4885.333333 -144.000000 4926.000000 -112.000000 C 4967.333333 -80.666667 4988.000000 -33.000000 4988.000000 31.000000 C 4988.000000 54.333333 4983.666667 81.000000 4975.000000 111.000000 C 4967.000000 141.000000 4954.000000 171.666667 4936.000000 203.000000 C 4898.666667 264.333333 4837.000000 320.333333 4751.000000 371.000000 C 4665.666667 422.333333 4546.333333 448.000000 4393.000000 448.000000 C 4380.333333 448.000000 4355.666667 447.000000 4319.000000 445.000000 C 4282.333333 443.000000 4243.000000 436.666667 4201.000000 426.000000 C 4152.333333 413.333333 4107.000000 391.000000 4065.000000 359.000000 C 4023.666667 327.000000 4003.000000 279.666667 4003.000000 217.000000 C 4003.000000 174.333333 4017.000000 134.666667 4045.000000 98.000000 C 4073.000000 61.333333 4112.666667 28.666667 4164.000000 0.000000 C 4157.333333 -2.666667 4149.333333 -5.666667 4140.000000 -9.000000 C 4131.333333 -13.000000 4122.666667 -18.333333 4114.000000 -25.000000 C 4096.000000 -35.666667 4079.666667 -51.000000 4065.000000 -71.000000 C 4050.333333 -91.666667 4043.000000 -119.333333 4043.000000 -154.000000 C 4043.000000 -198.000000 4059.000000 -239.666667 4091.000000 -279.000000 C 4123.000000 -319.000000 4158.666667 -354.666667 4198.000000 -386.000000 C 4202.000000 -390.000000 4206.000000 -393.333333 4210.000000 -396.000000 C 4214.000000 -399.333333 4217.666667 -402.333333 4221.000000 -405.000000 C 4185.666667 -423.000000 4156.666667 -443.333333 4134.000000 -466.000000 C 4111.333333 -489.333333 4093.666667 -514.000000 4081.000000 -540.000000 C 4063.000000 -576.000000 4052.000000 -609.666667 4048.000000 -641.000000 C 4044.666667 -673.000000 4043.000000 -696.000000 4043.000000 -710.000000 C 4043.000000 -796.000000 4073.000000 -874.666667 4133.000000 -946.000000 C 4193.000000 -1017.333333 4293.333333 -1053.000000 4434.000000 -1053.000000 C 4471.333333 -1053.000000 4503.000000 -1050.666667 4529.000000 -1046.000000 C 4555.666667 -1041.333333 4578.666667 -1036.000000 4598.000000 -1030.000000 C 4602.666667 -1028.666667 4607.666667 -1027.000000 4613.000000 -1025.000000 C 4618.333333 -1023.000000 4623.333333 -1021.333333 4628.000000 -1020.000000 C 4640.000000 -1014.666667 4650.666667 -1010.333333 4660.000000 -1007.000000 C 4669.333333 -1004.333333 4678.666667 -1002.333333 4688.000000 -1001.000000 C 4695.333333 -998.333333 4703.000000 -996.666667 4711.000000 -996.000000 C 4719.666667 -995.333333 4729.333333 -995.000000 4740.000000 -995.000000 C 4748.666667 -995.000000 4756.333333 -995.333333 4763.000000 -996.000000 C 4770.333333 -996.666667 4778.000000 -997.666667 4786.000000 -999.000000 C 4789.333333 -1000.333333 4793.000000 -1001.333333 4797.000000 -1002.000000 C 4801.000000 -1002.666667 4805.000000 -1003.000000 4809.000000 -1003.000000 C 4811.000000 -1003.000000 4817.333333 -1004.333333 4828.000000 -1007.000000 C 4838.666667 -1009.666667 4850.333333 -1012.000000 4863.000000 -1014.000000 C 4875.666667 -1016.666667 4887.333333 -1019.000000 4898.000000 -1021.000000 C 4909.333333 -1023.000000 4915.333333 -1024.000000 4916.000000 -1024.000000 C 4921.333333 -1024.000000 4925.666667 -1022.666667 4929.000000 -1020.000000 C 4932.333333 -1017.333333 4934.666667 -1014.333333 4936.000000 -1011.000000 C 4937.333333 -1008.333333 4938.333333 -1006.000000 4939.000000 -1004.000000 C 4939.666667 -1002.000000 4940.000000 -1000.333333 4940.000000 -999.000000 C 4940.666667 -996.333333 4941.333333 -994.000000 4942.000000 -992.000000 C 4942.666667 -990.000000 4943.000000 -987.666667 4943.000000 -985.000000 C 4944.333333 -982.333333 4945.333333 -979.333333 4946.000000 -976.000000 C 4946.666667 -973.333333 4947.000000 -970.666667 4947.000000 -968.000000 C 4949.666667 -957.333333 4952.000000 -947.000000 4954.000000 -937.000000 C 4956.000000 -927.666667 4957.000000 -921.666667 4957.000000 -919.000000 C 4957.000000 -913.666667 4956.000000 -909.666667 4954.000000 -907.000000 C 4952.000000 -904.333333 4948.333333 -901.333333 4943.000000 -898.000000 C 4941.666667 -896.666667 4939.666667 -895.666667 4937.000000 -895.000000 C 4935.000000 -894.333333 4932.000000 -893.333333 4928.000000 -892.000000 C 4928.000000 -892.000000 4928.000000 -892.000000 4928.000000 -892.000000z M 4298.000000 36.000000 C 4285.333333 49.333333 4273.666667 64.000000 4263.000000 80.000000 C 4253.000000 96.000000 4248.000000 114.000000 4248.000000 134.000000 C 4248.000000 135.333333 4248.000000 137.000000 4248.000000 139.000000 C 4248.000000 141.000000 4248.000000 142.666667 4248.000000 144.000000 C 4252.000000 174.000000 4271.000000 201.666667 4305.000000 227.000000 C 4339.000000 252.333333 4394.333333 265.000000 4471.000000 265.000000 C 4533.666667 265.000000 4589.333333 253.000000 4638.000000 229.000000 C 4686.666667 205.000000 4711.000000 173.333333 4711.000000 134.000000 C 4711.000000 107.333333 4702.333333 88.666667 4685.000000 78.000000 C 4667.666667 67.333333 4648.000000 60.000000 4626.000000 56.000000 C 4620.000000 54.666667 4613.666667 53.666667 4607.000000 53.000000 C 4601.000000 52.333333 4594.666667 51.333333 4588.000000 50.000000 C 4578.000000 48.666667 4558.666667 47.333333 4530.000000 46.000000 C 4502.000000 44.666667 4472.666667 43.333333 4442.000000 42.000000 C 4411.333333 41.333333 4382.333333 40.333333 4355.000000 39.000000 C 4328.333333 37.666667 4309.333333 36.333333 4298.000000 35.000000 C 4298.000000 35.333333 4298.000000 35.666667 4298.000000 36.000000z M 4548.000000 -730.000000 C 4546.666667 -735.333333 4545.333333 -740.333333 4544.000000 -745.000000 C 4542.666667 -750.333333 4541.666667 -756.000000 4541.000000 -762.000000 C 4531.666667 -795.333333 4517.000000 -826.000000 4497.000000 -854.000000 C 4477.666667 -882.000000 4452.000000 -896.000000 4420.000000 -896.000000 C 4391.333333 -896.000000 4366.000000 -882.666667 4344.000000 -856.000000 C 4322.666667 -829.333333 4312.000000 -791.000000 4312.000000 -741.000000 C 4312.000000 -729.000000 4312.666667 -717.000000 4314.000000 -705.000000 C 4315.333333 -693.000000 4317.333333 -680.333333 4320.000000 -667.000000 C 4327.333333 -627.000000 4342.000000 -589.666667 4364.000000 -555.000000 C 4386.000000 -520.333333 4414.000000 -503.000000 4448.000000 -503.000000 C 4485.333333 -503.000000 4512.333333 -518.000000 4529.000000 -548.000000 C 4545.666667 -578.666667 4554.000000 -614.000000 4554.000000 -654.000000 C 4554.000000 -661.333333 4554.000000 -667.666667 4554.000000 -673.000000 C 4554.000000 -679.000000 4553.333333 -685.666667 4552.000000 -693.000000 C 4552.000000 -699.000000 4551.666667 -705.000000 4551.000000 -711.000000 C 4550.333333 -717.666667 4549.333333 -724.000000 4548.000000 -730.000000 C 4548.000000 -730.000000 4548.000000 -730.000000 4548.000000 -730.000000z "/>
</g></svg>
