<?xml version="1.0" ?>
<svg xmlns="http://www.w3.org/2000/svg" version="1.1" width="600" height="600">
  <defs/>
  <g>
    <path stroke-width="0" fill="rgb(0, 0, 0)" opacity="1.0" d="M 294.041748046875 246.9375 C 294.041748046875 249.87890625 294.041748046875 252.8203125 294.041748046875 255.76171875 C 294.041748046875 258.703125 294.041748046875 261.64453125 294.041748046875 264.5859375 C 294.041748046875 270.46875 294.041748046875 276.3515625 294.041748046875 282.234375 C 294.041748046875 285.17578125 294.041748046875 288.1171875 294.041748046875 291.05859375 C 294.041748046875 294.0 294.041748046875 296.94140625 294.041748046875 299.8828125 C 294.041748046875 305.765625 294.041748046875 311.6484375 294.041748046875 317.53125 C 294.041748046875 323.4140625 294.041748046875 329.296875 294.041748046875 335.1796875 C 294.041748046875 338.12109375 294.041748046875 341.0625 294.041748046875 344.00390625 C 294.041748046875 346.9453125 294.041748046875 349.88671875 294.041748046875 352.828125 C 294.041748046875 358.7109375 294.041748046875 364.59375 294.041748046875 370.4765625 C 294.041748046875 373.41796875 294.041748046875 376.359375 294.041748046875 379.30078125 C 294.041748046875 382.2421875 294.041748046875 385.18359375 294.041748046875 388.125 C 294.041748046875 391.25 293.4169921875 393.375 292.167236328125 394.5 C 291.04248046875 395.5 289.0428466796875 396.0 286.16845703125 396.0 C 282.700439453125 396.0 279.232421875 396.0 275.764404296875 396.0 C 272.29638671875 396.0 268.8282470703125 396.0 265.3602294921875 396.0 C 261.8922119140625 396.0 258.424072265625 396.0 254.9560546875 396.0 C 251.488037109375 396.0 248.02001953125 396.0 244.552001953125 396.0 C 241.427734375 396.0 239.2406005859375 395.5 237.9908447265625 394.5 C 236.8660888671875 393.375 236.3037109375 391.125 236.3037109375 387.75 C 236.3037109375 384.62890625 236.3037109375 381.5078125 236.3037109375 378.38671875 C 236.3037109375 375.265625 236.3037109375 372.14453125 236.3037109375 369.0234375 C 236.3037109375 365.90234375 236.3037109375 362.78125 236.3037109375 359.66015625 C 236.3037109375 356.5390625 236.3037109375 353.41796875 236.3037109375 350.296875 C 236.3037109375 347.17578125 236.3037109375 344.0546875 236.3037109375 340.93359375 C 236.3037109375 337.8125 236.3037109375 334.69140625 236.3037109375 331.5703125 C 236.3037109375 328.44921875 236.3037109375 325.328125 236.3037109375 322.20703125 C 236.3037109375 319.0859375 236.3037109375 315.96484375 236.3037109375 312.84375 C 236.3037109375 309.72265625 236.3037109375 306.6015625 236.3037109375 303.48046875 C 236.3037109375 300.359375 236.3037109375 297.23828125 236.3037109375 294.1171875 C 236.3037109375 290.99609375 236.3037109375 287.875 236.3037109375 284.75390625 C 236.3037109375 281.6328125 236.3037109375 278.51171875 236.3037109375 275.390625 C 236.3037109375 272.26953125 236.3037109375 269.1484375 236.3037109375 266.02734375 C 236.3037109375 262.90625 236.3037109375 259.78515625 236.3037109375 256.6640625 C 236.3037109375 253.54296875 236.3037109375 250.421875 236.3037109375 247.30078125 C 236.3037109375 244.1796875 236.3037109375 241.05859375 236.3037109375 237.9375 C 236.3037109375 231.9375 236.990966796875 227.5625 238.36572265625 224.8125 C 239.865478515625 221.9375 242.677490234375 219.4375 246.801513671875 217.3125 C 251.300537109375 214.9375 256.299560546875 213.0 261.7984619140625 211.5 C 267.42236328125 209.875 273.108642578125 208.4375 278.857421875 207.1875 C 282.606689453125 206.625 286.26220703125 206.140625 289.823974609375 205.734375 C 293.3857421875 205.328125 296.853759765625 205.0 300.22802734375 204.75 C 307.1015625 204.25 312.912841796875 204.0 317.6619873046875 204.0 C 319.9114990234375 204.0 323.0982666015625 204.125 327.2225341796875 204.375 C 331.4715576171875 204.5 335.845703125 205.0625 340.3447265625 206.0625 C 343.4691162109375 206.8125 346.452880859375 207.859375 349.2960205078125 209.203125 C 352.13916015625 210.546875 354.841796875 212.1875 357.40380859375 214.125 C 360.0281982421875 216.0625 361.99658203125 218.609375 363.308837890625 221.765625 C 364.6209716796875 224.921875 365.277099609375 228.6875 365.277099609375 233.0625 C 365.277099609375 236.3125 364.8084716796875 239.328125 363.8712158203125 242.109375 C 362.933837890625 244.890625 361.5279541015625 247.4375 359.6533203125 249.75 C 357.7786865234375 252.0 355.5291748046875 253.6875 352.9046630859375 254.8125 C 350.2802734375 255.9375 347.2808837890625 256.5 343.906494140625 256.5 C 337.90771484375 256.5 333.59619140625 254.875 330.9716796875 251.625 C 328.3472900390625 248.375 326.09765625 244.625 324.22314453125 240.375 C 324.22314453125 240.125 324.1605224609375 239.9375 324.03564453125 239.8125 C 323.91064453125 239.6875 323.84814453125 239.5 323.84814453125 239.25 C 322.3485107421875 236.125 320.5987548828125 233.5 318.5992431640625 231.375 C 316.5997314453125 229.125 313.412841796875 228.0 309.0386962890625 228.0 C 302.2900390625 228.0 298.103515625 229.6875 296.478759765625 233.0625 C 294.854248046875 236.3125 294.041748046875 240.0625 294.041748046875 244.3125 C 294.041748046875 244.8125 294.041748046875 245.25 294.041748046875 245.625 C 294.041748046875 246.0 294.041748046875 246.4375 294.041748046875 246.9375 C 294.041748046875 246.9375 294.041748046875 246.9375 294.041748046875 246.9375"/>
  </g>
</svg>
