<?xml version="1.0" encoding="utf-8"?>
<svg xmlns="http://www.w3.org/2000/svg" xmlns:ev="http://www.w3.org/2001/xml-events" xmlns:xlink="http://www.w3.org/1999/xlink" version="1.1" baseProfile="full" width="5745.0" height="1398.0" viewBox="94.0 -1375.0 5745.0 1398.0">
<defs/>
<g><path d="M 2127.000000 -1298.000000 C 2127.000000 -1006.333333 2127.000000 -714.666667 2127.000000 -423.000000 C 2127.000000 -403.000000 2126.333333 -382.666667 2125.000000 -362.000000 C 2123.666667 -342.000000 2121.000000 -321.333333 2117.000000 -300.000000 C 2112.333333 -266.666667 2102.000000 -234.000000 2086.000000 -202.000000 C 2070.000000 -170.000000 2044.666667 -139.666667 2010.000000 -111.000000 C 2004.666667 -107.000000 1999.000000 -102.333333 1993.000000 -97.000000 C 1987.666667 -92.333333 1981.666667 -88.000000 1975.000000 -84.000000 C 1944.333333 -62.666667 1902.333333 -43.333333 1849.000000 -26.000000 C 1796.333333 -8.666667 1729.666667 0.000000 1649.000000 0.000000 C 1577.000000 0.000000 1512.333333 -8.000000 1455.000000 -24.000000 C 1397.666667 -40.000000 1348.333333 -63.333333 1307.000000 -94.000000 C 1243.000000 -141.333333 1204.333333 -194.000000 1191.000000 -252.000000 C 1177.666667 -310.000000 1171.000000 -370.666667 1171.000000 -434.000000 C 1171.000000 -724.000000 1171.000000 -1014.000000 1171.000000 -1304.000000 C 1171.000000 -1319.333333 1174.000000 -1329.666667 1180.000000 -1335.000000 C 1186.666667 -1341.000000 1197.666667 -1344.000000 1213.000000 -1344.000000 C 1296.000000 -1344.000000 1379.000000 -1344.000000 1462.000000 -1344.000000 C 1478.666667 -1344.000000 1490.333333 -1341.666667 1497.000000 -1337.000000 C 1504.333333 -1333.000000 1508.000000 -1320.666667 1508.000000 -1300.000000 C 1508.000000 -1021.333333 1508.000000 -742.666667 1508.000000 -464.000000 C 1508.000000 -464.000000 1508.000000 -463.666667 1508.000000 -463.000000 C 1508.000000 -463.000000 1508.000000 -463.000000 1508.000000 -463.000000 C 1508.000000 -451.666667 1508.333333 -440.000000 1509.000000 -428.000000 C 1509.666667 -416.666667 1510.666667 -404.666667 1512.000000 -392.000000 C 1517.333333 -358.000000 1531.666667 -326.666667 1555.000000 -298.000000 C 1579.000000 -270.000000 1624.333333 -256.000000 1691.000000 -256.000000 C 1747.000000 -256.000000 1786.666667 -269.000000 1810.000000 -295.000000 C 1833.333333 -321.666667 1848.000000 -350.333333 1854.000000 -381.000000 C 1858.000000 -396.333333 1860.333333 -411.333333 1861.000000 -426.000000 C 1861.666667 -440.666667 1862.000000 -453.333333 1862.000000 -464.000000 C 1862.000000 -743.333333 1862.000000 -1022.666667 1862.000000 -1302.000000 C 1862.000000 -1318.666667 1864.666667 -1329.666667 1870.000000 -1335.000000 C 1876.000000 -1341.000000 1887.333333 -1344.000000 1904.000000 -1344.000000 C 1962.333333 -1344.000000 2020.666667 -1344.000000 2079.000000 -1344.000000 C 2097.000000 -1344.000000 2109.333333 -1341.666667 2116.000000 -1337.000000 C 2123.333333 -1333.000000 2127.000000 -1320.000000 2127.000000 -1298.000000 C 2127.000000 -1298.000000 2127.000000 -1298.000000 2127.000000 -1298.000000z "/>
</g></svg>
