<?xml version="1.0" ?>
<svg xmlns="http://www.w3.org/2000/svg" version="1.1" width="600" height="600">
  <defs/>
  <g>
    <path stroke-width="0" fill="rgb(0, 0, 0)" opacity="1.0" d="M 330.28863525390625 242.25 C 330.28863525390625 300.5 330.28863525390625 358.75 330.28863525390625 417.0 C 330.28863525390625 420.875 329.53875732421875 423.375 328.0390625 424.5 C 326.66436767578125 425.5 324.41485595703125 426.0 321.29046630859375 426.0 C 307.10589599609375 426.0 292.92132568359375 426.0 278.73675537109375 426.0 C 275.4874267578125 426.0 273.48785400390625 425.25 272.73797607421875 423.75 C 271.9881591796875 422.125 271.61322021484375 420.0 271.61322021484375 417.375 C 271.61322021484375 358.875 271.61322021484375 300.375 271.61322021484375 241.875 C 271.61322021484375 239.25 271.9881591796875 237.3125 272.73797607421875 236.0625 C 273.61279296875 234.6875 275.73736572265625 234.0 279.1116943359375 234.0 C 293.2962646484375 234.0 307.4808349609375 234.0 321.6654052734375 234.0 C 325.03973388671875 234.0 327.28924560546875 234.5625 328.41400146484375 235.6875 C 329.66375732421875 236.6875 330.28863525390625 238.875 330.28863525390625 242.25 C 330.28863525390625 242.25 330.28863525390625 242.25 330.28863525390625 242.25M 329.351318359375 198.0 C 329.351318359375 206.25 326.4769287109375 212.3125 320.72808837890625 216.1875 C 315.104248046875 220.0625 308.7305908203125 222.0 301.6070556640625 222.0 C 293.48370361328125 222.0 286.42266845703125 220.0 280.42388916015625 216.0 C 274.55010986328125 212.0 271.61322021484375 206.125 271.61322021484375 198.375 C 271.61322021484375 191.75 274.05023193359375 186.0625 278.9241943359375 181.3125 C 283.9232177734375 176.4375 291.359130859375 174.0 301.23211669921875 174.0 C 311.1051025390625 174.0 318.1661376953125 176.4375 322.41522216796875 181.3125 C 326.789306640625 186.0625 329.10137939453125 191.625 329.351318359375 198.0 C 329.351318359375 198.0 329.351318359375 198.0 329.351318359375 198.0"/>
  </g>
</svg>
