<?xml version="1.0" encoding="utf-8"?>
<svg xmlns="http://www.w3.org/2000/svg" xmlns:ev="http://www.w3.org/2001/xml-events" xmlns:xlink="http://www.w3.org/1999/xlink" version="1.1" baseProfile="full" width="5745.0" height="1398.0" viewBox="94.0 -1375.0 5745.0 1398.0">
<defs/>
<g><path d="M 94.000000 -89.000000 C 94.000000 -483.000000 94.000000 -877.000000 94.000000 -1271.000000 C 94.000000 -1293.000000 97.000000 -1309.333333 103.000000 -1320.000000 C 109.666667 -1330.666667 121.333333 -1338.666667 138.000000 -1344.000000 C 160.000000 -1352.000000 200.000000 -1359.000000 258.000000 -1365.000000 C 316.666667 -1371.666667 383.000000 -1375.000000 457.000000 -1375.000000 C 536.333333 -1375.000000 610.333333 -1370.333333 679.000000 -1361.000000 C 748.333333 -1352.333333 808.666667 -1332.666667 860.000000 -1302.000000 C 901.333333 -1280.666667 936.666667 -1250.666667 966.000000 -1212.000000 C 995.333333 -1173.333333 1010.000000 -1124.666667 1010.000000 -1066.000000 C 1010.000000 -988.666667 989.666667 -925.000000 949.000000 -875.000000 C 909.000000 -825.000000 862.000000 -786.666667 808.000000 -760.000000 C 802.000000 -756.000000 795.333333 -752.333333 788.000000 -749.000000 C 781.333333 -745.666667 774.000000 -742.666667 766.000000 -740.000000 C 772.666667 -738.666667 779.333333 -737.333333 786.000000 -736.000000 C 793.333333 -734.666667 800.000000 -732.666667 806.000000 -730.000000 C 894.666667 -704.666667 960.666667 -658.666667 1004.000000 -592.000000 C 1047.333333 -526.000000 1069.000000 -452.333333 1069.000000 -371.000000 C 1069.000000 -289.666667 1048.333333 -220.000000 1007.000000 -162.000000 C 966.333333 -104.000000 912.000000 -59.666667 844.000000 -29.000000 C 804.666667 -12.333333 756.333333 0.333333 699.000000 9.000000 C 642.333333 18.333333 565.333333 23.000000 468.000000 23.000000 C 450.000000 23.000000 431.333333 22.666667 412.000000 22.000000 C 393.333333 21.333333 373.666667 21.000000 353.000000 21.000000 C 311.000000 18.333333 270.666667 15.333333 232.000000 12.000000 C 194.000000 9.333333 165.333333 5.333333 146.000000 0.000000 C 121.333333 -6.666667 106.666667 -16.333333 102.000000 -29.000000 C 98.000000 -41.666667 95.333333 -61.666667 94.000000 -89.000000 C 94.000000 -89.000000 94.000000 -89.000000 94.000000 -89.000000z M 422.000000 -638.000000 C 422.000000 -494.333333 422.000000 -350.666667 422.000000 -207.000000 C 438.666667 -205.666667 454.000000 -204.333333 468.000000 -203.000000 C 482.000000 -201.666667 495.333333 -201.000000 508.000000 -201.000000 C 521.333333 -201.000000 536.666667 -202.000000 554.000000 -204.000000 C 572.000000 -206.000000 590.000000 -209.333333 608.000000 -214.000000 C 616.000000 -216.666667 623.666667 -219.666667 631.000000 -223.000000 C 639.000000 -226.333333 646.666667 -230.666667 654.000000 -236.000000 C 672.000000 -248.666667 686.333333 -263.000000 697.000000 -279.000000 C 708.333333 -295.000000 716.333333 -311.333333 721.000000 -328.000000 C 726.333333 -342.000000 729.666667 -355.333333 731.000000 -368.000000 C 732.333333 -380.666667 733.000000 -392.666667 733.000000 -404.000000 C 733.000000 -412.000000 732.666667 -420.000000 732.000000 -428.000000 C 731.333333 -436.666667 730.333333 -444.666667 729.000000 -452.000000 C 726.333333 -468.666667 722.333333 -485.333333 717.000000 -502.000000 C 712.333333 -518.666667 705.000000 -534.000000 695.000000 -548.000000 C 691.000000 -553.333333 686.666667 -558.666667 682.000000 -564.000000 C 677.333333 -570.000000 672.000000 -575.666667 666.000000 -581.000000 C 650.666667 -596.333333 628.000000 -610.000000 598.000000 -622.000000 C 568.000000 -634.000000 526.666667 -640.000000 474.000000 -640.000000 C 467.333333 -640.000000 461.000000 -640.000000 455.000000 -640.000000 C 449.666667 -640.000000 444.333333 -640.000000 439.000000 -640.000000 C 435.666667 -640.000000 432.666667 -639.666667 430.000000 -639.000000 C 427.333333 -638.333333 424.666667 -638.000000 422.000000 -638.000000 C 422.000000 -638.000000 422.000000 -638.000000 422.000000 -638.000000z M 422.000000 -1210.000000 C 422.000000 -1073.000000 422.000000 -936.000000 422.000000 -799.000000 C 424.666667 -799.000000 427.333333 -799.000000 430.000000 -799.000000 C 432.666667 -799.000000 435.666667 -799.000000 439.000000 -799.000000 C 441.666667 -797.666667 445.000000 -797.000000 449.000000 -797.000000 C 453.000000 -797.000000 456.666667 -797.000000 460.000000 -797.000000 C 473.333333 -797.000000 487.000000 -797.666667 501.000000 -799.000000 C 515.000000 -800.333333 529.666667 -803.000000 545.000000 -807.000000 C 581.000000 -817.000000 614.000000 -838.000000 644.000000 -870.000000 C 674.000000 -902.000000 689.000000 -953.333333 689.000000 -1024.000000 C 689.000000 -1053.333333 684.666667 -1080.333333 676.000000 -1105.000000 C 668.000000 -1129.666667 655.666667 -1150.333333 639.000000 -1167.000000 C 627.666667 -1178.333333 615.000000 -1187.333333 601.000000 -1194.000000 C 587.666667 -1201.333333 574.000000 -1206.666667 560.000000 -1210.000000 C 548.666667 -1212.666667 537.000000 -1214.333333 525.000000 -1215.000000 C 513.666667 -1215.666667 503.000000 -1216.000000 493.000000 -1216.000000 C 480.333333 -1216.000000 468.000000 -1215.666667 456.000000 -1215.000000 C 444.666667 -1214.333333 433.333333 -1212.666667 422.000000 -1210.000000 C 422.000000 -1210.000000 422.000000 -1210.000000 422.000000 -1210.000000z "/>
</g>
<g><path d="M 2127.000000 -1298.000000 C 2127.000000 -1006.333333 2127.000000 -714.666667 2127.000000 -423.000000 C 2127.000000 -403.000000 2126.333333 -382.666667 2125.000000 -362.000000 C 2123.666667 -342.000000 2121.000000 -321.333333 2117.000000 -300.000000 C 2112.333333 -266.666667 2102.000000 -234.000000 2086.000000 -202.000000 C 2070.000000 -170.000000 2044.666667 -139.666667 2010.000000 -111.000000 C 2004.666667 -107.000000 1999.000000 -102.333333 1993.000000 -97.000000 C 1987.666667 -92.333333 1981.666667 -88.000000 1975.000000 -84.000000 C 1944.333333 -62.666667 1902.333333 -43.333333 1849.000000 -26.000000 C 1796.333333 -8.666667 1729.666667 0.000000 1649.000000 0.000000 C 1577.000000 0.000000 1512.333333 -8.000000 1455.000000 -24.000000 C 1397.666667 -40.000000 1348.333333 -63.333333 1307.000000 -94.000000 C 1243.000000 -141.333333 1204.333333 -194.000000 1191.000000 -252.000000 C 1177.666667 -310.000000 1171.000000 -370.666667 1171.000000 -434.000000 C 1171.000000 -724.000000 1171.000000 -1014.000000 1171.000000 -1304.000000 C 1171.000000 -1319.333333 1174.000000 -1329.666667 1180.000000 -1335.000000 C 1186.666667 -1341.000000 1197.666667 -1344.000000 1213.000000 -1344.000000 C 1296.000000 -1344.000000 1379.000000 -1344.000000 1462.000000 -1344.000000 C 1478.666667 -1344.000000 1490.333333 -1341.666667 1497.000000 -1337.000000 C 1504.333333 -1333.000000 1508.000000 -1320.666667 1508.000000 -1300.000000 C 1508.000000 -1021.333333 1508.000000 -742.666667 1508.000000 -464.000000 C 1508.000000 -464.000000 1508.000000 -463.666667 1508.000000 -463.000000 C 1508.000000 -463.000000 1508.000000 -463.000000 1508.000000 -463.000000 C 1508.000000 -451.666667 1508.333333 -440.000000 1509.000000 -428.000000 C 1509.666667 -416.666667 1510.666667 -404.666667 1512.000000 -392.000000 C 1517.333333 -358.000000 1531.666667 -326.666667 1555.000000 -298.000000 C 1579.000000 -270.000000 1624.333333 -256.000000 1691.000000 -256.000000 C 1747.000000 -256.000000 1786.666667 -269.000000 1810.000000 -295.000000 C 1833.333333 -321.666667 1848.000000 -350.333333 1854.000000 -381.000000 C 1858.000000 -396.333333 1860.333333 -411.333333 1861.000000 -426.000000 C 1861.666667 -440.666667 1862.000000 -453.333333 1862.000000 -464.000000 C 1862.000000 -743.333333 1862.000000 -1022.666667 1862.000000 -1302.000000 C 1862.000000 -1318.666667 1864.666667 -1329.666667 1870.000000 -1335.000000 C 1876.000000 -1341.000000 1887.333333 -1344.000000 1904.000000 -1344.000000 C 1962.333333 -1344.000000 2020.666667 -1344.000000 2079.000000 -1344.000000 C 2097.000000 -1344.000000 2109.333333 -1341.666667 2116.000000 -1337.000000 C 2123.333333 -1333.000000 2127.000000 -1320.000000 2127.000000 -1298.000000 C 2127.000000 -1298.000000 2127.000000 -1298.000000 2127.000000 -1298.000000z "/>
</g>
<g><path d="M 2639.000000 -1302.000000 C 2792.666667 -1059.000000 2946.333333 -816.000000 3100.000000 -573.000000 C 3100.000000 -816.000000 3100.000000 -1059.000000 3100.000000 -1302.000000 C 3100.000000 -1320.000000 3103.000000 -1331.333333 3109.000000 -1336.000000 C 3115.666667 -1341.333333 3126.666667 -1344.000000 3142.000000 -1344.000000 C 3195.333333 -1344.000000 3248.666667 -1344.000000 3302.000000 -1344.000000 C 3303.333333 -1344.000000 3304.333333 -1344.000000 3305.000000 -1344.000000 C 3305.666667 -1344.000000 3306.666667 -1344.000000 3308.000000 -1344.000000 C 3326.000000 -1344.000000 3337.000000 -1339.666667 3341.000000 -1331.000000 C 3345.666667 -1323.000000 3348.000000 -1312.000000 3348.000000 -1298.000000 C 3348.000000 -880.000000 3348.000000 -462.000000 3348.000000 -44.000000 C 3348.000000 -28.666667 3345.000000 -17.333333 3339.000000 -10.000000 C 3333.666667 -3.333333 3321.333333 0.000000 3302.000000 0.000000 C 3260.333333 0.000000 3218.666667 0.000000 3177.000000 0.000000 C 3161.666667 0.000000 3150.000000 -1.000000 3142.000000 -3.000000 C 3134.666667 -5.000000 3127.666667 -9.000000 3121.000000 -15.000000 C 3117.000000 -19.000000 3113.333333 -22.666667 3110.000000 -26.000000 C 3107.333333 -30.000000 3104.000000 -35.333333 3100.000000 -42.000000 C 2928.666667 -311.000000 2757.333333 -580.000000 2586.000000 -849.000000 C 2586.000000 -582.000000 2586.000000 -315.000000 2586.000000 -48.000000 C 2586.000000 -31.333333 2583.000000 -19.000000 2577.000000 -11.000000 C 2571.666667 -3.666667 2558.666667 0.000000 2538.000000 0.000000 C 2486.000000 0.000000 2434.000000 0.000000 2382.000000 0.000000 C 2364.000000 0.000000 2351.333333 -3.000000 2344.000000 -9.000000 C 2337.333333 -15.666667 2334.000000 -27.333333 2334.000000 -44.000000 C 2334.000000 -462.000000 2334.000000 -880.000000 2334.000000 -1298.000000 C 2334.000000 -1318.666667 2338.666667 -1331.333333 2348.000000 -1336.000000 C 2358.000000 -1341.333333 2370.000000 -1344.000000 2384.000000 -1344.000000 C 2444.666667 -1344.000000 2505.333333 -1344.000000 2566.000000 -1344.000000 C 2580.000000 -1344.000000 2590.666667 -1342.666667 2598.000000 -1340.000000 C 2606.000000 -1337.333333 2613.333333 -1333.000000 2620.000000 -1327.000000 C 2624.000000 -1323.000000 2627.000000 -1319.000000 2629.000000 -1315.000000 C 2631.666667 -1311.666667 2635.000000 -1307.333333 2639.000000 -1302.000000 C 2639.000000 -1302.000000 2639.000000 -1302.000000 2639.000000 -1302.000000z "/>
</g>
<g><path d="M 3919.000000 -1302.000000 C 4072.666667 -1059.000000 4226.333333 -816.000000 4380.000000 -573.000000 C 4380.000000 -816.000000 4380.000000 -1059.000000 4380.000000 -1302.000000 C 4380.000000 -1320.000000 4383.000000 -1331.333333 4389.000000 -1336.000000 C 4395.666667 -1341.333333 4406.666667 -1344.000000 4422.000000 -1344.000000 C 4475.333333 -1344.000000 4528.666667 -1344.000000 4582.000000 -1344.000000 C 4583.333333 -1344.000000 4584.333333 -1344.000000 4585.000000 -1344.000000 C 4585.666667 -1344.000000 4586.666667 -1344.000000 4588.000000 -1344.000000 C 4606.000000 -1344.000000 4617.000000 -1339.666667 4621.000000 -1331.000000 C 4625.666667 -1323.000000 4628.000000 -1312.000000 4628.000000 -1298.000000 C 4628.000000 -880.000000 4628.000000 -462.000000 4628.000000 -44.000000 C 4628.000000 -28.666667 4625.000000 -17.333333 4619.000000 -10.000000 C 4613.666667 -3.333333 4601.333333 0.000000 4582.000000 0.000000 C 4540.333333 0.000000 4498.666667 0.000000 4457.000000 0.000000 C 4441.666667 0.000000 4430.000000 -1.000000 4422.000000 -3.000000 C 4414.666667 -5.000000 4407.666667 -9.000000 4401.000000 -15.000000 C 4397.000000 -19.000000 4393.333333 -22.666667 4390.000000 -26.000000 C 4387.333333 -30.000000 4384.000000 -35.333333 4380.000000 -42.000000 C 4208.666667 -311.000000 4037.333333 -580.000000 3866.000000 -849.000000 C 3866.000000 -582.000000 3866.000000 -315.000000 3866.000000 -48.000000 C 3866.000000 -31.333333 3863.000000 -19.000000 3857.000000 -11.000000 C 3851.666667 -3.666667 3838.666667 0.000000 3818.000000 0.000000 C 3766.000000 0.000000 3714.000000 0.000000 3662.000000 0.000000 C 3644.000000 0.000000 3631.333333 -3.000000 3624.000000 -9.000000 C 3617.333333 -15.666667 3614.000000 -27.333333 3614.000000 -44.000000 C 3614.000000 -462.000000 3614.000000 -880.000000 3614.000000 -1298.000000 C 3614.000000 -1318.666667 3618.666667 -1331.333333 3628.000000 -1336.000000 C 3638.000000 -1341.333333 3650.000000 -1344.000000 3664.000000 -1344.000000 C 3724.666667 -1344.000000 3785.333333 -1344.000000 3846.000000 -1344.000000 C 3860.000000 -1344.000000 3870.666667 -1342.666667 3878.000000 -1340.000000 C 3886.000000 -1337.333333 3893.333333 -1333.000000 3900.000000 -1327.000000 C 3904.000000 -1323.000000 3907.000000 -1319.000000 3909.000000 -1315.000000 C 3911.666667 -1311.666667 3915.000000 -1307.333333 3919.000000 -1302.000000 C 3919.000000 -1302.000000 3919.000000 -1302.000000 3919.000000 -1302.000000z "/>
</g>
<g><path d="M 5823.000000 -1275.000000 C 5795.000000 -1217.750000 5767.000000 -1160.500000 5739.000000 -1103.250000 C 5711.000000 -1046.000000 5683.000000 -988.750000 5655.000000 -931.500000 C 5627.000000 -874.250000 5599.000000 -817.000000 5571.000000 -759.750000 C 5543.000000 -702.500000 5515.000000 -645.250000 5487.000000 -588.000000 C 5487.000000 -497.666667 5487.000000 -407.333333 5487.000000 -317.000000 C 5487.000000 -226.666667 5487.000000 -136.333333 5487.000000 -46.000000 C 5487.000000 -28.000000 5484.000000 -15.666667 5478.000000 -9.000000 C 5472.666667 -3.000000 5461.000000 0.000000 5443.000000 0.000000 C 5358.666667 0.000000 5274.333333 0.000000 5190.000000 0.000000 C 5177.333333 0.000000 5166.666667 -2.000000 5158.000000 -6.000000 C 5150.000000 -10.666667 5146.000000 -22.000000 5146.000000 -40.000000 C 5146.000000 -133.500000 5146.000000 -227.000000 5146.000000 -320.500000 C 5146.000000 -414.000000 5146.000000 -507.500000 5146.000000 -601.000000 C 5090.500000 -713.333333 5035.000000 -825.666667 4979.500000 -938.000000 C 4924.000000 -1050.333333 4868.500000 -1162.666667 4813.000000 -1275.000000 C 4809.666667 -1282.333333 4807.000000 -1288.333333 4805.000000 -1293.000000 C 4803.000000 -1297.666667 4801.333333 -1301.666667 4800.000000 -1305.000000 C 4800.000000 -1306.333333 4800.000000 -1307.666667 4800.000000 -1309.000000 C 4800.000000 -1310.333333 4800.000000 -1311.666667 4800.000000 -1313.000000 C 4800.000000 -1323.666667 4802.666667 -1331.000000 4808.000000 -1335.000000 C 4814.000000 -1339.666667 4820.333333 -1342.000000 4827.000000 -1342.000000 C 4829.666667 -1343.333333 4832.333333 -1344.000000 4835.000000 -1344.000000 C 4838.333333 -1344.000000 4841.333333 -1344.000000 4844.000000 -1344.000000 C 4934.333333 -1344.000000 5024.666667 -1344.000000 5115.000000 -1344.000000 C 5127.666667 -1344.000000 5137.666667 -1343.000000 5145.000000 -1341.000000 C 5152.333333 -1339.000000 5158.333333 -1334.333333 5163.000000 -1327.000000 C 5164.333333 -1323.000000 5166.000000 -1319.000000 5168.000000 -1315.000000 C 5170.000000 -1311.666667 5172.333333 -1307.333333 5175.000000 -1302.000000 C 5206.000000 -1231.666667 5237.000000 -1161.333333 5268.000000 -1091.000000 C 5299.000000 -1020.666667 5330.000000 -950.333333 5361.000000 -880.000000 C 5394.166667 -950.000000 5427.333333 -1020.000000 5460.500000 -1090.000000 C 5493.666667 -1160.000000 5526.833333 -1230.000000 5560.000000 -1300.000000 C 5562.666667 -1305.333333 5565.000000 -1309.333333 5567.000000 -1312.000000 C 5569.000000 -1315.333333 5570.666667 -1319.000000 5572.000000 -1323.000000 C 5578.000000 -1330.333333 5584.333333 -1335.666667 5591.000000 -1339.000000 C 5597.666667 -1342.333333 5607.333333 -1344.000000 5620.000000 -1344.000000 C 5680.666667 -1344.000000 5741.333333 -1344.000000 5802.000000 -1344.000000 C 5804.666667 -1344.000000 5807.000000 -1344.000000 5809.000000 -1344.000000 C 5811.000000 -1344.000000 5813.333333 -1344.000000 5816.000000 -1344.000000 C 5822.000000 -1342.666667 5827.333333 -1340.333333 5832.000000 -1337.000000 C 5836.666667 -1333.666667 5839.000000 -1327.666667 5839.000000 -1319.000000 C 5839.000000 -1317.666667 5839.000000 -1316.666667 5839.000000 -1316.000000 C 5839.000000 -1315.333333 5839.000000 -1315.000000 5839.000000 -1315.000000 C 5839.000000 -1310.333333 5837.666667 -1305.000000 5835.000000 -1299.000000 C 5832.333333 -1293.000000 5828.333333 -1285.000000 5823.000000 -1275.000000 C 5823.000000 -1275.000000 5823.000000 -1275.000000 5823.000000 -1275.000000z "/>
</g>
</svg>
