<?xml version="1.0" ?>
<svg xmlns="http://www.w3.org/2000/svg" version="1.1" width="600" height="600">
  <defs/>
  <g>
    <path stroke-width="0" fill="rgb(0, 0, 0)" opacity="1.0" d="M 155.99270629882812 288.46875 C 155.99270629882812 296.5260009765625 155.99270629882812 304.5833740234375 155.99270629882812 312.640625 C 155.99270629882812 312.935791015625 155.99270629882812 313.2603759765625 155.99270629882812 313.6146240234375 C 155.99270629882812 313.939208984375 155.9630126953125 314.2786865234375 155.9036865234375 314.6328125 C 155.84432983398438 315.2821044921875 155.72561645507812 315.931396484375 155.54754638671875 316.5806884765625 C 155.399169921875 317.2005615234375 155.08755493164062 317.8055419921875 154.61270141601562 318.3958740234375 C 154.46432495117188 318.6319580078125 154.27142333984375 318.8680419921875 154.03399658203125 319.1041259765625 C 153.79660034179688 319.310791015625 153.5146484375 319.5321044921875 153.18820190429688 319.7681884765625 C 151.971435546875 320.6241455078125 150.20562744140625 321.376708984375 147.89080810546875 322.0260009765625 C 145.60565185546875 322.67535400390625 142.6676025390625 323.0 139.07666015625 323.0 C 138.275390625 323.0 137.05862426757812 322.970458984375 135.42636108398438 322.9114990234375 C 133.82379150390625 322.8228759765625 132.1322021484375 322.52777099609375 130.3515625 322.0260009765625 C 127.94769287109375 321.435791015625 125.7515869140625 320.34375 123.76321411132812 318.75 C 121.77481079101562 317.15625 120.7806396484375 314.70660400390625 120.7806396484375 311.4010009765625 C 120.7806396484375 306.295166015625 123.03610229492188 302.7977294921875 127.54705810546875 300.9088134765625 C 132.08767700195312 299.01995849609375 137.07345581054688 297.5147705078125 142.50439453125 296.3931884765625 C 142.65277099609375 296.334228515625 142.78631591796875 296.2899169921875 142.905029296875 296.2603759765625 C 143.02374267578125 296.23089599609375 143.1424560546875 296.2161865234375 143.26116943359375 296.2161865234375 C 143.26116943359375 294.84375 143.26116943359375 293.4713134765625 143.26116943359375 292.0989990234375 C 143.26116943359375 291.8333740234375 143.26116943359375 291.552978515625 143.26116943359375 291.2578125 C 143.26116943359375 290.962646484375 143.23147583007812 290.6822509765625 143.172119140625 290.4166259765625 C 143.11276245117188 289.3541259765625 142.83084106445312 288.3802490234375 142.32632446289062 287.4947509765625 C 141.82180786132812 286.609375 140.76828002929688 286.1666259765625 139.16571044921875 286.1666259765625 C 138.0379638671875 286.1666259765625 137.14764404296875 286.41754150390625 136.4947509765625 286.9193115234375 C 135.87152099609375 287.4210205078125 135.39669799804688 287.99652099609375 135.07025146484375 288.6458740234375 C 134.9515380859375 288.9114990234375 134.83282470703125 289.162353515625 134.714111328125 289.3984375 C 134.59539794921875 289.60504150390625 134.52120971679688 289.826416015625 134.49151611328125 290.0625 C 134.49151611328125 290.12152099609375 134.4766845703125 290.165771484375 134.447021484375 290.1953125 C 134.41732788085938 290.224853515625 134.40249633789062 290.26910400390625 134.40249633789062 290.328125 C 133.92767333984375 291.44964599609375 133.31927490234375 292.4974365234375 132.57733154296875 293.4713134765625 C 131.83541870117188 294.4453125 130.52960205078125 294.9322509765625 128.65994262695312 294.9322509765625 C 126.790283203125 294.9322509765625 125.35092163085938 294.38629150390625 124.3419189453125 293.2943115234375 C 123.3328857421875 292.1727294921875 122.828369140625 290.9036865234375 122.828369140625 289.4869384765625 C 122.828369140625 289.1328125 122.8580322265625 288.79339599609375 122.91738891601562 288.46875 C 122.97674560546875 288.1146240234375 123.0657958984375 287.775146484375 123.18447875976562 287.4505615234375 C 123.8670654296875 284.7647705078125 125.69223022460938 282.123291015625 128.65994262695312 279.5260009765625 C 131.627685546875 276.9288330078125 135.90118408203125 275.6302490234375 141.48052978515625 275.6302490234375 C 142.1630859375 275.6302490234375 142.8753662109375 275.64495849609375 143.61727905273438 275.6744384765625 C 144.35922241210938 275.7039794921875 145.10113525390625 275.77777099609375 145.84307861328125 275.8958740234375 C 146.79275512695312 276.04339599609375 147.742431640625 276.2647705078125 148.69210815429688 276.5599365234375 C 149.64178466796875 276.85504150390625 150.50241088867188 277.2239990234375 151.27401733398438 277.6666259765625 C 152.43142700195312 278.43402099609375 153.33657836914062 279.2899169921875 153.989501953125 280.234375 C 154.64239501953125 281.1492919921875 155.11721801757812 282.09375 155.41400146484375 283.0677490234375 C 155.68109130859375 284.0711669921875 155.84432983398438 285.045166015625 155.9036865234375 285.9896240234375 C 155.9630126953125 286.904541015625 155.99270629882812 287.73089599609375 155.99270629882812 288.46875 C 155.99270629882812 288.46875 155.99270629882812 288.46875 155.99270629882812 288.46875M 143.26116943359375 310.6927490234375 C 143.26116943359375 307.25433349609375 143.26116943359375 303.81597900390625 143.26116943359375 300.3775634765625 C 140.91665649414062 301.115478515625 138.76504516601562 302.045166015625 136.80636596679688 303.1666259765625 C 134.84765625 304.2586669921875 133.86831665039062 306.368896484375 133.86831665039062 309.4974365234375 C 133.86831665039062 311.5338134765625 134.3134765625 313.0538330078125 135.20379638671875 314.0572509765625 C 136.123779296875 315.03125 137.1624755859375 315.63629150390625 138.31988525390625 315.8724365234375 C 138.49795532226562 315.8724365234375 138.6463623046875 315.88714599609375 138.76504516601562 315.9166259765625 C 138.9134521484375 315.9461669921875 139.07666015625 315.9609375 139.25473022460938 315.9609375 C 140.619873046875 315.9609375 141.56954956054688 315.6068115234375 142.103759765625 314.8984375 C 142.637939453125 314.1900634765625 142.99407958984375 313.4375 143.172119140625 312.640625 C 143.23147583007812 312.2864990234375 143.26116943359375 311.947021484375 143.26116943359375 311.6224365234375 C 143.26116943359375 311.2681884765625 143.26116943359375 310.9583740234375 143.26116943359375 310.6927490234375 C 143.26116943359375 310.6927490234375 143.26116943359375 310.6927490234375 143.26116943359375 310.6927490234375"/>
    <path stroke-width="0" fill="rgb(0, 0, 0)" opacity="1.0" d="M 162.5810546875 321.0521240234375 C 162.5810546875 309.7039794921875 162.5810546875 298.35589599609375 162.5810546875 287.0078125 C 162.5810546875 285.5025634765625 162.65524291992188 284.3367919921875 162.80364990234375 283.5103759765625 C 162.9520263671875 282.68402099609375 163.36749267578125 281.9609375 164.05007934570312 281.3411865234375 C 164.13909912109375 281.22308349609375 164.2578125 281.09027099609375 164.40621948242188 280.9427490234375 C 164.55459594726562 280.795166015625 164.71783447265625 280.662353515625 164.8958740234375 280.5443115234375 C 165.84555053710938 279.865478515625 166.97329711914062 279.3046875 168.27908325195312 278.8619384765625 C 169.61456298828125 278.3897705078125 170.96487426757812 278.0208740234375 172.33004760742188 277.7552490234375 C 173.99197387695312 277.37152099609375 175.55001831054688 277.10589599609375 177.00421142578125 276.9583740234375 C 178.48806762695312 276.810791015625 179.71966552734375 276.7369384765625 180.69903564453125 276.7369384765625 C 183.48867797851562 276.7369384765625 185.75900268554688 277.0321044921875 187.50994873046875 277.6224365234375 C 189.29058837890625 278.18316650390625 190.72991943359375 278.802978515625 191.8280029296875 279.4818115234375 C 192.391845703125 279.806396484375 192.86669921875 280.131103515625 193.25250244140625 280.4556884765625 C 193.66796875 280.7508544921875 194.00927734375 281.0460205078125 194.2763671875 281.3411865234375 C 194.57315063476562 281.10504150390625 194.85507202148438 280.8836669921875 195.12216186523438 280.6771240234375 C 195.4189453125 280.44097900390625 195.74539184570312 280.17535400390625 196.10150146484375 279.8802490234375 C 196.66537475585938 279.49652099609375 197.37762451171875 279.1275634765625 198.23828125 278.7734375 C 199.12860107421875 278.3897705078125 200.21182250976562 278.0208740234375 201.48794555664062 277.6666259765625 C 202.79376220703125 277.342041015625 204.12921142578125 277.10589599609375 205.494384765625 276.9583740234375 C 206.85952758789062 276.810791015625 208.25436401367188 276.7369384765625 209.67886352539062 276.7369384765625 C 214.13046264648438 276.7369384765625 217.35043334960938 277.578125 219.33880615234375 279.2603759765625 C 221.32720947265625 280.9427490234375 222.69232177734375 282.83160400390625 223.43426513671875 284.9271240234375 C 223.820068359375 286.13714599609375 224.07232666015625 287.34722900390625 224.1910400390625 288.5572509765625 C 224.30975341796875 289.73785400390625 224.36911010742188 290.697021484375 224.36911010742188 291.4349365234375 C 224.36911010742188 301.27777099609375 224.36911010742188 311.12066650390625 224.36911010742188 320.9635009765625 C 224.36911010742188 321.642333984375 224.2652587890625 322.1588134765625 224.0574951171875 322.5130615234375 C 223.87942504882812 322.837646484375 223.41943359375 323.0 222.677490234375 323.0 C 219.3536376953125 323.0 216.02978515625 323.0 212.7059326171875 323.0 C 211.96401977539062 323.0 211.44467163085938 322.8524169921875 211.14788818359375 322.5572509765625 C 210.88079833984375 322.232666015625 210.74725341796875 321.73089599609375 210.74725341796875 321.0521240234375 C 210.74725341796875 311.7552490234375 210.74725341796875 302.4583740234375 210.74725341796875 293.1614990234375 C 210.74725341796875 292.8072509765625 210.74725341796875 292.4678955078125 210.74725341796875 292.1431884765625 C 210.74725341796875 291.7890625 210.71755981445312 291.44964599609375 210.658203125 291.125 C 210.598876953125 289.8853759765625 210.24273681640625 288.7491455078125 209.58984375 287.7161865234375 C 208.93695068359375 286.68316650390625 207.64596557617188 286.1666259765625 205.71694946289062 286.1666259765625 C 204.618896484375 286.1666259765625 203.75823974609375 286.3289794921875 203.13504028320312 286.6536865234375 C 202.51181030273438 286.94879150390625 202.0369873046875 287.2882080078125 201.71051025390625 287.671875 C 200.96859741210938 288.3507080078125 200.53826904296875 289.103271484375 200.4195556640625 289.9296875 C 200.30084228515625 290.7265625 200.24151611328125 291.8038330078125 200.24151611328125 293.1614990234375 C 200.24151611328125 302.4583740234375 200.24151611328125 311.7552490234375 200.24151611328125 321.0521240234375 C 200.24151611328125 321.7899169921875 200.10794067382812 322.306396484375 199.84085083007812 322.6015625 C 199.60342407226562 322.8671875 199.08407592773438 323.0 198.28280639648438 323.0 C 195.1815185546875 323.0 192.08026123046875 323.0 188.97897338867188 323.0 C 188.237060546875 323.0 187.6583251953125 322.896728515625 187.24285888671875 322.6900634765625 C 186.8570556640625 322.4539794921875 186.66415405273438 321.87847900390625 186.66415405273438 320.9635009765625 C 186.66415405273438 311.5338134765625 186.66415405273438 302.1041259765625 186.66415405273438 292.6744384765625 C 186.66415405273438 291.818603515625 186.6492919921875 291.1397705078125 186.61962890625 290.6380615234375 C 186.5899658203125 290.1068115234375 186.5157470703125 289.6492919921875 186.39706420898438 289.265625 C 186.1893310546875 288.2916259765625 185.78866577148438 287.5390625 185.19512939453125 287.0078125 C 184.63125610351562 286.4765625 184.008056640625 286.0928955078125 183.32546997070312 285.8568115234375 C 183.058349609375 285.73870849609375 182.7615966796875 285.650146484375 182.43515014648438 285.5911865234375 C 182.10870361328125 285.5321044921875 181.81192016601562 285.5025634765625 181.54483032226562 285.5025634765625 C 180.80288696289062 285.5025634765625 180.0758056640625 285.650146484375 179.36355590820312 285.9453125 C 178.65130615234375 286.2109375 178.07257080078125 286.579833984375 177.62744140625 287.0521240234375 C 176.885498046875 287.7899169921875 176.45516967773438 288.5867919921875 176.33645629882812 289.4427490234375 C 176.2177734375 290.26910400390625 176.15838623046875 291.228271484375 176.15838623046875 292.3203125 C 176.15838623046875 301.8385009765625 176.15838623046875 311.3568115234375 176.15838623046875 320.875 C 176.15838623046875 321.61285400390625 176.02484130859375 322.1588134765625 175.75775146484375 322.5130615234375 C 175.52032470703125 322.837646484375 174.94161987304688 323.0 174.02163696289062 323.0 C 170.89068603515625 323.0 167.75973510742188 323.0 164.6287841796875 323.0 C 163.8868408203125 323.0 163.3526611328125 322.8819580078125 163.02621459960938 322.6458740234375 C 162.72943115234375 322.3802490234375 162.5810546875 321.8489990234375 162.5810546875 321.0521240234375 C 162.5810546875 321.0521240234375 162.5810546875 321.0521240234375 162.5810546875 321.0521240234375"/>
    <path stroke-width="0" fill="rgb(0, 0, 0)" opacity="1.0" d="M 244.44577026367188 260.578125 C 244.44577026367188 267.8680419921875 244.44577026367188 275.157958984375 244.44577026367188 282.4478759765625 C 244.7425537109375 282.15277099609375 245.08383178710938 281.8428955078125 245.46963500976562 281.5181884765625 C 245.85543823242188 281.1640625 246.34512329101562 280.795166015625 246.93865966796875 280.4114990234375 C 247.94769287109375 279.732666015625 249.16445922851562 279.11285400390625 250.5889892578125 278.5521240234375 C 252.01348876953125 277.9617919921875 253.6754150390625 277.6666259765625 255.57476806640625 277.6666259765625 C 260.560546875 277.6666259765625 264.19598388671875 279.673583984375 266.48114013671875 283.6875 C 268.76629638671875 287.671875 269.90887451171875 292.290771484375 269.90887451171875 297.5443115234375 C 269.90887451171875 298.10504150390625 269.89404296875 298.6805419921875 269.8643493652344 299.2708740234375 C 269.83465576171875 299.83160400390625 269.7901611328125 300.421875 269.7308044433594 301.0416259765625 C 269.28564453125 306.53125 267.401123046875 311.5633544921875 264.0772705078125 316.1380615234375 C 260.7831115722656 320.712646484375 255.36700439453125 323.0 247.8289794921875 323.0 C 247.73992919921875 323.0 247.65093994140625 323.0 247.5618896484375 323.0 C 247.47283935546875 323.0 247.36898803710938 323.0 247.25027465820312 323.0 C 244.638671875 322.94097900390625 242.11611938476562 322.5867919921875 239.68258666992188 321.9375 C 237.2490234375 321.2882080078125 235.26068115234375 320.314208984375 233.71743774414062 319.015625 C 233.68777465820312 318.95660400390625 233.62841796875 318.8975830078125 233.53936767578125 318.8385009765625 C 233.45034790039062 318.779541015625 233.37615966796875 318.7056884765625 233.31680297851562 318.6171875 C 232.21875 317.6727294921875 231.55099487304688 316.625 231.3135986328125 315.4739990234375 C 231.1058349609375 314.3228759765625 231.00198364257812 312.69964599609375 231.00198364257812 310.6041259765625 C 231.00198364257812 293.9583740234375 231.00198364257812 277.3125 231.00198364257812 260.6666259765625 C 231.00198364257812 259.515625 231.15036010742188 258.7630615234375 231.4471435546875 258.40887451171875 C 231.77359008789062 258.025146484375 232.30776977539062 257.8333740234375 233.04971313476562 257.8333740234375 C 236.16583251953125 257.8333740234375 239.28192138671875 257.8333740234375 242.39804077148438 257.8333740234375 C 243.02127075195312 257.8333740234375 243.51092529296875 258.01043701171875 243.8670654296875 258.3646240234375 C 244.25286865234375 258.689208984375 244.44577026367188 259.4271240234375 244.44577026367188 260.578125 C 244.44577026367188 260.578125 244.44577026367188 260.578125 244.44577026367188 260.578125M 244.44577026367188 287.7603759765625 C 244.44577026367188 294.578125 244.44577026367188 301.3958740234375 244.44577026367188 308.2135009765625 C 244.44577026367188 308.59722900390625 244.46060180664062 309.025146484375 244.49029541015625 309.4974365234375 C 244.51995849609375 309.9696044921875 244.56448364257812 310.45660400390625 244.62384033203125 310.9583740234375 C 244.80191040039062 311.9913330078125 245.18771362304688 312.9210205078125 245.78125 313.7474365234375 C 246.37478637695312 314.5443115234375 247.38381958007812 314.9427490234375 248.808349609375 314.9427490234375 C 251.15283203125 314.9427490234375 252.99282836914062 313.4522705078125 254.32830810546875 310.4713134765625 C 255.66375732421875 307.490478515625 256.3315124511719 303.9193115234375 256.3315124511719 299.7578125 C 256.3315124511719 299.01995849609375 256.30181884765625 298.296875 256.24249267578125 297.5885009765625 C 256.1831359863281 296.8507080078125 256.123779296875 296.0833740234375 256.0644226074219 295.2864990234375 C 255.94570922851562 294.6666259765625 255.8270263671875 294.046875 255.70831298828125 293.4271240234375 C 255.6192626953125 292.8072509765625 255.4857177734375 292.217041015625 255.30764770507812 291.65625 C 254.80316162109375 290.032958984375 254.04638671875 288.7196044921875 253.037353515625 287.7161865234375 C 252.0283203125 286.68316650390625 250.70770263671875 286.1666259765625 249.075439453125 286.1666259765625 C 248.45220947265625 286.1666259765625 247.87350463867188 286.240478515625 247.33929443359375 286.3880615234375 C 246.83480834960938 286.53558349609375 246.35995483398438 286.7421875 245.914794921875 287.0078125 C 245.6773681640625 287.1258544921875 245.43994140625 287.243896484375 245.20254516601562 287.3619384765625 C 244.99481201171875 287.4505615234375 244.7425537109375 287.5833740234375 244.44577026367188 287.7603759765625 C 244.44577026367188 287.7603759765625 244.44577026367188 287.7603759765625 244.44577026367188 287.7603759765625"/>
    <path stroke-width="0" fill="rgb(0, 0, 0)" opacity="1.0" d="M 290.51971435546875 279.6146240234375 C 290.51971435546875 293.3680419921875 290.51971435546875 307.12152099609375 290.51971435546875 320.875 C 290.51971435546875 321.7899169921875 290.3416748046875 322.3802490234375 289.98553466796875 322.6458740234375 C 289.6590881347656 322.8819580078125 289.1248779296875 323.0 288.3829650878906 323.0 C 285.01458740234375 323.0 281.646240234375 323.0 278.27783203125 323.0 C 277.5062255859375 323.0 277.0314025878906 322.8228759765625 276.85333251953125 322.46875 C 276.67529296875 322.0850830078125 276.58624267578125 321.5833740234375 276.58624267578125 320.9635009765625 C 276.58624267578125 307.1510009765625 276.58624267578125 293.3385009765625 276.58624267578125 279.5260009765625 C 276.58624267578125 278.90625 276.67529296875 278.44879150390625 276.85333251953125 278.1536865234375 C 277.06109619140625 277.8289794921875 277.56561279296875 277.6666259765625 278.36688232421875 277.6666259765625 C 281.7352600097656 277.6666259765625 285.1036376953125 277.6666259765625 288.47198486328125 277.6666259765625 C 289.27325439453125 277.6666259765625 289.8074645996094 277.7994384765625 290.0745544433594 278.0650634765625 C 290.371337890625 278.30120849609375 290.51971435546875 278.8177490234375 290.51971435546875 279.6146240234375 C 290.51971435546875 279.6146240234375 290.51971435546875 279.6146240234375 290.51971435546875 279.6146240234375M 290.297119140625 269.1666259765625 C 290.297119140625 271.1146240234375 289.61456298828125 272.5460205078125 288.2493896484375 273.4609375 C 286.9139404296875 274.3758544921875 285.400390625 274.8333740234375 283.70880126953125 274.8333740234375 C 281.77978515625 274.8333740234375 280.1029968261719 274.361083984375 278.6784973144531 273.4166259765625 C 277.2836608886719 272.47222900390625 276.58624267578125 271.0850830078125 276.58624267578125 269.2552490234375 C 276.58624267578125 267.69097900390625 277.1649475097656 266.34808349609375 278.3223876953125 265.2265625 C 279.50946044921875 264.0755615234375 281.2752685546875 263.5 283.6197509765625 263.5 C 285.9642639160156 263.5 287.6410217285156 264.0755615234375 288.6500549316406 265.2265625 C 289.6887512207031 266.34808349609375 290.23779296875 267.6614990234375 290.297119140625 269.1666259765625 C 290.297119140625 269.1666259765625 290.297119140625 269.1666259765625 290.297119140625 269.1666259765625"/>
    <path stroke-width="0" fill="rgb(0, 0, 0)" opacity="1.0" d="M 338.374267578125 283.5103759765625 C 336.2672119140625 284.2039794921875 334.16015625 284.8975830078125 332.05303955078125 285.5911865234375 C 332.14208984375 285.8272705078125 332.2310791015625 286.048583984375 332.32012939453125 286.2552490234375 C 332.4091796875 286.4617919921875 332.5130615234375 286.7274169921875 332.6317138671875 287.0521240234375 C 332.92852783203125 287.7603759765625 333.1807861328125 288.631103515625 333.3885498046875 289.6640625 C 333.6259765625 290.697021484375 333.74462890625 291.84808349609375 333.74462890625 293.1171875 C 333.74462890625 297.95745849609375 332.3052978515625 301.6024169921875 329.4266052246094 304.0521240234375 C 326.54791259765625 306.501708984375 323.3724365234375 308.0069580078125 319.90020751953125 308.5677490234375 C 319.39569091796875 308.685791015625 318.8763427734375 308.759521484375 318.3421630859375 308.7890625 C 317.837646484375 308.818603515625 317.3331298828125 308.8333740234375 316.82861328125 308.8333740234375 C 315.96795654296875 308.8333740234375 315.13702392578125 308.7890625 314.3357238769531 308.7005615234375 C 313.5640869140625 308.6119384765625 312.8370361328125 308.5086669921875 312.1544494628906 308.390625 C 311.73895263671875 308.98089599609375 311.3828125 309.51214599609375 311.0860595703125 309.984375 C 310.8189697265625 310.45660400390625 310.6854248046875 310.8992919921875 310.6854248046875 311.3125 C 310.6854248046875 312.345458984375 311.23443603515625 312.98004150390625 312.33251953125 313.2161865234375 C 313.46026611328125 313.4522705078125 315.19635009765625 313.6146240234375 317.5408630371094 313.703125 C 317.68927001953125 313.76214599609375 317.8673095703125 313.7916259765625 318.0750732421875 313.7916259765625 C 318.28277587890625 313.7916259765625 318.4608459472656 313.7916259765625 318.6092529296875 313.7916259765625 C 320.7460021972656 313.89495849609375 322.88275146484375 313.998291015625 325.01953125 314.1015625 C 325.88018798828125 314.16058349609375 326.94854736328125 314.2491455078125 328.22467041015625 314.3671875 C 329.5304870605469 314.4852294921875 330.8956298828125 314.7213134765625 332.32012939453125 315.0755615234375 C 334.486572265625 315.63629150390625 336.4749755859375 316.625 338.2852783203125 318.0416259765625 C 340.125244140625 319.4288330078125 341.0452880859375 321.5390625 341.0452880859375 324.3724365234375 C 341.0452880859375 325.4053955078125 340.85235595703125 326.5859375 340.466552734375 327.9140625 C 340.11041259765625 329.2421875 339.53173828125 330.599853515625 338.73040771484375 331.9869384765625 C 337.0684814453125 334.7022705078125 334.3233642578125 337.181396484375 330.4949951171875 339.4244384765625 C 326.6962890625 341.697021484375 321.38409423828125 342.8333740234375 314.55828857421875 342.8333740234375 C 313.99444580078125 342.8333740234375 312.8963623046875 342.7890625 311.2641296386719 342.7005615234375 C 309.63189697265625 342.6119384765625 307.88092041015625 342.33160400390625 306.01123046875 341.859375 C 303.8448181152344 341.298583984375 301.8267517089844 340.3099365234375 299.95709228515625 338.8931884765625 C 298.1170959472656 337.4765625 297.19708251953125 335.381103515625 297.19708251953125 332.6068115234375 C 297.19708251953125 330.7178955078125 297.8203125 328.9617919921875 299.0667724609375 327.3385009765625 C 300.313232421875 325.71527099609375 302.0790100097656 324.26910400390625 304.3641662597656 323.0 C 304.0673828125 322.8819580078125 303.7112731933594 322.7491455078125 303.2957763671875 322.6015625 C 302.90997314453125 322.4244384765625 302.524169921875 322.1883544921875 302.13836669921875 321.8931884765625 C 301.33709716796875 321.4210205078125 300.6099853515625 320.7421875 299.95709228515625 319.8568115234375 C 299.30419921875 318.94183349609375 298.97772216796875 317.717041015625 298.97772216796875 316.1822509765625 C 298.97772216796875 314.234375 299.69000244140625 312.3897705078125 301.114501953125 310.6484375 C 302.53900146484375 308.8775634765625 304.1267395019531 307.298583984375 305.877685546875 305.9114990234375 C 306.0557861328125 305.734375 306.23382568359375 305.5867919921875 306.4118957519531 305.46875 C 306.5899658203125 305.3211669921875 306.753173828125 305.1883544921875 306.90155029296875 305.0703125 C 305.32867431640625 304.2734375 304.0377197265625 303.373291015625 303.0286865234375 302.3697509765625 C 302.0196533203125 301.3367919921875 301.23321533203125 300.2447509765625 300.6693420410156 299.09375 C 299.8680419921875 297.5 299.3783874511719 296.009521484375 299.2003173828125 294.6224365234375 C 299.05194091796875 293.2056884765625 298.97772216796875 292.1875 298.97772216796875 291.5677490234375 C 298.97772216796875 287.7603759765625 300.313232421875 284.27777099609375 302.98419189453125 281.1197509765625 C 305.6551208496094 277.9617919921875 310.1215515136719 276.3828125 316.3834533691406 276.3828125 C 318.0453796386719 276.3828125 319.4550476074219 276.486083984375 320.6124572753906 276.6927490234375 C 321.799560546875 276.8992919921875 322.82342529296875 277.1353759765625 323.6840515136719 277.4010009765625 C 323.89178466796875 277.4600830078125 324.1143798828125 277.5338134765625 324.351806640625 277.6224365234375 C 324.5892333984375 277.7109375 324.8117980957031 277.78472900390625 325.01953125 277.84375 C 325.5537109375 278.079833984375 326.028564453125 278.271728515625 326.44403076171875 278.4193115234375 C 326.8595275878906 278.537353515625 327.2749938964844 278.6258544921875 327.69049072265625 278.6849365234375 C 328.0169677734375 278.802978515625 328.35821533203125 278.876708984375 328.71435546875 278.90625 C 329.10015869140625 278.935791015625 329.5304870605469 278.9505615234375 330.00531005859375 278.9505615234375 C 330.39111328125 278.9505615234375 330.732421875 278.935791015625 331.0291748046875 278.90625 C 331.35565185546875 278.876708984375 331.6968994140625 278.83245849609375 332.05303955078125 278.7734375 C 332.201416015625 278.71441650390625 332.3646240234375 278.670166015625 332.542724609375 278.640625 C 332.72076416015625 278.611083984375 332.89886474609375 278.5963134765625 333.076904296875 278.5963134765625 C 333.16595458984375 278.5963134765625 333.4478759765625 278.537353515625 333.9227294921875 278.4193115234375 C 334.39752197265625 278.30120849609375 334.9168701171875 278.1978759765625 335.48077392578125 278.109375 C 336.04461669921875 277.9913330078125 336.56396484375 277.8880615234375 337.038818359375 277.7994384765625 C 337.5433349609375 277.7109375 337.8104248046875 277.6666259765625 337.840087890625 277.6666259765625 C 338.0775146484375 277.6666259765625 338.27044677734375 277.7257080078125 338.4188232421875 277.84375 C 338.56719970703125 277.9617919921875 338.67108154296875 278.0946044921875 338.73040771484375 278.2421875 C 338.789794921875 278.3602294921875 338.83428955078125 278.4635009765625 338.864013671875 278.5521240234375 C 338.8936767578125 278.640625 338.90850830078125 278.71441650390625 338.90850830078125 278.7734375 C 338.93817138671875 278.8914794921875 338.96783447265625 278.9947509765625 338.99755859375 279.0833740234375 C 339.0272216796875 279.171875 339.04205322265625 279.275146484375 339.04205322265625 279.3931884765625 C 339.10137939453125 279.51129150390625 339.14593505859375 279.64410400390625 339.17559814453125 279.7916259765625 C 339.20526123046875 279.90972900390625 339.2200927734375 280.02777099609375 339.2200927734375 280.1458740234375 C 339.33880615234375 280.6180419921875 339.44268798828125 281.0755615234375 339.53173828125 281.5181884765625 C 339.6207275390625 281.931396484375 339.665283203125 282.197021484375 339.665283203125 282.3150634765625 C 339.665283203125 282.55120849609375 339.6207275390625 282.728271484375 339.53173828125 282.8463134765625 C 339.44268798828125 282.96441650390625 339.27947998046875 283.09722900390625 339.04205322265625 283.2447509765625 C 338.982666015625 283.3038330078125 338.8936767578125 283.34808349609375 338.77496337890625 283.3775634765625 C 338.6859130859375 283.4071044921875 338.5523681640625 283.451416015625 338.374267578125 283.5103759765625 C 338.374267578125 283.5103759765625 338.374267578125 283.5103759765625 338.374267578125 283.5103759765625M 310.32928466796875 324.59375 C 309.76544189453125 325.18402099609375 309.2460632324219 325.8333740234375 308.771240234375 326.5416259765625 C 308.3260803222656 327.25 308.103515625 328.046875 308.103515625 328.9322509765625 C 308.103515625 328.9913330078125 308.103515625 329.0650634765625 308.103515625 329.1536865234375 C 308.103515625 329.2421875 308.103515625 329.31597900390625 308.103515625 329.375 C 308.28155517578125 330.703125 309.12738037109375 331.927978515625 310.6408996582031 333.0494384765625 C 312.1544494628906 334.1710205078125 314.61767578125 334.7318115234375 318.030517578125 334.7318115234375 C 320.8201904296875 334.7318115234375 323.29827880859375 334.2005615234375 325.4646911621094 333.1380615234375 C 327.6311340332031 332.0755615234375 328.71435546875 330.673583984375 328.71435546875 328.9322509765625 C 328.71435546875 327.751708984375 328.32855224609375 326.92535400390625 327.55694580078125 326.453125 C 326.78533935546875 325.98089599609375 325.90985107421875 325.65625 324.93048095703125 325.4791259765625 C 324.66339111328125 325.420166015625 324.3814697265625 325.3758544921875 324.084716796875 325.3463134765625 C 323.817626953125 325.31683349609375 323.53564453125 325.2725830078125 323.2388916015625 325.2135009765625 C 322.79376220703125 325.154541015625 321.93310546875 325.095458984375 320.656982421875 325.0364990234375 C 319.4105224609375 324.9774169921875 318.104736328125 324.91839599609375 316.73956298828125 324.859375 C 315.37445068359375 324.829833984375 314.0834655761719 324.78558349609375 312.86669921875 324.7265625 C 311.67962646484375 324.66754150390625 310.83380126953125 324.6085205078125 310.32928466796875 324.5494384765625 C 310.32928466796875 324.564208984375 310.32928466796875 324.5789794921875 310.32928466796875 324.59375M 321.458251953125 290.6822509765625 C 321.3988952636719 290.4461669921875 321.3395690917969 290.224853515625 321.28021240234375 290.0181884765625 C 321.2208251953125 289.7821044921875 321.17633056640625 289.53125 321.14666748046875 289.265625 C 320.7311706542969 287.7899169921875 320.0782775878906 286.4322509765625 319.1879577636719 285.1927490234375 C 318.3273010253906 283.953125 317.18475341796875 283.3333740234375 315.7602233886719 283.3333740234375 C 314.484130859375 283.3333740234375 313.35638427734375 283.923583984375 312.37701416015625 285.1041259765625 C 311.4273376464844 286.28472900390625 310.9525146484375 287.9818115234375 310.9525146484375 290.1953125 C 310.9525146484375 290.7265625 310.982177734375 291.2578125 311.04156494140625 291.7890625 C 311.10089111328125 292.3203125 311.18994140625 292.881103515625 311.30865478515625 293.4713134765625 C 311.6351013183594 295.2421875 312.2879943847656 296.89495849609375 313.267333984375 298.4296875 C 314.2467041015625 299.96441650390625 315.4931335449219 300.7318115234375 317.00665283203125 300.7318115234375 C 318.6686096191406 300.7318115234375 319.87054443359375 300.0677490234375 320.6124572753906 298.7396240234375 C 321.3543701171875 297.3819580078125 321.725341796875 295.8177490234375 321.725341796875 294.046875 C 321.725341796875 293.72222900390625 321.725341796875 293.44183349609375 321.725341796875 293.2056884765625 C 321.725341796875 292.9400634765625 321.6956787109375 292.64495849609375 321.6363220214844 292.3203125 C 321.6363220214844 292.0546875 321.6214599609375 291.7890625 321.591796875 291.5234375 C 321.5621337890625 291.228271484375 321.51763916015625 290.9478759765625 321.458251953125 290.6822509765625 C 321.458251953125 290.6822509765625 321.458251953125 290.6822509765625 321.458251953125 290.6822509765625"/>
    <path stroke-width="0" fill="rgb(0, 0, 0)" opacity="1.0" d="M 358.85162353515625 287.8046875 C 358.85162353515625 288.4991455078125 358.85162353515625 289.1937255859375 358.85162353515625 289.88818359375 C 358.85162353515625 290.5826416015625 358.85162353515625 291.2772216796875 358.85162353515625 291.9716796875 C 358.85162353515625 293.3607177734375 358.85162353515625 294.7496337890625 358.85162353515625 296.138671875 C 358.85162353515625 296.8331298828125 358.85162353515625 297.5277099609375 358.85162353515625 298.22216796875 C 358.85162353515625 298.9166259765625 358.85162353515625 299.6112060546875 358.85162353515625 300.3056640625 C 358.85162353515625 301.6947021484375 358.85162353515625 303.0836181640625 358.85162353515625 304.47265625 C 358.85162353515625 305.8616943359375 358.85162353515625 307.2506103515625 358.85162353515625 308.6396484375 C 358.85162353515625 309.3341064453125 358.85162353515625 310.0286865234375 358.85162353515625 310.72314453125 C 358.85162353515625 311.4176025390625 358.85162353515625 312.1121826171875 358.85162353515625 312.806640625 C 358.85162353515625 314.1956787109375 358.85162353515625 315.5845947265625 358.85162353515625 316.9736328125 C 358.85162353515625 317.6680908203125 358.85162353515625 318.3626708984375 358.85162353515625 319.05712890625 C 358.85162353515625 319.7515869140625 358.85162353515625 320.4461669921875 358.85162353515625 321.140625 C 358.85162353515625 321.87847900390625 358.7032470703125 322.3802490234375 358.40643310546875 322.6458740234375 C 358.13934326171875 322.8819580078125 357.66455078125 323.0 356.98193359375 323.0 C 356.15838623046875 323.0 355.3348388671875 323.0 354.51129150390625 323.0 C 353.687744140625 323.0 352.8642578125 323.0 352.0406494140625 323.0 C 351.2171630859375 323.0 350.3935546875 323.0 349.570068359375 323.0 C 348.74652099609375 323.0 347.9229736328125 323.0 347.09942626953125 323.0 C 346.35748291015625 323.0 345.838134765625 322.8819580078125 345.5413818359375 322.6458740234375 C 345.2742919921875 322.3802490234375 345.1407470703125 321.8489990234375 345.1407470703125 321.0521240234375 C 345.1407470703125 320.315185546875 345.1407470703125 319.5782470703125 345.1407470703125 318.84130859375 C 345.1407470703125 318.1043701171875 345.1407470703125 317.367431640625 345.1407470703125 316.6304931640625 C 345.1407470703125 315.89361572265625 345.1407470703125 315.15667724609375 345.1407470703125 314.4197998046875 C 345.1407470703125 313.682861328125 345.1407470703125 312.9459228515625 345.1407470703125 312.208984375 C 345.1407470703125 311.4720458984375 345.1407470703125 310.735107421875 345.1407470703125 309.9981689453125 C 345.1407470703125 309.26129150390625 345.1407470703125 308.52435302734375 345.1407470703125 307.7874755859375 C 345.1407470703125 307.050537109375 345.1407470703125 306.3135986328125 345.1407470703125 305.57666015625 C 345.1407470703125 304.8397216796875 345.1407470703125 304.102783203125 345.1407470703125 303.3658447265625 C 345.1407470703125 302.62896728515625 345.1407470703125 301.89202880859375 345.1407470703125 301.1551513671875 C 345.1407470703125 300.418212890625 345.1407470703125 299.6812744140625 345.1407470703125 298.9443359375 C 345.1407470703125 298.2073974609375 345.1407470703125 297.470458984375 345.1407470703125 296.7335205078125 C 345.1407470703125 295.99664306640625 345.1407470703125 295.25970458984375 345.1407470703125 294.5228271484375 C 345.1407470703125 293.785888671875 345.1407470703125 293.0489501953125 345.1407470703125 292.31201171875 C 345.1407470703125 291.5750732421875 345.1407470703125 290.838134765625 345.1407470703125 290.1011962890625 C 345.1407470703125 289.36431884765625 345.1407470703125 288.62738037109375 345.1407470703125 287.8905029296875 C 345.1407470703125 287.153564453125 345.1407470703125 286.4166259765625 345.1407470703125 285.6796875 C 345.1407470703125 284.2630615234375 345.303955078125 283.23004150390625 345.63037109375 282.5806884765625 C 345.98651123046875 281.90191650390625 346.65423583984375 281.3116455078125 347.63360595703125 280.8099365234375 C 348.70196533203125 280.2491455078125 349.8890380859375 279.7916259765625 351.19488525390625 279.4375 C 352.53033447265625 279.0538330078125 353.88067626953125 278.71441650390625 355.245849609375 278.4193115234375 C 356.1361083984375 278.2864990234375 357.00421142578125 278.172119140625 357.8499755859375 278.076171875 C 358.69580078125 277.980224609375 359.51934814453125 277.90277099609375 360.32061767578125 277.84375 C 361.952880859375 277.7257080078125 363.3328857421875 277.6666259765625 364.46063232421875 277.6666259765625 C 364.99481201171875 277.6666259765625 365.7515869140625 277.6961669921875 366.73095703125 277.7552490234375 C 367.73992919921875 277.78472900390625 368.7786865234375 277.91754150390625 369.8470458984375 278.1536865234375 C 370.5889892578125 278.3306884765625 371.2974853515625 278.577880859375 371.97265625 278.8951416015625 C 372.6478271484375 279.21246337890625 373.28961181640625 279.599853515625 373.89794921875 280.0572509765625 C 374.521240234375 280.5147705078125 374.9886474609375 281.1160888671875 375.30023193359375 281.861328125 C 375.61181640625 282.6065673828125 375.76763916015625 283.49566650390625 375.76763916015625 284.5286865234375 C 375.76763916015625 285.2960205078125 375.6563720703125 286.008056640625 375.43377685546875 286.6646728515625 C 375.211181640625 287.3214111328125 374.8773193359375 287.9227294921875 374.43218994140625 288.46875 C 373.98699951171875 289.0 373.45281982421875 289.3984375 372.82958984375 289.6640625 C 372.20635986328125 289.9296875 371.494140625 290.0625 370.69287109375 290.0625 C 369.268310546875 290.0625 368.24444580078125 289.6788330078125 367.6212158203125 288.9114990234375 C 366.998046875 288.14410400390625 366.46380615234375 287.2586669921875 366.0186767578125 286.2552490234375 C 366.0186767578125 286.1961669921875 366.00384521484375 286.15191650390625 365.97412109375 286.1224365234375 C 365.9444580078125 286.0928955078125 365.92962646484375 286.048583984375 365.92962646484375 285.9896240234375 C 365.573486328125 285.251708984375 365.15802001953125 284.6319580078125 364.6832275390625 284.1302490234375 C 364.2083740234375 283.5989990234375 363.45159912109375 283.3333740234375 362.41290283203125 283.3333740234375 C 360.810302734375 283.3333740234375 359.81610107421875 283.7318115234375 359.4302978515625 284.5286865234375 C 359.0445556640625 285.2960205078125 358.85162353515625 286.181396484375 358.85162353515625 287.1849365234375 C 358.85162353515625 287.302978515625 358.85162353515625 287.40625 358.85162353515625 287.4947509765625 C 358.85162353515625 287.5833740234375 358.85162353515625 287.6866455078125 358.85162353515625 287.8046875 C 358.85162353515625 287.8046875 358.85162353515625 287.8046875 358.85162353515625 287.8046875"/>
    <path stroke-width="0" fill="rgb(0, 0, 0)" opacity="1.0" d="M 412.40423583984375 288.46875 C 412.40423583984375 296.5260009765625 412.40423583984375 304.5833740234375 412.40423583984375 312.640625 C 412.40423583984375 312.935791015625 412.40423583984375 313.2603759765625 412.40423583984375 313.6146240234375 C 412.40423583984375 313.939208984375 412.37451171875 314.2786865234375 412.315185546875 314.6328125 C 412.255859375 315.2821044921875 412.1370849609375 315.931396484375 411.9591064453125 316.5806884765625 C 411.8106689453125 317.2005615234375 411.4990234375 317.8055419921875 411.02423095703125 318.3958740234375 C 410.8758544921875 318.6319580078125 410.6829833984375 318.8680419921875 410.445556640625 319.1041259765625 C 410.2081298828125 319.310791015625 409.9261474609375 319.5321044921875 409.5997314453125 319.7681884765625 C 408.3829345703125 320.6241455078125 406.6171875 321.376708984375 404.3023681640625 322.0260009765625 C 402.0172119140625 322.67535400390625 399.0791015625 323.0 395.4881591796875 323.0 C 394.6868896484375 323.0 393.4700927734375 322.970458984375 391.837890625 322.9114990234375 C 390.2353515625 322.8228759765625 388.543701171875 322.52777099609375 386.7630615234375 322.0260009765625 C 384.3592529296875 321.435791015625 382.1630859375 320.34375 380.1746826171875 318.75 C 378.18634033203125 317.15625 377.192138671875 314.70660400390625 377.192138671875 311.4010009765625 C 377.192138671875 306.295166015625 379.4476318359375 302.7977294921875 383.95855712890625 300.9088134765625 C 388.49920654296875 299.01995849609375 393.4849853515625 297.5147705078125 398.9158935546875 296.3931884765625 C 399.0643310546875 296.334228515625 399.1978759765625 296.2899169921875 399.3165283203125 296.2603759765625 C 399.43524169921875 296.23089599609375 399.553955078125 296.2161865234375 399.67266845703125 296.2161865234375 C 399.67266845703125 294.84375 399.67266845703125 293.4713134765625 399.67266845703125 292.0989990234375 C 399.67266845703125 291.8333740234375 399.67266845703125 291.552978515625 399.67266845703125 291.2578125 C 399.67266845703125 290.962646484375 399.64300537109375 290.6822509765625 399.5836181640625 290.4166259765625 C 399.5242919921875 289.3541259765625 399.24237060546875 288.3802490234375 398.73785400390625 287.4947509765625 C 398.23333740234375 286.609375 397.1798095703125 286.1666259765625 395.57720947265625 286.1666259765625 C 394.449462890625 286.1666259765625 393.5592041015625 286.41754150390625 392.90625 286.9193115234375 C 392.2830810546875 287.4210205078125 391.8082275390625 287.99652099609375 391.48175048828125 288.6458740234375 C 391.363037109375 288.9114990234375 391.24432373046875 289.162353515625 391.1256103515625 289.3984375 C 391.0069580078125 289.60504150390625 390.9327392578125 289.826416015625 390.903076171875 290.0625 C 390.903076171875 290.12152099609375 390.88818359375 290.165771484375 390.8585205078125 290.1953125 C 390.828857421875 290.224853515625 390.81402587890625 290.26910400390625 390.81402587890625 290.328125 C 390.3392333984375 291.44964599609375 389.7308349609375 292.4974365234375 388.9888916015625 293.4713134765625 C 388.2469482421875 294.4453125 386.941162109375 294.9322509765625 385.07147216796875 294.9322509765625 C 383.2017822265625 294.9322509765625 381.762451171875 294.38629150390625 380.75341796875 293.2943115234375 C 379.744384765625 292.1727294921875 379.2398681640625 290.9036865234375 379.2398681640625 289.4869384765625 C 379.2398681640625 289.1328125 379.26953125 288.79339599609375 379.32891845703125 288.46875 C 379.3883056640625 288.1146240234375 379.477294921875 287.775146484375 379.59600830078125 287.4505615234375 C 380.278564453125 284.7647705078125 382.103759765625 282.123291015625 385.07147216796875 279.5260009765625 C 388.0391845703125 276.9288330078125 392.312744140625 275.6302490234375 397.89208984375 275.6302490234375 C 398.5745849609375 275.6302490234375 399.286865234375 275.64495849609375 400.02880859375 275.6744384765625 C 400.770751953125 275.7039794921875 401.5126953125 275.77777099609375 402.254638671875 275.8958740234375 C 403.20428466796875 276.04339599609375 404.1539306640625 276.2647705078125 405.1036376953125 276.5599365234375 C 406.0533447265625 276.85504150390625 406.9139404296875 277.2239990234375 407.685546875 277.6666259765625 C 408.84295654296875 278.43402099609375 409.74810791015625 279.2899169921875 410.4010009765625 280.234375 C 411.05389404296875 281.1492919921875 411.52874755859375 282.09375 411.8255615234375 283.0677490234375 C 412.0926513671875 284.0711669921875 412.255859375 285.045166015625 412.315185546875 285.9896240234375 C 412.37451171875 286.904541015625 412.40423583984375 287.73089599609375 412.40423583984375 288.46875 C 412.40423583984375 288.46875 412.40423583984375 288.46875 412.40423583984375 288.46875M 399.67266845703125 310.6927490234375 C 399.67266845703125 307.25433349609375 399.67266845703125 303.81597900390625 399.67266845703125 300.3775634765625 C 397.32818603515625 301.115478515625 395.17657470703125 302.045166015625 393.2178955078125 303.1666259765625 C 391.2591552734375 304.2586669921875 390.27978515625 306.368896484375 390.27978515625 309.4974365234375 C 390.27978515625 311.5338134765625 390.7249755859375 313.0538330078125 391.61529541015625 314.0572509765625 C 392.5352783203125 315.03125 393.573974609375 315.63629150390625 394.7314453125 315.8724365234375 C 394.90948486328125 315.8724365234375 395.057861328125 315.88714599609375 395.17657470703125 315.9166259765625 C 395.324951171875 315.9461669921875 395.4881591796875 315.9609375 395.666259765625 315.9609375 C 397.0313720703125 315.9609375 397.9810791015625 315.6068115234375 398.5152587890625 314.8984375 C 399.0494384765625 314.1900634765625 399.40557861328125 313.4375 399.5836181640625 312.640625 C 399.64300537109375 312.2864990234375 399.67266845703125 311.947021484375 399.67266845703125 311.6224365234375 C 399.67266845703125 311.2681884765625 399.67266845703125 310.9583740234375 399.67266845703125 310.6927490234375 C 399.67266845703125 310.6927490234375 399.67266845703125 310.6927490234375 399.67266845703125 310.6927490234375"/>
    <path stroke-width="0" fill="rgb(0, 0, 0)" opacity="1.0" d="M 418.9925537109375 321.0521240234375 C 418.9925537109375 309.7039794921875 418.9925537109375 298.35589599609375 418.9925537109375 287.0078125 C 418.9925537109375 285.5025634765625 419.0667724609375 284.3367919921875 419.21514892578125 283.5103759765625 C 419.363525390625 282.68402099609375 419.779052734375 281.9609375 420.46160888671875 281.3411865234375 C 420.5506591796875 281.22308349609375 420.6693115234375 281.09027099609375 420.8177490234375 280.9427490234375 C 420.96612548828125 280.795166015625 421.12933349609375 280.662353515625 421.307373046875 280.5443115234375 C 422.257080078125 279.865478515625 423.384765625 279.3046875 424.69061279296875 278.8619384765625 C 426.026123046875 278.3897705078125 427.37640380859375 278.0208740234375 428.7415771484375 277.7552490234375 C 430.40350341796875 277.37152099609375 431.9615478515625 277.10589599609375 433.41571044921875 276.9583740234375 C 434.89959716796875 276.810791015625 436.1312255859375 276.7369384765625 437.11053466796875 276.7369384765625 C 439.90020751953125 276.7369384765625 442.1705322265625 277.0321044921875 443.9215087890625 277.6224365234375 C 445.7021484375 278.18316650390625 447.1414794921875 278.802978515625 448.239501953125 279.4818115234375 C 448.8033447265625 279.806396484375 449.2781982421875 280.131103515625 449.6640625 280.4556884765625 C 450.0794677734375 280.7508544921875 450.4207763671875 281.0460205078125 450.6878662109375 281.3411865234375 C 450.984619140625 281.10504150390625 451.2666015625 280.8836669921875 451.53369140625 280.6771240234375 C 451.8304443359375 280.44097900390625 452.15692138671875 280.17535400390625 452.5130615234375 279.8802490234375 C 453.076904296875 279.49652099609375 453.7891845703125 279.1275634765625 454.6497802734375 278.7734375 C 455.5401611328125 278.3897705078125 456.62335205078125 278.0208740234375 457.89947509765625 277.6666259765625 C 459.20526123046875 277.342041015625 460.540771484375 277.10589599609375 461.9058837890625 276.9583740234375 C 463.27099609375 276.810791015625 464.6658935546875 276.7369384765625 466.09039306640625 276.7369384765625 C 470.5419921875 276.7369384765625 473.761962890625 277.578125 475.7503662109375 279.2603759765625 C 477.73870849609375 280.9427490234375 479.1038818359375 282.83160400390625 479.8458251953125 284.9271240234375 C 480.2315673828125 286.13714599609375 480.48388671875 287.34722900390625 480.6025390625 288.5572509765625 C 480.7213134765625 289.73785400390625 480.7806396484375 290.697021484375 480.7806396484375 291.4349365234375 C 480.7806396484375 301.27777099609375 480.7806396484375 311.12066650390625 480.7806396484375 320.9635009765625 C 480.7806396484375 321.642333984375 480.6767578125 322.1588134765625 480.468994140625 322.5130615234375 C 480.29095458984375 322.837646484375 479.8309326171875 323.0 479.0889892578125 323.0 C 475.76513671875 323.0 472.4412841796875 323.0 469.117431640625 323.0 C 468.37554931640625 323.0 467.856201171875 322.8524169921875 467.5594482421875 322.5572509765625 C 467.2923583984375 322.232666015625 467.1588134765625 321.73089599609375 467.1588134765625 321.0521240234375 C 467.1588134765625 311.7552490234375 467.1588134765625 302.4583740234375 467.1588134765625 293.1614990234375 C 467.1588134765625 292.8072509765625 467.1588134765625 292.4678955078125 467.1588134765625 292.1431884765625 C 467.1588134765625 291.7890625 467.12908935546875 291.44964599609375 467.0697021484375 291.125 C 467.0103759765625 289.8853759765625 466.65423583984375 288.7491455078125 466.0013427734375 287.7161865234375 C 465.34844970703125 286.68316650390625 464.0574951171875 286.1666259765625 462.12847900390625 286.1666259765625 C 461.0303955078125 286.1666259765625 460.1697998046875 286.3289794921875 459.5465087890625 286.6536865234375 C 458.92333984375 286.94879150390625 458.448486328125 287.2882080078125 458.1220703125 287.671875 C 457.380126953125 288.3507080078125 456.9498291015625 289.103271484375 456.8310546875 289.9296875 C 456.71240234375 290.7265625 456.65301513671875 291.8038330078125 456.65301513671875 293.1614990234375 C 456.65301513671875 302.4583740234375 456.65301513671875 311.7552490234375 456.65301513671875 321.0521240234375 C 456.65301513671875 321.7899169921875 456.51947021484375 322.306396484375 456.25238037109375 322.6015625 C 456.01495361328125 322.8671875 455.49560546875 323.0 454.6943359375 323.0 C 451.593017578125 323.0 448.49176025390625 323.0 445.3905029296875 323.0 C 444.6485595703125 323.0 444.06982421875 322.896728515625 443.6544189453125 322.6900634765625 C 443.2685546875 322.4539794921875 443.07568359375 321.87847900390625 443.07568359375 320.9635009765625 C 443.07568359375 311.5338134765625 443.07568359375 302.1041259765625 443.07568359375 292.6744384765625 C 443.07568359375 291.818603515625 443.060791015625 291.1397705078125 443.0311279296875 290.6380615234375 C 443.00146484375 290.1068115234375 442.92724609375 289.6492919921875 442.80859375 289.265625 C 442.600830078125 288.2916259765625 442.2001953125 287.5390625 441.606689453125 287.0078125 C 441.04278564453125 286.4765625 440.4195556640625 286.0928955078125 439.7369384765625 285.8568115234375 C 439.4698486328125 285.73870849609375 439.173095703125 285.650146484375 438.8466796875 285.5911865234375 C 438.52020263671875 285.5321044921875 438.22344970703125 285.5025634765625 437.95635986328125 285.5025634765625 C 437.21441650390625 285.5025634765625 436.4873046875 285.650146484375 435.7750244140625 285.9453125 C 435.06280517578125 286.2109375 434.484130859375 286.579833984375 434.0389404296875 287.0521240234375 C 433.2969970703125 287.7899169921875 432.86669921875 288.5867919921875 432.74798583984375 289.4427490234375 C 432.6292724609375 290.26910400390625 432.5699462890625 291.228271484375 432.5699462890625 292.3203125 C 432.5699462890625 301.8385009765625 432.5699462890625 311.3568115234375 432.5699462890625 320.875 C 432.5699462890625 321.61285400390625 432.4364013671875 322.1588134765625 432.1693115234375 322.5130615234375 C 431.931884765625 322.837646484375 431.3531494140625 323.0 430.43316650390625 323.0 C 427.30224609375 323.0 424.1712646484375 323.0 421.040283203125 323.0 C 420.29833984375 323.0 419.76416015625 322.8819580078125 419.437744140625 322.6458740234375 C 419.1409912109375 322.3802490234375 418.9925537109375 321.8489990234375 418.9925537109375 321.0521240234375 C 418.9925537109375 321.0521240234375 418.9925537109375 321.0521240234375 418.9925537109375 321.0521240234375"/>
  </g>
</svg>
