<?xml version="1.0" ?>
<svg xmlns="http://www.w3.org/2000/svg" version="1.1" width="600" height="600">
  <defs/>
  <g>
    <path stroke-width="0" fill="rgb(0, 0, 0)" opacity="1.0" d="M 248.912353515625 138.72103881835938 C 288.472412109375 201.296142578125 328.0325927734375 263.8712463378906 367.5926513671875 326.44635009765625 C 367.5926513671875 263.8712463378906 367.5926513671875 201.296142578125 367.5926513671875 138.72103881835938 C 367.5926513671875 134.08584594726562 368.364990234375 131.16738891601562 369.90966796875 129.96566772460938 C 371.6258544921875 128.59228515625 374.457763671875 127.90557861328125 378.4052734375 127.90557861328125 C 392.135498046875 127.90557861328125 405.8656005859375 127.90557861328125 419.5958251953125 127.90557861328125 C 419.9390869140625 127.90557861328125 420.196533203125 127.90557861328125 420.3681640625 127.90557861328125 C 420.5396728515625 127.90557861328125 420.797119140625 127.90557861328125 421.1405029296875 127.90557861328125 C 425.7744140625 127.90557861328125 428.6063232421875 129.021484375 429.635986328125 131.25323486328125 C 430.83740234375 133.31332397460938 431.4381103515625 136.14593505859375 431.4381103515625 139.75106811523438 C 431.4381103515625 247.39056396484375 431.4381103515625 355.030029296875 431.4381103515625 462.6695556640625 C 431.4381103515625 466.6180419921875 430.665771484375 469.5364990234375 429.12109375 471.4249267578125 C 427.748046875 473.1416015625 424.572998046875 474.0 419.5958251953125 474.0 C 408.869140625 474.0 398.142333984375 474.0 387.4156494140625 474.0 C 383.4681396484375 474.0 380.4647216796875 473.74249267578125 378.4052734375 473.22747802734375 C 376.517333984375 472.71240234375 374.7152099609375 471.682373046875 372.9989013671875 470.1373291015625 C 371.96923828125 469.1072998046875 371.0252685546875 468.1630859375 370.1671142578125 467.3046875 C 369.4805908203125 466.274658203125 368.6224365234375 464.9012451171875 367.5926513671875 463.1845703125 C 323.484375 393.9141845703125 279.3760986328125 324.643798828125 235.267822265625 255.3734130859375 C 235.267822265625 324.1287536621094 235.267822265625 392.8841552734375 235.267822265625 461.6395263671875 C 235.267822265625 465.93133544921875 234.49560546875 469.1072998046875 232.950927734375 471.1673583984375 C 231.577880859375 473.0557861328125 228.231201171875 474.0 222.91064453125 474.0 C 209.523681640625 474.0 196.1368408203125 474.0 182.7498779296875 474.0 C 178.115966796875 474.0 174.85498046875 473.22747802734375 172.967041015625 471.682373046875 C 171.250732421875 469.9656982421875 170.3927001953125 466.96136474609375 170.3927001953125 462.6695556640625 C 170.3927001953125 355.030029296875 170.3927001953125 247.39056396484375 170.3927001953125 139.75106811523438 C 170.3927001953125 134.42919921875 171.5941162109375 131.16738891601562 173.996826171875 129.96566772460938 C 176.5712890625 128.59228515625 179.66064453125 127.90557861328125 183.2647705078125 127.90557861328125 C 198.8828125 127.90557861328125 214.5009765625 127.90557861328125 230.119140625 127.90557861328125 C 233.72314453125 127.90557861328125 236.46923828125 128.24896240234375 238.357177734375 128.93563842773438 C 240.416748046875 129.622314453125 242.3045654296875 130.73822021484375 244.0208740234375 132.28326416015625 C 245.0506591796875 133.31332397460938 245.822998046875 134.34335327148438 246.337890625 135.3734130859375 C 247.0244140625 136.23178100585938 247.882568359375 137.34762573242188 248.912353515625 138.72103881835938 C 248.912353515625 138.72103881835938 248.912353515625 138.72103881835938 248.912353515625 138.72103881835938"/>
  </g>
</svg>
