<?xml version="1.0" encoding="utf-8"?>
<svg xmlns="http://www.w3.org/2000/svg" xmlns:ev="http://www.w3.org/2001/xml-events" xmlns:xlink="http://www.w3.org/1999/xlink" version="1.1" baseProfile="full" width="8087.0" height="1920.0" viewBox="40.0 -1472.0 8087.0 1920.0">
<defs/>
<g><path d="M 6591.000000 -780.000000 C 6591.000000 -598.000000 6591.000000 -416.000000 6591.000000 -234.000000 C 6591.000000 -227.333333 6591.000000 -220.000000 6591.000000 -212.000000 C 6591.000000 -204.666667 6590.333333 -197.000000 6589.000000 -189.000000 C 6587.666667 -174.333333 6585.000000 -159.666667 6581.000000 -145.000000 C 6577.666667 -131.000000 6570.666667 -117.333333 6560.000000 -104.000000 C 6556.666667 -98.666667 6552.333333 -93.333333 6547.000000 -88.000000 C 6541.666667 -83.333333 6535.333333 -78.333333 6528.000000 -73.000000 C 6500.666667 -53.666667 6461.000000 -36.666667 6409.000000 -22.000000 C 6357.666667 -7.333333 6291.666667 0.000000 6211.000000 0.000000 C 6193.000000 0.000000 6165.666667 -0.666667 6129.000000 -2.000000 C 6093.000000 -4.000000 6055.000000 -10.666667 6015.000000 -22.000000 C 5961.000000 -35.333333 5911.666667 -60.000000 5867.000000 -96.000000 C 5822.333333 -132.000000 5800.000000 -187.333333 5800.000000 -262.000000 C 5800.000000 -377.333333 5850.666667 -456.333333 5952.000000 -499.000000 C 6054.000000 -541.666667 6166.000000 -575.666667 6288.000000 -601.000000 C 6291.333333 -602.333333 6294.333333 -603.333333 6297.000000 -604.000000 C 6299.666667 -604.666667 6302.333333 -605.000000 6305.000000 -605.000000 C 6305.000000 -636.000000 6305.000000 -667.000000 6305.000000 -698.000000 C 6305.000000 -704.000000 6305.000000 -710.333333 6305.000000 -717.000000 C 6305.000000 -723.666667 6304.333333 -730.000000 6303.000000 -736.000000 C 6301.666667 -760.000000 6295.333333 -782.000000 6284.000000 -802.000000 C 6272.666667 -822.000000 6249.000000 -832.000000 6213.000000 -832.000000 C 6187.666667 -832.000000 6167.666667 -826.333333 6153.000000 -815.000000 C 6139.000000 -803.666667 6128.333333 -790.666667 6121.000000 -776.000000 C 6118.333333 -770.000000 6115.666667 -764.333333 6113.000000 -759.000000 C 6110.333333 -754.333333 6108.666667 -749.333333 6108.000000 -744.000000 C 6108.000000 -742.666667 6107.666667 -741.666667 6107.000000 -741.000000 C 6106.333333 -740.333333 6106.000000 -739.333333 6106.000000 -738.000000 C 6095.333333 -712.666667 6081.666667 -689.000000 6065.000000 -667.000000 C 6048.333333 -645.000000 6019.000000 -634.000000 5977.000000 -634.000000 C 5935.000000 -634.000000 5902.666667 -646.333333 5880.000000 -671.000000 C 5857.333333 -696.333333 5846.000000 -725.000000 5846.000000 -757.000000 C 5846.000000 -765.000000 5846.666667 -772.666667 5848.000000 -780.000000 C 5849.333333 -788.000000 5851.333333 -795.666667 5854.000000 -803.000000 C 5869.333333 -863.666667 5910.333333 -923.333333 5977.000000 -982.000000 C 6043.666667 -1040.666667 6139.666667 -1070.000000 6265.000000 -1070.000000 C 6280.333333 -1070.000000 6296.333333 -1069.666667 6313.000000 -1069.000000 C 6329.666667 -1068.333333 6346.333333 -1066.666667 6363.000000 -1064.000000 C 6384.333333 -1060.666667 6405.666667 -1055.666667 6427.000000 -1049.000000 C 6448.333333 -1042.333333 6467.666667 -1034.000000 6485.000000 -1024.000000 C 6511.000000 -1006.666667 6531.333333 -987.333333 6546.000000 -966.000000 C 6560.666667 -945.333333 6571.333333 -924.000000 6578.000000 -902.000000 C 6584.000000 -879.333333 6587.666667 -857.333333 6589.000000 -836.000000 C 6590.333333 -815.333333 6591.000000 -796.666667 6591.000000 -780.000000 C 6591.000000 -780.000000 6591.000000 -780.000000 6591.000000 -780.000000z M 6305.000000 -278.000000 C 6305.000000 -355.666667 6305.000000 -433.333333 6305.000000 -511.000000 C 6252.333333 -494.333333 6204.000000 -473.333333 6160.000000 -448.000000 C 6116.000000 -423.333333 6094.000000 -375.666667 6094.000000 -305.000000 C 6094.000000 -259.000000 6104.000000 -224.666667 6124.000000 -202.000000 C 6144.666667 -180.000000 6168.000000 -166.333333 6194.000000 -161.000000 C 6198.000000 -161.000000 6201.333333 -160.666667 6204.000000 -160.000000 C 6207.333333 -159.333333 6211.000000 -159.000000 6215.000000 -159.000000 C 6245.666667 -159.000000 6267.000000 -167.000000 6279.000000 -183.000000 C 6291.000000 -199.000000 6299.000000 -216.000000 6303.000000 -234.000000 C 6304.333333 -242.000000 6305.000000 -249.666667 6305.000000 -257.000000 C 6305.000000 -265.000000 6305.000000 -272.000000 6305.000000 -278.000000 C 6305.000000 -278.000000 6305.000000 -278.000000 6305.000000 -278.000000z "/>
</g></svg>
