<?xml version="1.0" ?>
<svg xmlns="http://www.w3.org/2000/svg" version="1.1" width="600" height="600">
  <defs/>
  <g>
    <path stroke-width="0" fill="rgb(0, 0, 0)" opacity="1.0" d="M 363.828125 290.0625 C 332.85107421875 294.375 301.8740234375 298.6875 270.89691162109375 303.0 C 271.396484375 305.125 271.9586181640625 307.5625 272.5831298828125 310.3125 C 273.20770263671875 312.9375 274.14453125 315.625 275.3935546875 318.375 C 275.5184326171875 319.125 275.705810546875 319.8125 275.9556884765625 320.4375 C 276.2054443359375 320.9375 276.45526123046875 321.4375 276.705078125 321.9375 C 280.8270263671875 329.3125 286.322998046875 335.1875 293.19287109375 339.5625 C 300.187744140625 343.8125 308.119384765625 345.9375 316.98779296875 345.9375 C 324.232421875 345.9375 330.6651611328125 344.625 336.2860107421875 342.0 C 341.9068603515625 339.375 346.65338134765625 336.5 350.5255126953125 333.375 C 351.025146484375 332.875 351.58721923828125 332.3125 352.2117919921875 331.6875 C 352.8363037109375 331.0625 353.3359375 330.5625 353.71063232421875 330.1875 C 356.20880126953125 327.4375 358.1448974609375 325.4375 359.51885986328125 324.1875 C 361.0177001953125 322.8125 362.3292236328125 321.8125 363.45343017578125 321.1875 C 364.202880859375 320.6875 364.95233154296875 320.375 365.7017822265625 320.25 C 366.45123291015625 320.125 367.26312255859375 320.0625 368.137451171875 320.0625 C 371.0103759765625 320.0625 373.5709228515625 321.1875 375.8193359375 323.4375 C 378.067626953125 325.6875 379.1917724609375 329.125 379.1917724609375 333.75 C 379.1917724609375 336.125 378.4423828125 340.1875 376.9434814453125 345.9375 C 375.444580078125 351.6875 372.759033203125 357.6875 368.886962890625 363.9375 C 363.890625 372.0625 356.58349609375 379.4375 346.96563720703125 386.0625 C 337.3477783203125 392.6875 324.35736083984375 396.0 307.99444580078125 396.0 C 276.8924560546875 396.0 255.03363037109375 386.25 242.41796875 366.75 C 229.80230712890625 347.125 223.24462890625 325.5625 222.7449951171875 302.0625 C 222.7449951171875 301.4375 222.7449951171875 300.875 222.7449951171875 300.375 C 222.7449951171875 299.875 222.7449951171875 299.375 222.7449951171875 298.875 C 222.7449951171875 268.0 230.11456298828125 245.3125 244.8536376953125 230.8125 C 259.5927734375 216.1875 275.768310546875 207.625 293.3802490234375 205.125 C 295.7535400390625 204.625 298.0643310546875 204.3125 300.3126220703125 204.1875 C 302.56097412109375 204.0625 304.809326171875 204.0 307.0576171875 204.0 C 324.294921875 204.0 337.847412109375 207.875 347.715087890625 215.625 C 357.70770263671875 223.25 365.1396484375 231.6875 370.0111083984375 240.9375 C 373.1337890625 247.1875 375.3197021484375 253.1875 376.5687255859375 258.9375 C 377.9427490234375 264.6875 378.62969970703125 269.25 378.62969970703125 272.625 C 378.62969970703125 278.25 377.5679931640625 282.1875 375.444580078125 284.4375 C 373.446044921875 286.5625 371.2601318359375 288.125 368.886962890625 289.125 C 367.8876953125 289.375 366.9508056640625 289.5625 366.0765380859375 289.6875 C 365.3270263671875 289.8125 364.57763671875 289.9375 363.828125 290.0625 C 363.828125 290.0625 363.828125 290.0625 363.828125 290.0625M 267.3370361328125 280.6875 C 285.9482421875 277.9375 304.5594482421875 275.1875 323.1707763671875 272.4375 C 322.4212646484375 264.0625 320.7974853515625 257.6875 318.29931640625 253.3125 C 315.8011474609375 248.8125 313.11566162109375 245.5625 310.2427978515625 243.5625 C 307.6197509765625 241.9375 305.05914306640625 240.9375 302.56097412109375 240.5625 C 300.187744140625 240.1875 298.50146484375 240.0 297.502197265625 240.0 C 287.010009765625 240.0 279.390625 244.25 274.64410400390625 252.75 C 270.0225830078125 261.125 267.58685302734375 270.4375 267.3370361328125 280.6875 C 267.3370361328125 280.6875 267.3370361328125 280.6875 267.3370361328125 280.6875"/>
  </g>
</svg>
