<?xml version="1.0" ?>
<svg xmlns="http://www.w3.org/2000/svg" version="1.1" width="600" height="600">
  <defs/>
  <g>
    <path stroke-width="0" fill="rgb(0, 0, 0)" opacity="1.0" d="M 430.0804443359375 145.673828125 C 422.8720703125 160.41632080078125 415.6636962890625 175.1588134765625 408.455322265625 189.90130615234375 C 401.2469482421875 204.643798828125 394.0386962890625 219.38629150390625 386.830322265625 234.1287841796875 C 379.6219482421875 248.87124633789062 372.41357421875 263.6137390136719 365.2052001953125 278.3562316894531 C 357.996826171875 293.0987243652344 350.7884521484375 307.8411865234375 343.5802001953125 322.58367919921875 C 343.5802001953125 345.84552001953125 343.5802001953125 369.1072998046875 343.5802001953125 392.369140625 C 343.5802001953125 415.630859375 343.5802001953125 438.8927001953125 343.5802001953125 462.154541015625 C 343.5802001953125 466.7896728515625 342.807861328125 469.9656982421875 341.26318359375 471.682373046875 C 339.89013671875 473.22747802734375 336.88671875 474.0 332.252685546875 474.0 C 310.5418701171875 474.0 288.8310546875 474.0 267.1201171875 474.0 C 263.8592529296875 474.0 261.113037109375 473.4849853515625 258.8819580078125 472.4549560546875 C 256.822509765625 471.253173828125 255.792724609375 468.33477783203125 255.792724609375 463.6995849609375 C 255.792724609375 439.622314453125 255.792724609375 415.5450439453125 255.792724609375 391.4677734375 C 255.792724609375 367.39056396484375 255.792724609375 343.31329345703125 255.792724609375 319.2360534667969 C 241.504638671875 290.30902099609375 227.2166748046875 261.3819580078125 212.9287109375 232.4549560546875 C 198.6407470703125 203.52789306640625 184.352783203125 174.60089111328125 170.064697265625 145.673828125 C 169.20654296875 143.785400390625 168.5201416015625 142.2403564453125 168.0052490234375 141.03863525390625 C 167.4903564453125 139.83694458007812 167.061279296875 138.806884765625 166.718017578125 137.94851684570312 C 166.718017578125 137.60516357421875 166.718017578125 137.26181030273438 166.718017578125 136.91845703125 C 166.718017578125 136.57510375976562 166.718017578125 136.23178100585938 166.718017578125 135.888427734375 C 166.718017578125 133.14166259765625 167.4044189453125 131.25323486328125 168.777587890625 130.22317504882812 C 170.3221435546875 129.021484375 171.95263671875 128.42062377929688 173.6689453125 128.42062377929688 C 174.3553466796875 128.07723999023438 175.0419921875 127.90557861328125 175.728515625 127.90557861328125 C 176.586669921875 127.90557861328125 177.3590087890625 127.90557861328125 178.04541015625 127.90557861328125 C 201.301025390625 127.90557861328125 224.556396484375 127.90557861328125 247.81201171875 127.90557861328125 C 251.0728759765625 127.90557861328125 253.6473388671875 128.1630859375 255.5352783203125 128.67813110351562 C 257.4232177734375 129.19314575195312 258.9678955078125 130.39483642578125 260.169189453125 132.28326416015625 C 260.512451171875 133.31332397460938 260.9415283203125 134.34335327148438 261.4564208984375 135.3734130859375 C 261.9713134765625 136.23178100585938 262.572021484375 137.34762573242188 263.2584228515625 138.72103881835938 C 271.2391357421875 156.8326416015625 279.2198486328125 174.9442138671875 287.2005615234375 193.05581665039062 C 295.18115234375 211.16738891601562 303.161865234375 229.27899169921875 311.142578125 247.39056396484375 C 319.6810302734375 229.36480712890625 328.219482421875 211.33905029296875 336.7579345703125 193.31332397460938 C 345.29638671875 175.28756713867188 353.8349609375 157.26181030273438 362.3734130859375 139.23605346679688 C 363.059814453125 137.8626708984375 363.6605224609375 136.83261108398438 364.1754150390625 136.14593505859375 C 364.6903076171875 135.28756713867188 365.119384765625 134.34335327148438 365.462646484375 133.31332397460938 C 367.00732421875 131.42489624023438 368.6378173828125 130.051513671875 370.35400390625 129.19314575195312 C 372.0703125 128.33477783203125 374.5589599609375 127.90557861328125 377.81982421875 127.90557861328125 C 393.4378662109375 127.90557861328125 409.0560302734375 127.90557861328125 424.6741943359375 127.90557861328125 C 425.360595703125 127.90557861328125 425.9613037109375 127.90557861328125 426.4761962890625 127.90557861328125 C 426.9910888671875 127.90557861328125 427.591796875 127.90557861328125 428.2783203125 127.90557861328125 C 429.822998046875 128.24896240234375 431.196044921875 128.84979248046875 432.3973388671875 129.70816040039062 C 433.5987548828125 130.56655883789062 434.199462890625 132.11160278320312 434.199462890625 134.34335327148438 C 434.199462890625 134.68670654296875 434.199462890625 134.9442138671875 434.199462890625 135.11587524414062 C 434.199462890625 135.28756713867188 434.199462890625 135.3734130859375 434.199462890625 135.3734130859375 C 434.199462890625 136.57510375976562 433.856201171875 137.94851684570312 433.169677734375 139.49356079101562 C 432.4832763671875 141.03863525390625 431.4534912109375 143.09872436523438 430.0804443359375 145.673828125 C 430.0804443359375 145.673828125 430.0804443359375 145.673828125 430.0804443359375 145.673828125"/>
  </g>
</svg>
