<?xml version="1.0" ?>
<svg xmlns="http://www.w3.org/2000/svg" version="1.1" width="600" height="600">
  <defs/>
  <g>
    <path stroke-width="0" fill="rgb(0, 0, 0)" opacity="1.0" d="M 120.89035034179688 337.46136474609375 C 120.89035034179688 312.9420166015625 120.89035034179688 288.4227294921875 120.89035034179688 263.9034423828125 C 120.89035034179688 262.5343017578125 121.07833862304688 261.51788330078125 121.45431518554688 260.85406494140625 C 121.8720703125 260.1903076171875 122.60311889648438 259.6923828125 123.64752197265625 259.3604736328125 C 125.026123046875 258.8626708984375 127.53262329101562 258.427001953125 131.1671142578125 258.05364990234375 C 134.84335327148438 257.6387939453125 139.0 257.43133544921875 143.6370849609375 257.43133544921875 C 148.60833740234375 257.43133544921875 153.24542236328125 257.72174072265625 157.54830932617188 258.3026123046875 C 161.8929443359375 258.8419189453125 165.67364501953125 260.0657958984375 168.89035034179688 261.9742431640625 C 171.48040771484375 263.3018798828125 173.69451904296875 265.1688232421875 175.53262329101562 267.5750732421875 C 177.37075805664062 269.98138427734375 178.28982543945312 273.010009765625 178.28982543945312 276.66094970703125 C 178.28982543945312 281.4735107421875 177.01565551757812 285.43560791015625 174.46734619140625 288.5472412109375 C 171.96084594726562 291.6588134765625 169.01565551757812 294.0443115234375 165.6318359375 295.703857421875 C 165.255859375 295.9527587890625 164.83810424804688 296.18096923828125 164.37860107421875 296.388427734375 C 163.9608154296875 296.5958251953125 163.50131225585938 296.78253173828125 163.0 296.948486328125 C 163.41775512695312 297.031494140625 163.83551025390625 297.11444091796875 164.25326538085938 297.1973876953125 C 164.71279907226562 297.2803955078125 165.13055419921875 297.40484619140625 165.50653076171875 297.57080078125 C 171.06265258789062 299.1473388671875 175.19842529296875 302.010009765625 177.913818359375 306.1588134765625 C 180.62924194335938 310.26611328125 181.9869384765625 314.8504638671875 181.9869384765625 319.9119873046875 C 181.9869384765625 324.9735107421875 180.69189453125 329.30902099609375 178.10183715820312 332.91845703125 C 175.55352783203125 336.52789306640625 172.14883422851562 339.286865234375 167.88772583007812 341.1953125 C 165.4229736328125 342.23248291015625 162.39425659179688 343.020751953125 158.80157470703125 343.56005859375 C 155.25064086914062 344.14093017578125 150.42559814453125 344.43133544921875 144.32635498046875 344.43133544921875 C 143.19842529296875 344.43133544921875 142.02871704101562 344.41058349609375 140.81723022460938 344.369140625 C 139.64752197265625 344.32763671875 138.41513061523438 344.306884765625 137.1201171875 344.306884765625 C 134.48825073242188 344.14093017578125 131.96084594726562 343.9542236328125 129.53787231445312 343.746826171875 C 127.15664672851562 343.580810546875 125.36032104492188 343.3319091796875 124.14883422851562 343.0 C 122.60311889648438 342.5850830078125 121.68408203125 341.9835205078125 121.39163208007812 341.1953125 C 121.1409912109375 340.406982421875 120.973876953125 339.162353515625 120.89035034179688 337.46136474609375 C 120.89035034179688 337.46136474609375 120.89035034179688 337.46136474609375 120.89035034179688 337.46136474609375M 141.44384765625 303.296142578125 C 141.44384765625 312.23675537109375 141.44384765625 321.1773681640625 141.44384765625 330.1180419921875 C 142.48825073242188 330.20098876953125 143.4490966796875 330.283935546875 144.32635498046875 330.366943359375 C 145.20364379882812 330.449951171875 146.03915405273438 330.491455078125 146.8328857421875 330.491455078125 C 147.66839599609375 330.491455078125 148.62924194335938 330.42919921875 149.71539306640625 330.3046875 C 150.84335327148438 330.1802978515625 151.97128295898438 329.9727783203125 153.09921264648438 329.682373046875 C 153.60052490234375 329.5164794921875 154.0809326171875 329.3297119140625 154.54046630859375 329.122314453125 C 155.04177856445312 328.9149169921875 155.52218627929688 328.64520263671875 155.98171997070312 328.31329345703125 C 157.10964965820312 327.5250244140625 158.00784301757812 326.633056640625 158.67623901367188 325.6373291015625 C 159.38641357421875 324.6416015625 159.88772583007812 323.62518310546875 160.18014526367188 322.5880126953125 C 160.51434326171875 321.71673583984375 160.72323608398438 320.886962890625 160.80679321289062 320.0987548828125 C 160.89031982421875 319.3104248046875 160.93212890625 318.56365966796875 160.93212890625 317.8583984375 C 160.93212890625 317.3604736328125 160.91122436523438 316.8626708984375 160.86944580078125 316.36480712890625 C 160.82766723632812 315.825439453125 160.7650146484375 315.32763671875 160.68145751953125 314.8712158203125 C 160.51434326171875 313.83404541015625 160.26370239257812 312.796875 159.92950439453125 311.7596435546875 C 159.6370849609375 310.72247314453125 159.17755126953125 309.76824951171875 158.5509033203125 308.89697265625 C 158.30026245117188 308.5650634765625 158.02871704101562 308.233154296875 157.73629760742188 307.9012451171875 C 157.44384765625 307.52789306640625 157.10964965820312 307.17523193359375 156.73367309570312 306.8433837890625 C 155.77285766601562 305.88916015625 154.35247802734375 305.03863525390625 152.47259521484375 304.2918701171875 C 150.59268188476562 303.5450439453125 148.00262451171875 303.171630859375 144.70236206054688 303.171630859375 C 144.28460693359375 303.171630859375 143.88772583007812 303.171630859375 143.51174926757812 303.171630859375 C 143.17755126953125 303.171630859375 142.84335327148438 303.171630859375 142.50912475585938 303.171630859375 C 142.30026245117188 303.171630859375 142.11227416992188 303.1923828125 141.94515991210938 303.23388671875 C 141.778076171875 303.275390625 141.6109619140625 303.296142578125 141.44384765625 303.296142578125 C 141.44384765625 303.296142578125 141.44384765625 303.296142578125 141.44384765625 303.296142578125M 141.44384765625 267.6995849609375 C 141.44384765625 276.225341796875 141.44384765625 284.7510986328125 141.44384765625 293.27685546875 C 141.6109619140625 293.27685546875 141.778076171875 293.27685546875 141.94515991210938 293.27685546875 C 142.11227416992188 293.27685546875 142.30026245117188 293.27685546875 142.50912475585938 293.27685546875 C 142.67623901367188 293.35980224609375 142.8851318359375 293.4012451171875 143.13577270507812 293.4012451171875 C 143.38641357421875 293.4012451171875 143.61618041992188 293.4012451171875 143.8250732421875 293.4012451171875 C 144.66058349609375 293.4012451171875 145.5169677734375 293.35980224609375 146.39425659179688 293.27685546875 C 147.27154541015625 293.19384765625 148.19061279296875 293.02789306640625 149.15142822265625 292.7789306640625 C 151.40731811523438 292.1566162109375 153.47518920898438 290.84979248046875 155.3551025390625 288.8583984375 C 157.2349853515625 286.866943359375 158.1749267578125 283.67236328125 158.1749267578125 279.274658203125 C 158.1749267578125 277.44921875 157.90338134765625 275.7689208984375 157.36032104492188 274.23388671875 C 156.8590087890625 272.6988525390625 156.08615112304688 271.4127197265625 155.04177856445312 270.37554931640625 C 154.33160400390625 269.67022705078125 153.537841796875 269.11016845703125 152.66058349609375 268.6953125 C 151.8250732421875 268.2388916015625 150.96865844726562 267.906982421875 150.09136962890625 267.6995849609375 C 149.38119506835938 267.53363037109375 148.65011596679688 267.429931640625 147.89816284179688 267.388427734375 C 147.18798828125 267.346923828125 146.51959228515625 267.326171875 145.8929443359375 267.326171875 C 145.09921264648438 267.326171875 144.32635498046875 267.346923828125 143.57440185546875 267.388427734375 C 142.86422729492188 267.429931640625 142.154052734375 267.53363037109375 141.44384765625 267.6995849609375 C 141.44384765625 267.6995849609375 141.44384765625 267.6995849609375 141.44384765625 267.6995849609375"/>
    <path stroke-width="0" fill="rgb(0, 0, 0)" opacity="1.0" d="M 248.28460693359375 262.22314453125 C 248.28460693359375 280.3741455078125 248.28460693359375 298.5250244140625 248.28460693359375 316.67596435546875 C 248.28460693359375 317.92059326171875 248.2427978515625 319.18597412109375 248.15924072265625 320.47210693359375 C 248.07571411132812 321.71673583984375 247.90863037109375 323.00286865234375 247.657958984375 324.3304443359375 C 247.36553955078125 326.4049072265625 246.718017578125 328.437744140625 245.71539306640625 330.42919921875 C 244.7127685546875 332.42059326171875 243.12530517578125 334.30828857421875 240.9530029296875 336.09228515625 C 240.6187744140625 336.3411865234375 240.26370239257812 336.631591796875 239.88772583007812 336.9635009765625 C 239.55352783203125 337.25390625 239.17755126953125 337.5235595703125 238.75979614257812 337.77252197265625 C 236.838134765625 339.10009765625 234.20626831054688 340.30328369140625 230.86422729492188 341.3819580078125 C 227.56396484375 342.460693359375 223.38641357421875 343.0 218.33160400390625 343.0 C 213.81982421875 343.0 209.76763916015625 342.50213623046875 206.1749267578125 341.5064697265625 C 202.58224487304688 340.5107421875 199.4908447265625 339.05865478515625 196.90078735351562 337.15020751953125 C 192.89031982421875 334.20458984375 190.46734619140625 330.927001953125 189.6318359375 327.317626953125 C 188.79632568359375 323.7081298828125 188.37860107421875 319.9327392578125 188.37860107421875 315.991455078125 C 188.37860107421875 297.9442138671875 188.37860107421875 279.89697265625 188.37860107421875 261.84979248046875 C 188.37860107421875 260.89556884765625 188.56658935546875 260.25250244140625 188.94256591796875 259.92059326171875 C 189.36029052734375 259.5472412109375 190.04959106445312 259.3604736328125 191.01043701171875 259.3604736328125 C 196.21148681640625 259.3604736328125 201.41253662109375 259.3604736328125 206.61358642578125 259.3604736328125 C 207.657958984375 259.3604736328125 208.3890380859375 259.5057373046875 208.80679321289062 259.796142578125 C 209.26632690429688 260.0450439453125 209.49609375 260.8126220703125 209.49609375 262.09869384765625 C 209.49609375 279.44061279296875 209.49609375 296.78253173828125 209.49609375 314.12445068359375 C 209.49609375 314.12445068359375 209.49609375 314.14520263671875 209.49609375 314.18670654296875 C 209.49609375 314.18670654296875 209.49609375 314.18670654296875 209.49609375 314.18670654296875 C 209.49609375 314.8919677734375 209.5169677734375 315.6180419921875 209.55874633789062 316.36480712890625 C 209.60052490234375 317.070068359375 209.66317749023438 317.81689453125 209.74673461914062 318.60516357421875 C 210.0809326171875 320.7210693359375 210.97909545898438 322.67095947265625 212.44125366210938 324.4549560546875 C 213.94515991210938 326.1973876953125 216.785888671875 327.06866455078125 220.96343994140625 327.06866455078125 C 224.47259521484375 327.06866455078125 226.95822143554688 326.2596435546875 228.42034912109375 324.6416015625 C 229.88250732421875 322.98211669921875 230.80157470703125 321.1981201171875 231.17755126953125 319.2896728515625 C 231.42819213867188 318.33544921875 231.57440185546875 317.4019775390625 231.61618041992188 316.4892578125 C 231.657958984375 315.5765380859375 231.6788330078125 314.78826904296875 231.6788330078125 314.12445068359375 C 231.6788330078125 296.7410888671875 231.6788330078125 279.357666015625 231.6788330078125 261.9742431640625 C 231.6788330078125 260.93707275390625 231.845947265625 260.25250244140625 232.18014526367188 259.92059326171875 C 232.55612182617188 259.5472412109375 233.26632690429688 259.3604736328125 234.31069946289062 259.3604736328125 C 237.966064453125 259.3604736328125 241.62139892578125 259.3604736328125 245.27676391601562 259.3604736328125 C 246.40469360351562 259.3604736328125 247.17755126953125 259.5057373046875 247.59527587890625 259.796142578125 C 248.0548095703125 260.0450439453125 248.28460693359375 260.85406494140625 248.28460693359375 262.22314453125 C 248.28460693359375 262.22314453125 248.28460693359375 262.22314453125 248.28460693359375 262.22314453125"/>
    <path stroke-width="0" fill="rgb(0, 0, 0)" opacity="1.0" d="M 280.3681335449219 261.9742431640625 C 289.99737548828125 277.0965576171875 299.6266174316406 292.2188720703125 309.255859375 307.3411865234375 C 309.255859375 292.2188720703125 309.255859375 277.0965576171875 309.255859375 261.9742431640625 C 309.255859375 260.85406494140625 309.44384765625 260.1488037109375 309.81982421875 259.8583984375 C 310.23760986328125 259.5264892578125 310.9268798828125 259.3604736328125 311.8877258300781 259.3604736328125 C 315.229736328125 259.3604736328125 318.57177734375 259.3604736328125 321.913818359375 259.3604736328125 C 321.99737548828125 259.3604736328125 322.06005859375 259.3604736328125 322.101806640625 259.3604736328125 C 322.14361572265625 259.3604736328125 322.2062683105469 259.3604736328125 322.289794921875 259.3604736328125 C 323.417724609375 259.3604736328125 324.1070556640625 259.63018798828125 324.3576965332031 260.1695556640625 C 324.650146484375 260.6673583984375 324.79632568359375 261.3519287109375 324.79632568359375 262.22314453125 C 324.79632568359375 288.236083984375 324.79632568359375 314.2489013671875 324.79632568359375 340.2618408203125 C 324.79632568359375 341.216064453125 324.60833740234375 341.92132568359375 324.23236083984375 342.377685546875 C 323.8981628417969 342.7926025390625 323.12530517578125 343.0 321.913818359375 343.0 C 319.3028564453125 343.0 316.69189453125 343.0 314.0809326171875 343.0 C 313.1201171875 343.0 312.3890380859375 342.937744140625 311.8877258300781 342.81329345703125 C 311.4281921386719 342.6888427734375 310.98956298828125 342.43994140625 310.57177734375 342.0665283203125 C 310.3211364746094 341.817626953125 310.09136962890625 341.58941650390625 309.88250732421875 341.3819580078125 C 309.71539306640625 341.133056640625 309.50653076171875 340.8011474609375 309.255859375 340.38623046875 C 298.51959228515625 323.64593505859375 287.78326416015625 306.90557861328125 277.0469970703125 290.16522216796875 C 277.0469970703125 306.7811279296875 277.0469970703125 323.39697265625 277.0469970703125 340.01287841796875 C 277.0469970703125 341.050048828125 276.8590087890625 341.817626953125 276.4830322265625 342.3154296875 C 276.1488037109375 342.7718505859375 275.3341979980469 343.0 274.0391540527344 343.0 C 270.7806701660156 343.0 267.5221862792969 343.0 264.2637023925781 343.0 C 263.1357421875 343.0 262.342041015625 342.81329345703125 261.88250732421875 342.43994140625 C 261.4647216796875 342.0250244140625 261.255859375 341.29901123046875 261.255859375 340.2618408203125 C 261.255859375 314.2489013671875 261.255859375 288.236083984375 261.255859375 262.22314453125 C 261.255859375 260.93707275390625 261.54827880859375 260.1488037109375 262.1331481933594 259.8583984375 C 262.759765625 259.5264892578125 263.5117492675781 259.3604736328125 264.3890380859375 259.3604736328125 C 268.19061279296875 259.3604736328125 271.9921569824219 259.3604736328125 275.7937316894531 259.3604736328125 C 276.6710205078125 259.3604736328125 277.33941650390625 259.4434814453125 277.7989501953125 259.60943603515625 C 278.30023193359375 259.775390625 278.759765625 260.0450439453125 279.17755126953125 260.41845703125 C 279.4281921386719 260.6673583984375 279.6161804199219 260.91632080078125 279.74151611328125 261.16522216796875 C 279.90863037109375 261.3726806640625 280.11749267578125 261.642333984375 280.3681335449219 261.9742431640625 C 280.3681335449219 261.9742431640625 280.3681335449219 261.9742431640625 280.3681335449219 261.9742431640625"/>
    <path stroke-width="0" fill="rgb(0, 0, 0)" opacity="1.0" d="M 360.5770263671875 261.9742431640625 C 370.20623779296875 277.0965576171875 379.83551025390625 292.2188720703125 389.4647216796875 307.3411865234375 C 389.4647216796875 292.2188720703125 389.4647216796875 277.0965576171875 389.4647216796875 261.9742431640625 C 389.4647216796875 260.85406494140625 389.6527099609375 260.1488037109375 390.0286865234375 259.8583984375 C 390.4464111328125 259.5264892578125 391.1357421875 259.3604736328125 392.0965576171875 259.3604736328125 C 395.4385986328125 259.3604736328125 398.7806396484375 259.3604736328125 402.1226806640625 259.3604736328125 C 402.206298828125 259.3604736328125 402.2689208984375 259.3604736328125 402.3106689453125 259.3604736328125 C 402.3524169921875 259.3604736328125 402.4151611328125 259.3604736328125 402.4986572265625 259.3604736328125 C 403.6265869140625 259.3604736328125 404.31591796875 259.63018798828125 404.5665283203125 260.1695556640625 C 404.8590087890625 260.6673583984375 405.0052490234375 261.3519287109375 405.0052490234375 262.22314453125 C 405.0052490234375 288.236083984375 405.0052490234375 314.2489013671875 405.0052490234375 340.2618408203125 C 405.0052490234375 341.216064453125 404.8172607421875 341.92132568359375 404.4412841796875 342.377685546875 C 404.1070556640625 342.7926025390625 403.334228515625 343.0 402.1226806640625 343.0 C 399.51171875 343.0 396.9007568359375 343.0 394.289794921875 343.0 C 393.3289794921875 343.0 392.597900390625 342.937744140625 392.0965576171875 342.81329345703125 C 391.6370849609375 342.6888427734375 391.19842529296875 342.43994140625 390.7806396484375 342.0665283203125 C 390.530029296875 341.817626953125 390.30029296875 341.58941650390625 390.09136962890625 341.3819580078125 C 389.92431640625 341.133056640625 389.71539306640625 340.8011474609375 389.4647216796875 340.38623046875 C 378.7283935546875 323.64593505859375 367.9921875 306.90557861328125 357.255859375 290.16522216796875 C 357.255859375 306.7811279296875 357.255859375 323.39697265625 357.255859375 340.01287841796875 C 357.255859375 341.050048828125 357.06787109375 341.817626953125 356.69189453125 342.3154296875 C 356.357666015625 342.7718505859375 355.5430908203125 343.0 354.248046875 343.0 C 350.98956298828125 343.0 347.7310791015625 343.0 344.47259521484375 343.0 C 343.3446044921875 343.0 342.5509033203125 342.81329345703125 342.09136962890625 342.43994140625 C 341.673583984375 342.0250244140625 341.4647216796875 341.29901123046875 341.4647216796875 340.2618408203125 C 341.4647216796875 314.2489013671875 341.4647216796875 288.236083984375 341.4647216796875 262.22314453125 C 341.4647216796875 260.93707275390625 341.7572021484375 260.1488037109375 342.342041015625 259.8583984375 C 342.9686279296875 259.5264892578125 343.7205810546875 259.3604736328125 344.597900390625 259.3604736328125 C 348.39947509765625 259.3604736328125 352.2010498046875 259.3604736328125 356.0025634765625 259.3604736328125 C 356.8798828125 259.3604736328125 357.54827880859375 259.4434814453125 358.0078125 259.60943603515625 C 358.5091552734375 259.775390625 358.9686279296875 260.0450439453125 359.38641357421875 260.41845703125 C 359.6370849609375 260.6673583984375 359.8250732421875 260.91632080078125 359.95037841796875 261.16522216796875 C 360.11749267578125 261.3726806640625 360.32635498046875 261.642333984375 360.5770263671875 261.9742431640625 C 360.5770263671875 261.9742431640625 360.5770263671875 261.9742431640625 360.5770263671875 261.9742431640625"/>
    <path stroke-width="0" fill="rgb(0, 0, 0)" opacity="1.0" d="M 479.8876953125 263.654541015625 C 478.1331787109375 267.21728515625 476.3785400390625 270.780029296875 474.6240234375 274.3427734375 C 472.86944580078125 277.90557861328125 471.1148681640625 281.4683837890625 469.36029052734375 285.0311279296875 C 467.605712890625 288.5938720703125 465.8511962890625 292.1566162109375 464.0965576171875 295.71942138671875 C 462.342041015625 299.2822265625 460.58746337890625 302.844970703125 458.8328857421875 306.40771484375 C 458.8328857421875 312.029296875 458.8328857421875 317.65093994140625 458.8328857421875 323.27252197265625 C 458.8328857421875 328.8941650390625 458.8328857421875 334.5157470703125 458.8328857421875 340.1373291015625 C 458.8328857421875 341.25750732421875 458.6448974609375 342.0250244140625 458.2689208984375 342.43994140625 C 457.9346923828125 342.81329345703125 457.20361328125 343.0 456.07568359375 343.0 C 450.7911376953125 343.0 445.50653076171875 343.0 440.221923828125 343.0 C 439.42822265625 343.0 438.759765625 342.87554931640625 438.2166748046875 342.6265869140625 C 437.71539306640625 342.336181640625 437.4647216796875 341.630859375 437.4647216796875 340.5107421875 C 437.4647216796875 334.6920166015625 437.4647216796875 328.8734130859375 437.4647216796875 323.0546875 C 437.4647216796875 317.236083984375 437.4647216796875 311.4173583984375 437.4647216796875 305.5987548828125 C 433.9869384765625 298.6080322265625 430.5091552734375 291.6173095703125 427.03131103515625 284.6265869140625 C 423.553466796875 277.6358642578125 420.07568359375 270.64520263671875 416.597900390625 263.654541015625 C 416.3890380859375 263.1981201171875 416.221923828125 262.82470703125 416.0965576171875 262.5343017578125 C 415.97125244140625 262.243896484375 415.8668212890625 261.9949951171875 415.78326416015625 261.78753662109375 C 415.78326416015625 261.70458984375 415.78326416015625 261.62158203125 415.78326416015625 261.53863525390625 C 415.78326416015625 261.4556884765625 415.78326416015625 261.3726806640625 415.78326416015625 261.2896728515625 C 415.78326416015625 260.6258544921875 415.95037841796875 260.1695556640625 416.2845458984375 259.92059326171875 C 416.6605224609375 259.63018798828125 417.05743408203125 259.4849853515625 417.4752197265625 259.4849853515625 C 417.64227294921875 259.4019775390625 417.80938720703125 259.3604736328125 417.97650146484375 259.3604736328125 C 418.18536376953125 259.3604736328125 418.37335205078125 259.3604736328125 418.54046630859375 259.3604736328125 C 424.2010498046875 259.3604736328125 429.861572265625 259.3604736328125 435.522216796875 259.3604736328125 C 436.31591796875 259.3604736328125 436.9425048828125 259.4227294921875 437.402099609375 259.5472412109375 C 437.861572265625 259.671630859375 438.237548828125 259.96209716796875 438.530029296875 260.41845703125 C 438.61358642578125 260.6673583984375 438.718017578125 260.91632080078125 438.84332275390625 261.16522216796875 C 438.9686279296875 261.3726806640625 439.1148681640625 261.642333984375 439.281982421875 261.9742431640625 C 441.2244873046875 266.3511962890625 443.1671142578125 270.7281494140625 445.109619140625 275.10516357421875 C 447.05224609375 279.48211669921875 448.9947509765625 283.85906982421875 450.93731689453125 288.236083984375 C 453.015625 283.87982177734375 455.093994140625 279.52362060546875 457.17230224609375 275.1673583984375 C 459.2506103515625 270.8111572265625 461.3289794921875 266.4549560546875 463.40728759765625 262.09869384765625 C 463.57440185546875 261.766845703125 463.7205810546875 261.51788330078125 463.845947265625 261.3519287109375 C 463.97125244140625 261.14447021484375 464.07568359375 260.91632080078125 464.15924072265625 260.6673583984375 C 464.5352783203125 260.21099853515625 464.93212890625 259.879150390625 465.349853515625 259.671630859375 C 465.767578125 259.4642333984375 466.37335205078125 259.3604736328125 467.1671142578125 259.3604736328125 C 470.9686279296875 259.3604736328125 474.770263671875 259.3604736328125 478.57177734375 259.3604736328125 C 478.7388916015625 259.3604736328125 478.8851318359375 259.3604736328125 479.01043701171875 259.3604736328125 C 479.1357421875 259.3604736328125 479.281982421875 259.3604736328125 479.4490966796875 259.3604736328125 C 479.8250732421875 259.4434814453125 480.1593017578125 259.58868408203125 480.45166015625 259.796142578125 C 480.744140625 260.0035400390625 480.89031982421875 260.376953125 480.89031982421875 260.91632080078125 C 480.89031982421875 260.999267578125 480.89031982421875 261.0615234375 480.89031982421875 261.10302734375 C 480.89031982421875 261.14447021484375 480.89031982421875 261.16522216796875 480.89031982421875 261.16522216796875 C 480.89031982421875 261.4556884765625 480.8067626953125 261.78753662109375 480.6396484375 262.16094970703125 C 480.4725341796875 262.5343017578125 480.221923828125 263.0322265625 479.8876953125 263.654541015625 C 479.8876953125 263.654541015625 479.8876953125 263.654541015625 479.8876953125 263.654541015625"/>
  </g>
</svg>
