<?xml version="1.0" encoding="utf-8"?>
<svg xmlns="http://www.w3.org/2000/svg" xmlns:ev="http://www.w3.org/2001/xml-events" xmlns:xlink="http://www.w3.org/1999/xlink" version="1.1" baseProfile="full" width="8087.0" height="1920.0" viewBox="40.0 -1472.0 8087.0 1920.0">
<defs/>
<g><path d="M 2818.000000 -1410.000000 C 2818.000000 -1245.333333 2818.000000 -1080.666667 2818.000000 -916.000000 C 2824.666667 -922.666667 2832.333333 -929.666667 2841.000000 -937.000000 C 2849.666667 -945.000000 2860.666667 -953.333333 2874.000000 -962.000000 C 2896.666667 -977.333333 2924.000000 -991.333333 2956.000000 -1004.000000 C 2988.000000 -1017.333333 3025.333333 -1024.000000 3068.000000 -1024.000000 C 3180.000000 -1024.000000 3261.666667 -978.666667 3313.000000 -888.000000 C 3364.333333 -798.000000 3390.000000 -693.666667 3390.000000 -575.000000 C 3390.000000 -562.333333 3389.666667 -549.333333 3389.000000 -536.000000 C 3388.333333 -523.333333 3387.333333 -510.000000 3386.000000 -496.000000 C 3376.000000 -372.000000 3333.666667 -258.333333 3259.000000 -155.000000 C 3185.000000 -51.666667 3063.333333 0.000000 2894.000000 0.000000 C 2892.000000 0.000000 2890.000000 0.000000 2888.000000 0.000000 C 2886.000000 0.000000 2883.666667 0.000000 2881.000000 0.000000 C 2822.333333 -1.333333 2765.666667 -9.333333 2711.000000 -24.000000 C 2656.333333 -38.666667 2611.666667 -60.666667 2577.000000 -90.000000 C 2576.333333 -91.333333 2575.000000 -92.666667 2573.000000 -94.000000 C 2571.000000 -95.333333 2569.333333 -97.000000 2568.000000 -99.000000 C 2543.333333 -120.333333 2528.333333 -144.000000 2523.000000 -170.000000 C 2518.333333 -196.000000 2516.000000 -232.666667 2516.000000 -280.000000 C 2516.000000 -656.000000 2516.000000 -1032.000000 2516.000000 -1408.000000 C 2516.000000 -1434.000000 2519.333333 -1451.000000 2526.000000 -1459.000000 C 2533.333333 -1467.666667 2545.333333 -1472.000000 2562.000000 -1472.000000 C 2632.000000 -1472.000000 2702.000000 -1472.000000 2772.000000 -1472.000000 C 2786.000000 -1472.000000 2797.000000 -1468.000000 2805.000000 -1460.000000 C 2813.666667 -1452.666667 2818.000000 -1436.000000 2818.000000 -1410.000000 C 2818.000000 -1410.000000 2818.000000 -1410.000000 2818.000000 -1410.000000z M 2818.000000 -796.000000 C 2818.000000 -642.000000 2818.000000 -488.000000 2818.000000 -334.000000 C 2818.000000 -325.333333 2818.333333 -315.666667 2819.000000 -305.000000 C 2819.666667 -294.333333 2820.666667 -283.333333 2822.000000 -272.000000 C 2826.000000 -248.666667 2834.666667 -227.666667 2848.000000 -209.000000 C 2861.333333 -191.000000 2884.000000 -182.000000 2916.000000 -182.000000 C 2968.666667 -182.000000 3010.000000 -215.666667 3040.000000 -283.000000 C 3070.000000 -350.333333 3085.000000 -431.000000 3085.000000 -525.000000 C 3085.000000 -541.666667 3084.333333 -558.000000 3083.000000 -574.000000 C 3081.666667 -590.666667 3080.333333 -608.000000 3079.000000 -626.000000 C 3076.333333 -640.000000 3073.666667 -654.000000 3071.000000 -668.000000 C 3069.000000 -682.000000 3066.000000 -695.333333 3062.000000 -708.000000 C 3050.666667 -744.666667 3033.666667 -774.333333 3011.000000 -797.000000 C 2988.333333 -820.333333 2958.666667 -832.000000 2922.000000 -832.000000 C 2908.000000 -832.000000 2895.000000 -830.333333 2883.000000 -827.000000 C 2871.666667 -823.666667 2861.000000 -819.000000 2851.000000 -813.000000 C 2845.666667 -810.333333 2840.333333 -807.666667 2835.000000 -805.000000 C 2830.333333 -803.000000 2824.666667 -800.000000 2818.000000 -796.000000 C 2818.000000 -796.000000 2818.000000 -796.000000 2818.000000 -796.000000z "/>
</g></svg>
