<?xml version="1.0" ?>
<svg xmlns="http://www.w3.org/2000/svg" version="1.1" width="600" height="600">
  <defs/>
  <g>
    <path stroke-width="0" fill="rgb(0, 0, 0)" opacity="1.0" d="M 374.557861328125 254.75 C 374.557861328125 288.875 374.557861328125 323.0 374.557861328125 357.125 C 374.557861328125 358.375 374.557861328125 359.75 374.557861328125 361.25 C 374.557861328125 362.625 374.432861328125 364.0625 374.182861328125 365.5625 C 373.9329833984375 368.3125 373.43310546875 371.0625 372.6832275390625 373.8125 C 372.058349609375 376.4375 370.74609375 379.0 368.74658203125 381.5 C 368.12158203125 382.5 367.309326171875 383.5 366.3095703125 384.5 C 365.3096923828125 385.375 364.12255859375 386.3125 362.747802734375 387.3125 C 357.623779296875 390.9375 350.1878662109375 394.125 340.4398193359375 396.875 C 330.8167724609375 399.625 318.4443359375 401.0 303.322509765625 401.0 C 299.9482421875 401.0 294.82421875 400.875 287.95068359375 400.625 C 281.2020263671875 400.25 274.0784912109375 399.0 266.580078125 396.875 C 256.4571533203125 394.375 247.2091064453125 389.75 238.8358154296875 383.0 C 230.4625244140625 376.25 226.27587890625 365.875 226.27587890625 351.875 C 226.27587890625 330.25 235.77392578125 315.4375 254.77001953125 307.4375 C 273.89111328125 299.4375 294.88671875 293.0625 317.757080078125 288.3125 C 318.3819580078125 288.0625 318.9443359375 287.875 319.4442138671875 287.75 C 319.944091796875 287.625 320.4439697265625 287.5625 320.94384765625 287.5625 C 320.94384765625 281.75 320.94384765625 275.9375 320.94384765625 270.125 C 320.94384765625 269.0 320.94384765625 267.8125 320.94384765625 266.5625 C 320.94384765625 265.3125 320.8189697265625 264.125 320.5689697265625 263.0 C 320.3189697265625 258.5 319.1318359375 254.375 317.0072021484375 250.625 C 314.882568359375 246.875 310.446044921875 245.0 303.6973876953125 245.0 C 298.9483642578125 245.0 295.19921875 246.0625 292.44970703125 248.1875 C 289.8253173828125 250.3125 287.82568359375 252.75 286.4510498046875 255.5 C 285.951171875 256.625 285.451171875 257.6875 284.9512939453125 258.6875 C 284.451416015625 259.5625 284.138916015625 260.5 284.0140380859375 261.5 C 284.0140380859375 261.75 283.9515380859375 261.9375 283.8265380859375 262.0625 C 283.7015380859375 262.1875 283.6390380859375 262.375 283.6390380859375 262.625 C 281.6395263671875 267.375 279.0775146484375 271.8125 275.953125 275.9375 C 272.828857421875 280.0625 267.3299560546875 282.125 259.45654296875 282.125 C 251.5831298828125 282.125 245.5218505859375 279.8125 241.2728271484375 275.1875 C 237.023681640625 270.4375 234.899169921875 265.0625 234.899169921875 259.0625 C 234.899169921875 257.5625 235.0240478515625 256.125 235.2740478515625 254.75 C 235.5240478515625 253.25 235.89892578125 251.8125 236.3988037109375 250.4375 C 239.273193359375 239.0625 246.9591064453125 227.875 259.45654296875 216.875 C 271.9539794921875 205.875 289.9501953125 200.375 313.4454345703125 200.375 C 316.31982421875 200.375 319.3192138671875 200.4375 322.443603515625 200.5625 C 325.56787109375 200.6875 328.6922607421875 201.0 331.816650390625 201.5 C 335.8157958984375 202.125 339.81494140625 203.0625 343.814208984375 204.3125 C 347.8133544921875 205.5625 351.4376220703125 207.125 354.6868896484375 209.0 C 359.5609130859375 212.25 363.3726806640625 215.875 366.1220703125 219.875 C 368.8714599609375 223.75 370.87109375 227.75 372.120849609375 231.875 C 373.24560546875 236.125 373.9329833984375 240.25 374.182861328125 244.25 C 374.432861328125 248.125 374.557861328125 251.625 374.557861328125 254.75 C 374.557861328125 254.75 374.557861328125 254.75 374.557861328125 254.75M 320.94384765625 348.875 C 320.94384765625 334.3125 320.94384765625 319.75 320.94384765625 305.1875 C 311.0709228515625 308.3125 302.01025390625 312.25 293.761962890625 317.0 C 285.513671875 321.625 281.3895263671875 330.5625 281.3895263671875 343.8125 C 281.3895263671875 352.4375 283.26416015625 358.875 287.013427734375 363.125 C 290.8875732421875 367.25 295.26171875 369.8125 300.1356201171875 370.8125 C 300.885498046875 370.8125 301.5103759765625 370.875 302.01025390625 371.0 C 302.6351318359375 371.125 303.322509765625 371.1875 304.0723876953125 371.1875 C 309.8211669921875 371.1875 313.8203125 369.6875 316.0699462890625 366.6875 C 318.3194580078125 363.6875 319.819091796875 360.5 320.5689697265625 357.125 C 320.8189697265625 355.625 320.94384765625 354.1875 320.94384765625 352.8125 C 320.94384765625 351.3125 320.94384765625 350.0 320.94384765625 348.875 C 320.94384765625 348.875 320.94384765625 348.875 320.94384765625 348.875"/>
  </g>
</svg>
