<?xml version="1.0" ?>
<svg xmlns="http://www.w3.org/2000/svg" version="1.1" width="600" height="600">
  <defs/>
  <g>
    <path stroke-width="0" fill="rgb(0, 0, 0)" opacity="1.0" d="M 275.26611328125 173.625 C 275.26611328125 204.5 275.26611328125 235.375 275.26611328125 266.25 C 276.515869140625 265.0 277.95306396484375 263.6875 279.57769775390625 262.3125 C 281.202392578125 260.8125 283.26446533203125 259.25 285.76397705078125 257.625 C 290.0130615234375 254.75 295.13702392578125 252.125 301.13580322265625 249.75 C 307.134521484375 247.25 314.13311767578125 246.0 322.1314697265625 246.0 C 343.12713623046875 246.0 358.43646240234375 254.5 368.05950927734375 271.5 C 377.6824951171875 288.375 382.4940185546875 307.9375 382.4940185546875 330.1875 C 382.4940185546875 332.5625 382.4315185546875 335.0 382.30657958984375 337.5 C 382.18157958984375 339.875 381.99407958984375 342.375 381.744140625 345.0 C 379.86956787109375 368.25 371.9337158203125 389.5625 357.93658447265625 408.9375 C 344.064453125 428.3125 321.256591796875 438.0 289.51318359375 438.0 C 289.13824462890625 438.0 288.7633056640625 438.0 288.388427734375 438.0 C 288.01348876953125 438.0 287.57611083984375 438.0 287.076171875 438.0 C 276.07843017578125 437.75 265.45562744140625 436.25 255.207763671875 433.5 C 244.9598388671875 430.75 236.58660888671875 426.625 230.087890625 421.125 C 229.96295166015625 420.875 229.7130126953125 420.625 229.33807373046875 420.375 C 228.963134765625 420.125 228.65069580078125 419.8125 228.4007568359375 419.4375 C 223.7767333984375 415.4375 220.96478271484375 411.0 219.96502685546875 406.125 C 219.0902099609375 401.25 218.65277099609375 394.375 218.65277099609375 385.5 C 218.65277099609375 315.0 218.65277099609375 244.5 218.65277099609375 174.0 C 218.65277099609375 169.125 219.27764892578125 165.9375 220.52740478515625 164.4375 C 221.902099609375 162.8125 224.151611328125 162.0 227.2760009765625 162.0 C 240.3983154296875 162.0 253.5206298828125 162.0 266.64288330078125 162.0 C 269.267333984375 162.0 271.32940673828125 162.75 272.8291015625 164.25 C 274.45379638671875 165.625 275.26611328125 168.75 275.26611328125 173.625 C 275.26611328125 173.625 275.26611328125 173.625 275.26611328125 173.625M 275.26611328125 288.75 C 275.26611328125 317.625 275.26611328125 346.5 275.26611328125 375.375 C 275.26611328125 377.0 275.32861328125 378.8125 275.45355224609375 380.8125 C 275.57855224609375 382.8125 275.76605224609375 384.875 276.0159912109375 387.0 C 276.76580810546875 391.375 278.3905029296875 395.3125 280.88995361328125 398.8125 C 283.389404296875 402.1875 287.6385498046875 403.875 293.6373291015625 403.875 C 303.51031494140625 403.875 311.2586669921875 397.5625 316.882568359375 384.9375 C 322.50640869140625 372.3125 325.31829833984375 357.1875 325.31829833984375 339.5625 C 325.31829833984375 336.4375 325.19329833984375 333.375 324.943359375 330.375 C 324.69342041015625 327.25 324.4434814453125 324.0 324.19354248046875 320.625 C 323.693603515625 318.0 323.1937255859375 315.375 322.69384765625 312.75 C 322.31890869140625 310.125 321.75653076171875 307.625 321.0067138671875 305.25 C 318.88214111328125 298.375 315.6953125 292.8125 311.4461669921875 288.5625 C 307.197021484375 284.1875 301.63568115234375 282.0 294.7620849609375 282.0 C 292.13763427734375 282.0 289.70062255859375 282.3125 287.45111083984375 282.9375 C 285.3265380859375 283.5625 283.32696533203125 284.4375 281.45233154296875 285.5625 C 280.45257568359375 286.0625 279.4527587890625 286.5625 278.45294189453125 287.0625 C 277.578125 287.4375 276.515869140625 288.0 275.26611328125 288.75 C 275.26611328125 288.75 275.26611328125 288.75 275.26611328125 288.75"/>
  </g>
</svg>
