<?xml version="1.0" ?>
<svg xmlns="http://www.w3.org/2000/svg" version="1.1" width="600" height="600">
  <defs/>
  <g>
    <path stroke-width="0" fill="rgb(0, 0, 0)" opacity="1.0" d="M 385.87359619140625 174.1875 C 363.3277893066406 240.6875 340.7819519042969 307.1875 318.23614501953125 373.6875 C 317.1119689941406 376.9375 315.8004455566406 380.4375 314.3015441894531 384.1875 C 312.9275817871094 387.9375 311.2413330078125 391.75 309.2427978515625 395.625 C 304.2464904785156 406.25 297.25164794921875 415.9375 288.25830078125 424.6875 C 279.26495361328125 433.5625 266.58685302734375 438.0 250.22393798828125 438.0 C 237.73318481445312 438.0 228.6773681640625 435.0625 223.05654907226562 429.1875 C 217.43569946289062 423.3125 214.62527465820312 416.875 214.62527465820312 409.875 C 214.62527465820312 403.625 216.68624877929688 398.1875 220.80819702148438 393.5625 C 225.0550537109375 389.0625 230.30117797851562 386.8125 236.54656982421875 386.8125 C 238.66998291015625 386.8125 240.66851806640625 387.0625 242.5421142578125 387.5625 C 244.5406494140625 388.0625 246.41427612304688 388.5 248.1629638671875 388.875 C 250.03659057617188 389.625 251.59793090820312 390.3125 252.84701538085938 390.9375 C 254.22097778320312 391.5625 255.65744018554688 391.875 257.15631103515625 391.875 C 257.65594482421875 392.125 258.0306701660156 392.25 258.2804870605469 392.25 C 258.65521240234375 392.25 259.0923767089844 392.25 259.5920104980469 392.25 C 264.2135925292969 392.25 268.0232849121094 390.0 271.02105712890625 385.5 C 274.01885986328125 381.125 276.82928466796875 374.625 279.45233154296875 366.0 C 280.2017822265625 364.125 280.76385498046875 362.1875 281.1385803222656 360.1875 C 281.6382141113281 358.1875 282.26275634765625 356.125 283.01220703125 354.0 C 261.0284423828125 293.9375 239.04470825195312 233.875 217.06097412109375 173.8125 C 216.43643188476562 171.4375 215.999267578125 169.9375 215.74945068359375 169.3125 C 215.4996337890625 168.5625 215.37472534179688 167.9375 215.37472534179688 167.4375 C 215.37472534179688 167.4375 215.37472534179688 167.375 215.37472534179688 167.25 C 215.37472534179688 167.125 215.37472534179688 167.0625 215.37472534179688 167.0625 C 215.37472534179688 165.3125 215.8118896484375 164.125 216.68624877929688 163.5 C 217.68551635742188 162.75 218.68478393554688 162.375 219.68402099609375 162.375 C 220.4334716796875 162.125 220.99557495117188 162.0 221.37030029296875 162.0 C 221.86993408203125 162.0 222.36953735351562 162.0 222.86917114257812 162.0 C 237.42092895507812 162.0 251.97265625 162.0 266.5243835449219 162.0 C 269.39727783203125 162.0 271.3333435058594 162.25 272.33258056640625 162.75 C 273.4567565917969 163.25 274.3935546875 164.5625 275.14300537109375 166.6875 C 275.392822265625 167.1875 275.5802001953125 167.75 275.7051086425781 168.375 C 275.83001708984375 168.875 275.9549255371094 169.5 276.079833984375 170.25 C 286.634521484375 207.25 297.189208984375 244.25 307.743896484375 281.25 C 318.54840087890625 244.625 329.3529052734375 208.0 340.15740966796875 171.375 C 340.4072265625 170.375 340.65704345703125 169.5 340.9068603515625 168.75 C 341.15667724609375 167.875 341.5314025878906 167.1875 342.0310363769531 166.6875 C 342.7804870605469 164.8125 343.5923767089844 163.5625 344.46673583984375 162.9375 C 345.46600341796875 162.3125 347.27716064453125 162.0 349.90020751953125 162.0 C 359.7679443359375 162.0 369.6356201171875 162.0 379.5033264160156 162.0 C 380.0029602050781 162.0 380.377685546875 162.0 380.62750244140625 162.0 C 381.002197265625 162.0 381.43939208984375 162.0 381.93902587890625 162.0 C 383.1881103515625 162.25 384.3747253417969 162.6875 385.4989013671875 163.3125 C 386.74798583984375 163.9375 387.37249755859375 165.3125 387.37249755859375 167.4375 C 387.37249755859375 168.1875 387.31005859375 169.0625 387.1851501464844 170.0625 C 387.06024169921875 170.9375 386.623046875 172.3125 385.87359619140625 174.1875 C 385.87359619140625 174.1875 385.87359619140625 174.1875 385.87359619140625 174.1875"/>
  </g>
</svg>
