<?xml version="1.0" encoding="utf-8"?>
<svg xmlns="http://www.w3.org/2000/svg" xmlns:ev="http://www.w3.org/2001/xml-events" xmlns:xlink="http://www.w3.org/1999/xlink" version="1.1" baseProfile="full" width="3608.0" height="1920.0" viewBox="-2.0 -1472.0 3608.0 1920.0">
<defs/>
<g><path d="M 912.000000 -959.000000 C 791.666667 -604.333333 671.333333 -249.666667 551.000000 105.000000 C 545.000000 122.333333 538.000000 141.000000 530.000000 161.000000 C 522.666667 181.000000 513.666667 201.333333 503.000000 222.000000 C 476.333333 278.666667 439.000000 330.333333 391.000000 377.000000 C 343.000000 424.333333 275.333333 448.000000 188.000000 448.000000 C 121.333333 448.000000 73.000000 432.333333 43.000000 401.000000 C 13.000000 369.666667 -2.000000 335.333333 -2.000000 298.000000 C -2.000000 264.666667 9.000000 235.666667 31.000000 211.000000 C 53.666667 187.000000 81.666667 175.000000 115.000000 175.000000 C 126.333333 175.000000 137.000000 176.333333 147.000000 179.000000 C 157.666667 181.666667 167.666667 184.000000 177.000000 186.000000 C 187.000000 190.000000 195.333333 193.666667 202.000000 197.000000 C 209.333333 200.333333 217.000000 202.000000 225.000000 202.000000 C 227.666667 203.333333 229.666667 204.000000 231.000000 204.000000 C 233.000000 204.000000 235.333333 204.000000 238.000000 204.000000 C 262.666667 204.000000 283.000000 192.000000 299.000000 168.000000 C 315.000000 144.666667 330.000000 110.000000 344.000000 64.000000 C 348.000000 54.000000 351.000000 43.666667 353.000000 33.000000 C 355.666667 22.333333 359.000000 11.333333 363.000000 0.000000 C 245.666667 -320.333333 128.333333 -640.666667 11.000000 -961.000000 C 7.666667 -973.666667 5.333333 -981.666667 4.000000 -985.000000 C 2.666667 -989.000000 2.000000 -992.333333 2.000000 -995.000000 C 2.000000 -995.000000 2.000000 -995.333333 2.000000 -996.000000 C 2.000000 -996.666667 2.000000 -997.000000 2.000000 -997.000000 C 2.000000 -1006.333333 4.333333 -1012.666667 9.000000 -1016.000000 C 14.333333 -1020.000000 19.666667 -1022.000000 25.000000 -1022.000000 C 29.000000 -1023.333333 32.000000 -1024.000000 34.000000 -1024.000000 C 36.666667 -1024.000000 39.333333 -1024.000000 42.000000 -1024.000000 C 119.666667 -1024.000000 197.333333 -1024.000000 275.000000 -1024.000000 C 290.333333 -1024.000000 300.666667 -1022.666667 306.000000 -1020.000000 C 312.000000 -1017.333333 317.000000 -1010.333333 321.000000 -999.000000 C 322.333333 -996.333333 323.333333 -993.333333 324.000000 -990.000000 C 324.666667 -987.333333 325.333333 -984.000000 326.000000 -980.000000 C 382.333333 -782.666667 438.666667 -585.333333 495.000000 -388.000000 C 552.666667 -583.333333 610.333333 -778.666667 668.000000 -974.000000 C 669.333333 -979.333333 670.666667 -984.000000 672.000000 -988.000000 C 673.333333 -992.666667 675.333333 -996.333333 678.000000 -999.000000 C 682.000000 -1009.000000 686.333333 -1015.666667 691.000000 -1019.000000 C 696.333333 -1022.333333 706.000000 -1024.000000 720.000000 -1024.000000 C 772.666667 -1024.000000 825.333333 -1024.000000 878.000000 -1024.000000 C 880.666667 -1024.000000 882.666667 -1024.000000 884.000000 -1024.000000 C 886.000000 -1024.000000 888.333333 -1024.000000 891.000000 -1024.000000 C 897.666667 -1022.666667 904.000000 -1020.333333 910.000000 -1017.000000 C 916.666667 -1013.666667 920.000000 -1006.333333 920.000000 -995.000000 C 920.000000 -991.000000 919.666667 -986.333333 919.000000 -981.000000 C 918.333333 -976.333333 916.000000 -969.000000 912.000000 -959.000000 C 912.000000 -959.000000 912.000000 -959.000000 912.000000 -959.000000z "/>
</g>
<g><path d="M 1691.000000 -565.000000 C 1525.666667 -542.000000 1360.333333 -519.000000 1195.000000 -496.000000 C 1197.666667 -484.666667 1200.666667 -471.666667 1204.000000 -457.000000 C 1207.333333 -443.000000 1212.333333 -428.666667 1219.000000 -414.000000 C 1219.666667 -410.000000 1220.666667 -406.333333 1222.000000 -403.000000 C 1223.333333 -400.333333 1224.666667 -397.666667 1226.000000 -395.000000 C 1248.000000 -355.666667 1277.333333 -324.333333 1314.000000 -301.000000 C 1351.333333 -278.333333 1393.666667 -267.000000 1441.000000 -267.000000 C 1479.666667 -267.000000 1514.000000 -274.000000 1544.000000 -288.000000 C 1574.000000 -302.000000 1599.333333 -317.333333 1620.000000 -334.000000 C 1622.666667 -336.666667 1625.666667 -339.666667 1629.000000 -343.000000 C 1632.333333 -346.333333 1635.000000 -349.000000 1637.000000 -351.000000 C 1650.333333 -365.666667 1660.666667 -376.333333 1668.000000 -383.000000 C 1676.000000 -390.333333 1683.000000 -395.666667 1689.000000 -399.000000 C 1693.000000 -401.666667 1697.000000 -403.333333 1701.000000 -404.000000 C 1705.000000 -404.666667 1709.333333 -405.000000 1714.000000 -405.000000 C 1729.333333 -405.000000 1743.000000 -399.000000 1755.000000 -387.000000 C 1767.000000 -375.000000 1773.000000 -356.666667 1773.000000 -332.000000 C 1773.000000 -319.333333 1769.000000 -297.666667 1761.000000 -267.000000 C 1753.000000 -236.333333 1738.666667 -204.333333 1718.000000 -171.000000 C 1691.333333 -127.666667 1652.333333 -88.333333 1601.000000 -53.000000 C 1549.666667 -17.666667 1480.333333 0.000000 1393.000000 0.000000 C 1227.000000 0.000000 1110.333333 -52.000000 1043.000000 -156.000000 C 975.666667 -260.666667 940.666667 -375.666667 938.000000 -501.000000 C 938.000000 -504.333333 938.000000 -507.333333 938.000000 -510.000000 C 938.000000 -512.666667 938.000000 -515.333333 938.000000 -518.000000 C 938.000000 -682.666667 977.333333 -803.666667 1056.000000 -881.000000 C 1134.666667 -959.000000 1221.000000 -1004.666667 1315.000000 -1018.000000 C 1327.666667 -1020.666667 1340.000000 -1022.333333 1352.000000 -1023.000000 C 1364.000000 -1023.666667 1376.000000 -1024.000000 1388.000000 -1024.000000 C 1480.000000 -1024.000000 1552.333333 -1003.333333 1605.000000 -962.000000 C 1658.333333 -921.333333 1698.000000 -876.333333 1724.000000 -827.000000 C 1740.666667 -793.666667 1752.333333 -761.666667 1759.000000 -731.000000 C 1766.333333 -700.333333 1770.000000 -676.000000 1770.000000 -658.000000 C 1770.000000 -628.000000 1764.333333 -607.000000 1753.000000 -595.000000 C 1742.333333 -583.666667 1730.666667 -575.333333 1718.000000 -570.000000 C 1712.666667 -568.666667 1707.666667 -567.666667 1703.000000 -567.000000 C 1699.000000 -566.333333 1695.000000 -565.666667 1691.000000 -565.000000 C 1691.000000 -565.000000 1691.000000 -565.000000 1691.000000 -565.000000z M 1176.000000 -615.000000 C 1275.333333 -629.666667 1374.666667 -644.333333 1474.000000 -659.000000 C 1470.000000 -703.666667 1461.333333 -737.666667 1448.000000 -761.000000 C 1434.666667 -785.000000 1420.333333 -802.333333 1405.000000 -813.000000 C 1391.000000 -821.666667 1377.333333 -827.000000 1364.000000 -829.000000 C 1351.333333 -831.000000 1342.333333 -832.000000 1337.000000 -832.000000 C 1281.000000 -832.000000 1240.333333 -809.333333 1215.000000 -764.000000 C 1190.333333 -719.333333 1177.333333 -669.666667 1176.000000 -615.000000 C 1176.000000 -615.000000 1176.000000 -615.000000 1176.000000 -615.000000z "/>
</g>
<g><path d="M 2623.000000 -780.000000 C 2623.000000 -598.000000 2623.000000 -416.000000 2623.000000 -234.000000 C 2623.000000 -227.333333 2623.000000 -220.000000 2623.000000 -212.000000 C 2623.000000 -204.666667 2622.333333 -197.000000 2621.000000 -189.000000 C 2619.666667 -174.333333 2617.000000 -159.666667 2613.000000 -145.000000 C 2609.666667 -131.000000 2602.666667 -117.333333 2592.000000 -104.000000 C 2588.666667 -98.666667 2584.333333 -93.333333 2579.000000 -88.000000 C 2573.666667 -83.333333 2567.333333 -78.333333 2560.000000 -73.000000 C 2532.666667 -53.666667 2493.000000 -36.666667 2441.000000 -22.000000 C 2389.666667 -7.333333 2323.666667 0.000000 2243.000000 0.000000 C 2225.000000 0.000000 2197.666667 -0.666667 2161.000000 -2.000000 C 2125.000000 -4.000000 2087.000000 -10.666667 2047.000000 -22.000000 C 1993.000000 -35.333333 1943.666667 -60.000000 1899.000000 -96.000000 C 1854.333333 -132.000000 1832.000000 -187.333333 1832.000000 -262.000000 C 1832.000000 -377.333333 1882.666667 -456.333333 1984.000000 -499.000000 C 2086.000000 -541.666667 2198.000000 -575.666667 2320.000000 -601.000000 C 2323.333333 -602.333333 2326.333333 -603.333333 2329.000000 -604.000000 C 2331.666667 -604.666667 2334.333333 -605.000000 2337.000000 -605.000000 C 2337.000000 -636.000000 2337.000000 -667.000000 2337.000000 -698.000000 C 2337.000000 -704.000000 2337.000000 -710.333333 2337.000000 -717.000000 C 2337.000000 -723.666667 2336.333333 -730.000000 2335.000000 -736.000000 C 2333.666667 -760.000000 2327.333333 -782.000000 2316.000000 -802.000000 C 2304.666667 -822.000000 2281.000000 -832.000000 2245.000000 -832.000000 C 2219.666667 -832.000000 2199.666667 -826.333333 2185.000000 -815.000000 C 2171.000000 -803.666667 2160.333333 -790.666667 2153.000000 -776.000000 C 2150.333333 -770.000000 2147.666667 -764.333333 2145.000000 -759.000000 C 2142.333333 -754.333333 2140.666667 -749.333333 2140.000000 -744.000000 C 2140.000000 -742.666667 2139.666667 -741.666667 2139.000000 -741.000000 C 2138.333333 -740.333333 2138.000000 -739.333333 2138.000000 -738.000000 C 2127.333333 -712.666667 2113.666667 -689.000000 2097.000000 -667.000000 C 2080.333333 -645.000000 2051.000000 -634.000000 2009.000000 -634.000000 C 1967.000000 -634.000000 1934.666667 -646.333333 1912.000000 -671.000000 C 1889.333333 -696.333333 1878.000000 -725.000000 1878.000000 -757.000000 C 1878.000000 -765.000000 1878.666667 -772.666667 1880.000000 -780.000000 C 1881.333333 -788.000000 1883.333333 -795.666667 1886.000000 -803.000000 C 1901.333333 -863.666667 1942.333333 -923.333333 2009.000000 -982.000000 C 2075.666667 -1040.666667 2171.666667 -1070.000000 2297.000000 -1070.000000 C 2312.333333 -1070.000000 2328.333333 -1069.666667 2345.000000 -1069.000000 C 2361.666667 -1068.333333 2378.333333 -1066.666667 2395.000000 -1064.000000 C 2416.333333 -1060.666667 2437.666667 -1055.666667 2459.000000 -1049.000000 C 2480.333333 -1042.333333 2499.666667 -1034.000000 2517.000000 -1024.000000 C 2543.000000 -1006.666667 2563.333333 -987.333333 2578.000000 -966.000000 C 2592.666667 -945.333333 2603.333333 -924.000000 2610.000000 -902.000000 C 2616.000000 -879.333333 2619.666667 -857.333333 2621.000000 -836.000000 C 2622.333333 -815.333333 2623.000000 -796.666667 2623.000000 -780.000000 C 2623.000000 -780.000000 2623.000000 -780.000000 2623.000000 -780.000000z M 2337.000000 -278.000000 C 2337.000000 -355.666667 2337.000000 -433.333333 2337.000000 -511.000000 C 2284.333333 -494.333333 2236.000000 -473.333333 2192.000000 -448.000000 C 2148.000000 -423.333333 2126.000000 -375.666667 2126.000000 -305.000000 C 2126.000000 -259.000000 2136.000000 -224.666667 2156.000000 -202.000000 C 2176.666667 -180.000000 2200.000000 -166.333333 2226.000000 -161.000000 C 2230.000000 -161.000000 2233.333333 -160.666667 2236.000000 -160.000000 C 2239.333333 -159.333333 2243.000000 -159.000000 2247.000000 -159.000000 C 2277.666667 -159.000000 2299.000000 -167.000000 2311.000000 -183.000000 C 2323.000000 -199.000000 2331.000000 -216.000000 2335.000000 -234.000000 C 2336.333333 -242.000000 2337.000000 -249.666667 2337.000000 -257.000000 C 2337.000000 -265.000000 2337.000000 -272.000000 2337.000000 -278.000000 C 2337.000000 -278.000000 2337.000000 -278.000000 2337.000000 -278.000000z "/>
</g>
<g><path d="M 3295.000000 -42.000000 C 3295.000000 -248.666667 3295.000000 -455.333333 3295.000000 -662.000000 C 3295.000000 -671.333333 3294.666667 -681.666667 3294.000000 -693.000000 C 3293.333333 -704.333333 3292.333333 -715.666667 3291.000000 -727.000000 C 3285.666667 -753.666667 3275.666667 -777.666667 3261.000000 -799.000000 C 3246.333333 -821.000000 3220.666667 -832.000000 3184.000000 -832.000000 C 3167.333333 -832.000000 3152.333333 -829.333333 3139.000000 -824.000000 C 3126.333333 -818.666667 3115.000000 -812.666667 3105.000000 -806.000000 C 3099.666667 -802.000000 3094.666667 -798.333333 3090.000000 -795.000000 C 3086.000000 -792.333333 3082.666667 -789.666667 3080.000000 -787.000000 C 3080.000000 -539.333333 3080.000000 -291.666667 3080.000000 -44.000000 C 3080.000000 -26.000000 3076.333333 -14.000000 3069.000000 -8.000000 C 3062.333333 -2.666667 3052.000000 0.000000 3038.000000 0.000000 C 2964.333333 0.000000 2890.666667 0.000000 2817.000000 0.000000 C 2796.333333 0.000000 2783.333333 -3.333333 2778.000000 -10.000000 C 2773.333333 -17.333333 2771.000000 -29.333333 2771.000000 -46.000000 C 2771.000000 -500.000000 2771.000000 -954.000000 2771.000000 -1408.000000 C 2771.000000 -1433.333333 2774.333333 -1450.333333 2781.000000 -1459.000000 C 2788.333333 -1467.666667 2799.000000 -1472.000000 2813.000000 -1472.000000 C 2886.666667 -1472.000000 2960.333333 -1472.000000 3034.000000 -1472.000000 C 3050.666667 -1472.000000 3062.333333 -1468.666667 3069.000000 -1462.000000 C 3076.333333 -1456.000000 3080.000000 -1438.000000 3080.000000 -1408.000000 C 3080.000000 -1248.000000 3080.000000 -1088.000000 3080.000000 -928.000000 C 3086.666667 -933.333333 3094.000000 -939.000000 3102.000000 -945.000000 C 3110.666667 -951.666667 3120.666667 -958.000000 3132.000000 -964.000000 C 3154.666667 -980.000000 3183.000000 -994.000000 3217.000000 -1006.000000 C 3251.000000 -1018.000000 3291.666667 -1024.000000 3339.000000 -1024.000000 C 3357.000000 -1024.000000 3377.000000 -1022.333333 3399.000000 -1019.000000 C 3421.666667 -1015.666667 3444.666667 -1008.333333 3468.000000 -997.000000 C 3480.666667 -989.666667 3493.333333 -980.666667 3506.000000 -970.000000 C 3518.666667 -960.000000 3531.666667 -948.000000 3545.000000 -934.000000 C 3551.000000 -926.000000 3556.333333 -917.666667 3561.000000 -909.000000 C 3565.666667 -901.000000 3569.666667 -893.333333 3573.000000 -886.000000 C 3588.333333 -855.333333 3597.333333 -825.666667 3600.000000 -797.000000 C 3602.666667 -769.000000 3604.666667 -744.000000 3606.000000 -722.000000 C 3606.000000 -496.000000 3606.000000 -270.000000 3606.000000 -44.000000 C 3606.000000 -30.000000 3603.333333 -19.000000 3598.000000 -11.000000 C 3593.333333 -3.666667 3581.333333 0.000000 3562.000000 0.000000 C 3488.333333 0.000000 3414.666667 0.000000 3341.000000 0.000000 C 3324.333333 0.000000 3312.333333 -2.000000 3305.000000 -6.000000 C 3298.333333 -10.666667 3295.000000 -22.666667 3295.000000 -42.000000 C 3295.000000 -42.000000 3295.000000 -42.000000 3295.000000 -42.000000z "/>
</g>
</svg>
