<?xml version="1.0" encoding="utf-8"?>
<svg xmlns="http://www.w3.org/2000/svg" xmlns:ev="http://www.w3.org/2001/xml-events" xmlns:xlink="http://www.w3.org/1999/xlink" version="1.1" baseProfile="full" width="3608.0" height="1920.0" viewBox="-2.0 -1472.0 3608.0 1920.0">
<defs/>
<g><path d="M 3295.000000 -42.000000 C 3295.000000 -248.666667 3295.000000 -455.333333 3295.000000 -662.000000 C 3295.000000 -671.333333 3294.666667 -681.666667 3294.000000 -693.000000 C 3293.333333 -704.333333 3292.333333 -715.666667 3291.000000 -727.000000 C 3285.666667 -753.666667 3275.666667 -777.666667 3261.000000 -799.000000 C 3246.333333 -821.000000 3220.666667 -832.000000 3184.000000 -832.000000 C 3167.333333 -832.000000 3152.333333 -829.333333 3139.000000 -824.000000 C 3126.333333 -818.666667 3115.000000 -812.666667 3105.000000 -806.000000 C 3099.666667 -802.000000 3094.666667 -798.333333 3090.000000 -795.000000 C 3086.000000 -792.333333 3082.666667 -789.666667 3080.000000 -787.000000 C 3080.000000 -539.333333 3080.000000 -291.666667 3080.000000 -44.000000 C 3080.000000 -26.000000 3076.333333 -14.000000 3069.000000 -8.000000 C 3062.333333 -2.666667 3052.000000 0.000000 3038.000000 0.000000 C 2964.333333 0.000000 2890.666667 0.000000 2817.000000 0.000000 C 2796.333333 0.000000 2783.333333 -3.333333 2778.000000 -10.000000 C 2773.333333 -17.333333 2771.000000 -29.333333 2771.000000 -46.000000 C 2771.000000 -500.000000 2771.000000 -954.000000 2771.000000 -1408.000000 C 2771.000000 -1433.333333 2774.333333 -1450.333333 2781.000000 -1459.000000 C 2788.333333 -1467.666667 2799.000000 -1472.000000 2813.000000 -1472.000000 C 2886.666667 -1472.000000 2960.333333 -1472.000000 3034.000000 -1472.000000 C 3050.666667 -1472.000000 3062.333333 -1468.666667 3069.000000 -1462.000000 C 3076.333333 -1456.000000 3080.000000 -1438.000000 3080.000000 -1408.000000 C 3080.000000 -1248.000000 3080.000000 -1088.000000 3080.000000 -928.000000 C 3086.666667 -933.333333 3094.000000 -939.000000 3102.000000 -945.000000 C 3110.666667 -951.666667 3120.666667 -958.000000 3132.000000 -964.000000 C 3154.666667 -980.000000 3183.000000 -994.000000 3217.000000 -1006.000000 C 3251.000000 -1018.000000 3291.666667 -1024.000000 3339.000000 -1024.000000 C 3357.000000 -1024.000000 3377.000000 -1022.333333 3399.000000 -1019.000000 C 3421.666667 -1015.666667 3444.666667 -1008.333333 3468.000000 -997.000000 C 3480.666667 -989.666667 3493.333333 -980.666667 3506.000000 -970.000000 C 3518.666667 -960.000000 3531.666667 -948.000000 3545.000000 -934.000000 C 3551.000000 -926.000000 3556.333333 -917.666667 3561.000000 -909.000000 C 3565.666667 -901.000000 3569.666667 -893.333333 3573.000000 -886.000000 C 3588.333333 -855.333333 3597.333333 -825.666667 3600.000000 -797.000000 C 3602.666667 -769.000000 3604.666667 -744.000000 3606.000000 -722.000000 C 3606.000000 -496.000000 3606.000000 -270.000000 3606.000000 -44.000000 C 3606.000000 -30.000000 3603.333333 -19.000000 3598.000000 -11.000000 C 3593.333333 -3.666667 3581.333333 0.000000 3562.000000 0.000000 C 3488.333333 0.000000 3414.666667 0.000000 3341.000000 0.000000 C 3324.333333 0.000000 3312.333333 -2.000000 3305.000000 -6.000000 C 3298.333333 -10.666667 3295.000000 -22.666667 3295.000000 -42.000000 C 3295.000000 -42.000000 3295.000000 -42.000000 3295.000000 -42.000000z "/>
</g></svg>
