<?xml version="1.0" ?>
<svg xmlns="http://www.w3.org/2000/svg" version="1.1" width="600" height="600">
  <defs/>
  <g>
    <path stroke-width="0" fill="rgb(0, 0, 0)" opacity="1.0" d="M 170.3021240234375 389.75 C 170.3021240234375 341.6875 170.3021240234375 293.625 170.3021240234375 245.5625 C 170.3021240234375 239.1875 170.614501953125 234.25 171.2393798828125 230.75 C 171.8643798828125 227.25 173.6138916015625 224.1875 176.48828125 221.5625 C 176.86328125 221.0625 177.3631591796875 220.5 177.988037109375 219.875 C 178.6129150390625 219.25 179.30029296875 218.6875 180.050048828125 218.1875 C 184.04931640625 215.3125 188.7982177734375 212.9375 194.297119140625 211.0625 C 199.9210205078125 209.0625 205.607421875 207.5 211.356201171875 206.375 C 218.354736328125 204.75 224.9158935546875 203.625 231.03955078125 203.0 C 237.288330078125 202.375 242.4747314453125 202.0625 246.598876953125 202.0625 C 258.346435546875 202.0625 267.906982421875 203.3125 275.280517578125 205.8125 C 282.7789306640625 208.1875 288.8402099609375 210.8125 293.4642333984375 213.6875 C 295.8387451171875 215.0625 297.83837890625 216.4375 299.4630126953125 217.8125 C 301.212646484375 219.0625 302.6497802734375 220.3125 303.774658203125 221.5625 C 305.0242919921875 220.5625 306.2115478515625 219.625 307.33642578125 218.75 C 308.5860595703125 217.75 309.9608154296875 216.625 311.4605712890625 215.375 C 313.8349609375 213.75 316.8343505859375 212.1875 320.4586181640625 210.6875 C 324.2078857421875 209.0625 328.76953125 207.5 334.143310546875 206.0 C 339.6422119140625 204.625 345.26611328125 203.625 351.014892578125 203.0 C 356.763671875 202.375 362.637451171875 202.0625 368.63623046875 202.0625 C 387.38232421875 202.0625 400.942138671875 205.625 409.3153076171875 212.75 C 417.6885986328125 219.875 423.4375 227.875 426.561767578125 236.75 C 428.1864013671875 241.875 429.248779296875 247.0 429.7486572265625 252.125 C 430.24853515625 257.125 430.49853515625 261.1875 430.49853515625 264.3125 C 430.49853515625 306.0 430.49853515625 347.6875 430.49853515625 389.375 C 430.49853515625 392.25 430.06103515625 394.4375 429.186279296875 395.9375 C 428.4364013671875 397.3125 426.499267578125 398.0 423.375 398.0 C 409.3778076171875 398.0 395.3807373046875 398.0 381.3836669921875 398.0 C 378.25927734375 398.0 376.0721435546875 397.375 374.822509765625 396.125 C 373.6976318359375 394.75 373.13525390625 392.625 373.13525390625 389.75 C 373.13525390625 350.375 373.13525390625 311.0 373.13525390625 271.625 C 373.13525390625 270.125 373.13525390625 268.6875 373.13525390625 267.3125 C 373.13525390625 265.8125 373.0103759765625 264.375 372.7603759765625 263.0 C 372.5103759765625 257.75 371.0107421875 252.9375 368.2613525390625 248.5625 C 365.511962890625 244.1875 360.0755615234375 242.0 351.9521484375 242.0 C 347.328125 242.0 343.703857421875 242.6875 341.0794677734375 244.0625 C 338.4549560546875 245.3125 336.4554443359375 246.75 335.0806884765625 248.375 C 331.956298828125 251.25 330.1441650390625 254.4375 329.644287109375 257.9375 C 329.1444091796875 261.3125 328.8944091796875 265.875 328.8944091796875 271.625 C 328.8944091796875 311.0 328.8944091796875 350.375 328.8944091796875 389.75 C 328.8944091796875 392.875 328.33203125 395.0625 327.207275390625 396.3125 C 326.2073974609375 397.4375 324.0203857421875 398.0 320.6461181640625 398.0 C 307.5863037109375 398.0 294.5264892578125 398.0 281.4666748046875 398.0 C 278.3424072265625 398.0 275.9053955078125 397.5625 274.15576171875 396.6875 C 272.5311279296875 395.6875 271.71875 393.25 271.71875 389.375 C 271.71875 349.4375 271.71875 309.5 271.71875 269.5625 C 271.71875 265.9375 271.65625 263.0625 271.53125 260.9375 C 271.40625 258.6875 271.09375 256.75 270.593994140625 255.125 C 269.7191162109375 251.0 268.031982421875 247.8125 265.532470703125 245.5625 C 263.157958984375 243.3125 260.5335693359375 241.6875 257.6590576171875 240.6875 C 256.5343017578125 240.1875 255.28466796875 239.8125 253.909912109375 239.5625 C 252.53515625 239.3125 251.285400390625 239.1875 250.16064453125 239.1875 C 247.036376953125 239.1875 243.9744873046875 239.8125 240.97509765625 241.0625 C 237.9757080078125 242.1875 235.5386962890625 243.75 233.6640625 245.75 C 230.5396728515625 248.875 228.7275390625 252.25 228.2276611328125 255.875 C 227.727783203125 259.375 227.477783203125 263.4375 227.477783203125 268.0625 C 227.477783203125 308.375 227.477783203125 348.6875 227.477783203125 389.0 C 227.477783203125 392.125 226.9154052734375 394.4375 225.7906494140625 395.9375 C 224.7908935546875 397.3125 222.3538818359375 398.0 218.479736328125 398.0 C 205.294921875 398.0 192.110107421875 398.0 178.92529296875 398.0 C 175.801025390625 398.0 173.551513671875 397.5 172.1767578125 396.5 C 170.927001953125 395.375 170.3021240234375 393.125 170.3021240234375 389.75 C 170.3021240234375 389.75 170.3021240234375 389.75 170.3021240234375 389.75"/>
  </g>
</svg>
