<?xml version="1.0" encoding="utf-8"?>
<svg xmlns="http://www.w3.org/2000/svg" xmlns:ev="http://www.w3.org/2001/xml-events" xmlns:xlink="http://www.w3.org/1999/xlink" version="1.1" baseProfile="full" width="5745.0" height="1398.0" viewBox="94.0 -1375.0 5745.0 1398.0">
<defs/>
<g><path d="M 94.000000 -89.000000 C 94.000000 -483.000000 94.000000 -877.000000 94.000000 -1271.000000 C 94.000000 -1293.000000 97.000000 -1309.333333 103.000000 -1320.000000 C 109.666667 -1330.666667 121.333333 -1338.666667 138.000000 -1344.000000 C 160.000000 -1352.000000 200.000000 -1359.000000 258.000000 -1365.000000 C 316.666667 -1371.666667 383.000000 -1375.000000 457.000000 -1375.000000 C 536.333333 -1375.000000 610.333333 -1370.333333 679.000000 -1361.000000 C 748.333333 -1352.333333 808.666667 -1332.666667 860.000000 -1302.000000 C 901.333333 -1280.666667 936.666667 -1250.666667 966.000000 -1212.000000 C 995.333333 -1173.333333 1010.000000 -1124.666667 1010.000000 -1066.000000 C 1010.000000 -988.666667 989.666667 -925.000000 949.000000 -875.000000 C 909.000000 -825.000000 862.000000 -786.666667 808.000000 -760.000000 C 802.000000 -756.000000 795.333333 -752.333333 788.000000 -749.000000 C 781.333333 -745.666667 774.000000 -742.666667 766.000000 -740.000000 C 772.666667 -738.666667 779.333333 -737.333333 786.000000 -736.000000 C 793.333333 -734.666667 800.000000 -732.666667 806.000000 -730.000000 C 894.666667 -704.666667 960.666667 -658.666667 1004.000000 -592.000000 C 1047.333333 -526.000000 1069.000000 -452.333333 1069.000000 -371.000000 C 1069.000000 -289.666667 1048.333333 -220.000000 1007.000000 -162.000000 C 966.333333 -104.000000 912.000000 -59.666667 844.000000 -29.000000 C 804.666667 -12.333333 756.333333 0.333333 699.000000 9.000000 C 642.333333 18.333333 565.333333 23.000000 468.000000 23.000000 C 450.000000 23.000000 431.333333 22.666667 412.000000 22.000000 C 393.333333 21.333333 373.666667 21.000000 353.000000 21.000000 C 311.000000 18.333333 270.666667 15.333333 232.000000 12.000000 C 194.000000 9.333333 165.333333 5.333333 146.000000 0.000000 C 121.333333 -6.666667 106.666667 -16.333333 102.000000 -29.000000 C 98.000000 -41.666667 95.333333 -61.666667 94.000000 -89.000000 C 94.000000 -89.000000 94.000000 -89.000000 94.000000 -89.000000z M 422.000000 -638.000000 C 422.000000 -494.333333 422.000000 -350.666667 422.000000 -207.000000 C 438.666667 -205.666667 454.000000 -204.333333 468.000000 -203.000000 C 482.000000 -201.666667 495.333333 -201.000000 508.000000 -201.000000 C 521.333333 -201.000000 536.666667 -202.000000 554.000000 -204.000000 C 572.000000 -206.000000 590.000000 -209.333333 608.000000 -214.000000 C 616.000000 -216.666667 623.666667 -219.666667 631.000000 -223.000000 C 639.000000 -226.333333 646.666667 -230.666667 654.000000 -236.000000 C 672.000000 -248.666667 686.333333 -263.000000 697.000000 -279.000000 C 708.333333 -295.000000 716.333333 -311.333333 721.000000 -328.000000 C 726.333333 -342.000000 729.666667 -355.333333 731.000000 -368.000000 C 732.333333 -380.666667 733.000000 -392.666667 733.000000 -404.000000 C 733.000000 -412.000000 732.666667 -420.000000 732.000000 -428.000000 C 731.333333 -436.666667 730.333333 -444.666667 729.000000 -452.000000 C 726.333333 -468.666667 722.333333 -485.333333 717.000000 -502.000000 C 712.333333 -518.666667 705.000000 -534.000000 695.000000 -548.000000 C 691.000000 -553.333333 686.666667 -558.666667 682.000000 -564.000000 C 677.333333 -570.000000 672.000000 -575.666667 666.000000 -581.000000 C 650.666667 -596.333333 628.000000 -610.000000 598.000000 -622.000000 C 568.000000 -634.000000 526.666667 -640.000000 474.000000 -640.000000 C 467.333333 -640.000000 461.000000 -640.000000 455.000000 -640.000000 C 449.666667 -640.000000 444.333333 -640.000000 439.000000 -640.000000 C 435.666667 -640.000000 432.666667 -639.666667 430.000000 -639.000000 C 427.333333 -638.333333 424.666667 -638.000000 422.000000 -638.000000 C 422.000000 -638.000000 422.000000 -638.000000 422.000000 -638.000000z M 422.000000 -1210.000000 C 422.000000 -1073.000000 422.000000 -936.000000 422.000000 -799.000000 C 424.666667 -799.000000 427.333333 -799.000000 430.000000 -799.000000 C 432.666667 -799.000000 435.666667 -799.000000 439.000000 -799.000000 C 441.666667 -797.666667 445.000000 -797.000000 449.000000 -797.000000 C 453.000000 -797.000000 456.666667 -797.000000 460.000000 -797.000000 C 473.333333 -797.000000 487.000000 -797.666667 501.000000 -799.000000 C 515.000000 -800.333333 529.666667 -803.000000 545.000000 -807.000000 C 581.000000 -817.000000 614.000000 -838.000000 644.000000 -870.000000 C 674.000000 -902.000000 689.000000 -953.333333 689.000000 -1024.000000 C 689.000000 -1053.333333 684.666667 -1080.333333 676.000000 -1105.000000 C 668.000000 -1129.666667 655.666667 -1150.333333 639.000000 -1167.000000 C 627.666667 -1178.333333 615.000000 -1187.333333 601.000000 -1194.000000 C 587.666667 -1201.333333 574.000000 -1206.666667 560.000000 -1210.000000 C 548.666667 -1212.666667 537.000000 -1214.333333 525.000000 -1215.000000 C 513.666667 -1215.666667 503.000000 -1216.000000 493.000000 -1216.000000 C 480.333333 -1216.000000 468.000000 -1215.666667 456.000000 -1215.000000 C 444.666667 -1214.333333 433.333333 -1212.666667 422.000000 -1210.000000 C 422.000000 -1210.000000 422.000000 -1210.000000 422.000000 -1210.000000z "/>
</g></svg>
