<?xml version="1.0" encoding="utf-8"?>
<svg xmlns="http://www.w3.org/2000/svg" xmlns:ev="http://www.w3.org/2001/xml-events" xmlns:xlink="http://www.w3.org/1999/xlink" version="1.1" baseProfile="full" width="8087.0" height="1920.0" viewBox="40.0 -1472.0 8087.0 1920.0">
<defs/>
<g><path d="M 3853.000000 -980.000000 C 3853.000000 -669.333333 3853.000000 -358.666667 3853.000000 -48.000000 C 3853.000000 -27.333333 3849.000000 -14.000000 3841.000000 -8.000000 C 3833.666667 -2.666667 3821.666667 0.000000 3805.000000 0.000000 C 3729.333333 0.000000 3653.666667 0.000000 3578.000000 0.000000 C 3560.666667 0.000000 3550.000000 -4.000000 3546.000000 -12.000000 C 3542.000000 -20.666667 3540.000000 -32.000000 3540.000000 -46.000000 C 3540.000000 -358.000000 3540.000000 -670.000000 3540.000000 -982.000000 C 3540.000000 -996.000000 3542.000000 -1006.333333 3546.000000 -1013.000000 C 3550.666667 -1020.333333 3562.000000 -1024.000000 3580.000000 -1024.000000 C 3655.666667 -1024.000000 3731.333333 -1024.000000 3807.000000 -1024.000000 C 3825.000000 -1024.000000 3837.000000 -1021.000000 3843.000000 -1015.000000 C 3849.666667 -1009.666667 3853.000000 -998.000000 3853.000000 -980.000000 C 3853.000000 -980.000000 3853.000000 -980.000000 3853.000000 -980.000000z M 3848.000000 -1216.000000 C 3848.000000 -1172.000000 3832.666667 -1139.666667 3802.000000 -1119.000000 C 3772.000000 -1098.333333 3738.000000 -1088.000000 3700.000000 -1088.000000 C 3656.666667 -1088.000000 3619.000000 -1098.666667 3587.000000 -1120.000000 C 3555.666667 -1141.333333 3540.000000 -1172.666667 3540.000000 -1214.000000 C 3540.000000 -1249.333333 3553.000000 -1279.666667 3579.000000 -1305.000000 C 3605.666667 -1331.000000 3645.333333 -1344.000000 3698.000000 -1344.000000 C 3750.666667 -1344.000000 3788.333333 -1331.000000 3811.000000 -1305.000000 C 3834.333333 -1279.666667 3846.666667 -1250.000000 3848.000000 -1216.000000 C 3848.000000 -1216.000000 3848.000000 -1216.000000 3848.000000 -1216.000000z "/>
</g></svg>
