<?xml version="1.0" ?>
<svg xmlns="http://www.w3.org/2000/svg" version="1.1" width="600" height="600">
  <defs/>
  <g>
    <path stroke-width="0" fill="rgb(0, 0, 0)" opacity="1.0" d="M 175.199462890625 452.08154296875 C 175.199462890625 350.622314453125 175.199462890625 249.1630859375 175.199462890625 147.70388793945312 C 175.199462890625 142.03863525390625 175.9718017578125 137.83261108398438 177.51644897460938 135.08584594726562 C 179.23272705078125 132.33908081054688 182.2362060546875 130.27899169921875 186.52688598632812 128.90557861328125 C 192.19061279296875 126.84548950195312 202.48825073242188 125.04293823242188 217.41986083984375 123.49786376953125 C 232.5230712890625 121.7811279296875 249.60000610351562 120.92276000976562 268.650634765625 120.92276000976562 C 289.0743408203125 120.92276000976562 308.1249694824219 122.12445068359375 325.8026123046875 124.52789306640625 C 343.65185546875 126.7596435546875 359.18414306640625 131.82406616210938 372.39947509765625 139.72103881835938 C 383.0404052734375 145.214599609375 392.13665771484375 152.93994140625 399.688232421875 162.89700317382812 C 407.2398681640625 172.85406494140625 411.015625 185.38629150390625 411.015625 200.49356079101562 C 411.015625 220.40771484375 405.781005859375 236.80258178710938 395.311767578125 249.6781005859375 C 385.01409912109375 262.55364990234375 372.91436767578125 272.4248962402344 359.01251220703125 279.2918701171875 C 357.4678955078125 280.3218994140625 355.7515869140625 281.26611328125 353.86370849609375 282.12445068359375 C 352.1474304199219 282.98284912109375 350.259521484375 283.75537109375 348.20001220703125 284.44207763671875 C 349.916259765625 284.785400390625 351.6325378417969 285.1287841796875 353.34881591796875 285.47210693359375 C 355.2367248535156 285.8154296875 356.9530029296875 286.3304748535156 358.4976501464844 287.01715087890625 C 381.3240966796875 293.540771484375 398.31524658203125 305.3862609863281 409.47100830078125 322.55364990234375 C 420.6268310546875 339.54937744140625 426.2047119140625 358.519287109375 426.2047119140625 379.4635009765625 C 426.2047119140625 400.40771484375 420.88427734375 418.34765625 410.24334716796875 433.28326416015625 C 399.7740478515625 448.2188720703125 385.78643798828125 459.63519287109375 368.2803955078125 467.5322265625 C 358.1544189453125 471.82403564453125 345.7113952636719 475.0858154296875 330.951416015625 477.317626953125 C 316.36309814453125 479.7210693359375 296.54010009765625 480.9227294921875 271.4825134277344 480.9227294921875 C 266.84857177734375 480.9227294921875 262.0429992675781 480.8369140625 257.0657958984375 480.66522216796875 C 252.26022338867188 480.4935302734375 247.19720458984375 480.40771484375 241.87677001953125 480.40771484375 C 231.06423950195312 479.7210693359375 220.68075561523438 478.948486328125 210.72637939453125 478.090087890625 C 200.943603515625 477.4034423828125 193.56362915039062 476.3734130859375 188.58642578125 475.0 C 182.2362060546875 473.28326416015625 178.46038818359375 470.79400634765625 177.25900268554688 467.5322265625 C 176.229248046875 464.2703857421875 175.542724609375 459.12017822265625 175.199462890625 452.08154296875 C 175.199462890625 452.08154296875 175.199462890625 452.08154296875 175.199462890625 452.08154296875M 259.64019775390625 310.7081604003906 C 259.64019775390625 347.703857421875 259.64019775390625 384.6995849609375 259.64019775390625 421.6953125 C 263.930908203125 422.03863525390625 267.8783264160156 422.3819580078125 271.4825134277344 422.725341796875 C 275.086669921875 423.06866455078125 278.51922607421875 423.2403564453125 281.7801513671875 423.2403564453125 C 285.21270751953125 423.2403564453125 289.16015625 422.98284912109375 293.6224365234375 422.4677734375 C 298.25640869140625 421.9527587890625 302.89031982421875 421.09442138671875 307.5242919921875 419.8927001953125 C 309.58380126953125 419.20599365234375 311.5575256347656 418.4334716796875 313.4454345703125 417.5750732421875 C 315.50494384765625 416.71673583984375 317.47869873046875 415.600830078125 319.3665771484375 414.22747802734375 C 324.0005187988281 410.9656982421875 327.69049072265625 407.274658203125 330.4365539550781 403.154541015625 C 333.3542175292969 399.0343017578125 335.41375732421875 394.82830810546875 336.6151428222656 390.5364990234375 C 337.9881591796875 386.93133544921875 338.8463134765625 383.49786376953125 339.1895751953125 380.236083984375 C 339.5328063964844 376.9742431640625 339.7044372558594 373.8841552734375 339.7044372558594 370.9656982421875 C 339.7044372558594 368.90557861328125 339.61865234375 366.845458984375 339.4469909667969 364.785400390625 C 339.2753601074219 362.55364990234375 339.0179443359375 360.4935302734375 338.6746826171875 358.60516357421875 C 337.9881591796875 354.31329345703125 336.9583740234375 350.021484375 335.58538818359375 345.7296142578125 C 334.38397216796875 341.437744140625 332.49609375 337.4892578125 329.92169189453125 333.8841552734375 C 328.89190673828125 332.5107421875 327.7763366699219 331.1373291015625 326.574951171875 329.763916015625 C 325.37353515625 328.2188720703125 324.0005187988281 326.7596435546875 322.45587158203125 325.38629150390625 C 318.5084533691406 321.4377746582031 312.673095703125 317.91845703125 304.94989013671875 314.8283386230469 C 297.22662353515625 311.73822021484375 286.58575439453125 310.1931457519531 273.02716064453125 310.1931457519531 C 271.3108825683594 310.1931457519531 269.680419921875 310.1931457519531 268.1357727050781 310.1931457519531 C 266.76275634765625 310.1931457519531 265.3897399902344 310.1931457519531 264.0167236328125 310.1931457519531 C 263.1585693359375 310.1931457519531 262.38623046875 310.27899169921875 261.6997375488281 310.4506530761719 C 261.01324462890625 310.622314453125 260.32672119140625 310.7081604003906 259.64019775390625 310.7081604003906 C 259.64019775390625 310.7081604003906 259.64019775390625 310.7081604003906 259.64019775390625 310.7081604003906M 259.64019775390625 163.41201782226562 C 259.64019775390625 198.69100952148438 259.64019775390625 233.969970703125 259.64019775390625 269.2489318847656 C 260.32672119140625 269.2489318847656 261.01324462890625 269.2489318847656 261.6997375488281 269.2489318847656 C 262.38623046875 269.2489318847656 263.1585693359375 269.2489318847656 264.0167236328125 269.2489318847656 C 264.7032165527344 269.59228515625 265.56134033203125 269.76397705078125 266.59112548828125 269.76397705078125 C 267.6208801269531 269.76397705078125 268.5648193359375 269.76397705078125 269.4229736328125 269.76397705078125 C 272.85552978515625 269.76397705078125 276.3739013671875 269.59228515625 279.97808837890625 269.2489318847656 C 283.5822448730469 268.90557861328125 287.3580627441406 268.2188720703125 291.30548095703125 267.1888427734375 C 300.5733642578125 264.6137390136719 309.06890869140625 259.20599365234375 316.79217529296875 250.96566772460938 C 324.5154113769531 242.725341796875 328.37701416015625 229.5064697265625 328.37701416015625 211.30902099609375 C 328.37701416015625 203.75537109375 327.2614440917969 196.80258178710938 325.0302734375 190.45065307617188 C 322.97076416015625 184.09872436523438 319.795654296875 178.77682495117188 315.50494384765625 174.4849853515625 C 312.5872802734375 171.5665283203125 309.32635498046875 169.24893188476562 305.7221984863281 167.53219604492188 C 302.2896423339844 165.64376831054688 298.77130126953125 164.27041625976562 295.1671142578125 163.41201782226562 C 292.24945068359375 162.725341796875 289.2459716796875 162.296142578125 286.15667724609375 162.12448120117188 C 283.239013671875 161.95281982421875 280.4929504394531 161.86697387695312 277.9185485839844 161.86697387695312 C 274.6576232910156 161.86697387695312 271.4825134277344 161.95281982421875 268.3932189941406 162.12448120117188 C 265.47552490234375 162.296142578125 262.557861328125 162.725341796875 259.64019775390625 163.41201782226562 C 259.64019775390625 163.41201782226562 259.64019775390625 163.41201782226562 259.64019775390625 163.41201782226562"/>
  </g>
</svg>
