<?xml version="1.0" encoding="utf-8"?>
<svg xmlns="http://www.w3.org/2000/svg" xmlns:ev="http://www.w3.org/2001/xml-events" xmlns:xlink="http://www.w3.org/1999/xlink" version="1.1" baseProfile="full" width="8087.0" height="1920.0" viewBox="40.0 -1472.0 8087.0 1920.0">
<defs/>
<g><path d="M 5388.000000 -795.000000 C 5388.000000 -779.312500 5388.000000 -763.625000 5388.000000 -747.937500 C 5388.000000 -732.250000 5388.000000 -716.562500 5388.000000 -700.875000 C 5388.000000 -669.500000 5388.000000 -638.125000 5388.000000 -606.750000 C 5388.000000 -591.062500 5388.000000 -575.375000 5388.000000 -559.687500 C 5388.000000 -544.000000 5388.000000 -528.312500 5388.000000 -512.625000 C 5388.000000 -481.250000 5388.000000 -449.875000 5388.000000 -418.500000 C 5388.000000 -387.125000 5388.000000 -355.750000 5388.000000 -324.375000 C 5388.000000 -308.687500 5388.000000 -293.000000 5388.000000 -277.312500 C 5388.000000 -261.625000 5388.000000 -245.937500 5388.000000 -230.250000 C 5388.000000 -198.875000 5388.000000 -167.500000 5388.000000 -136.125000 C 5388.000000 -120.437500 5388.000000 -104.750000 5388.000000 -89.062500 C 5388.000000 -73.375000 5388.000000 -57.687500 5388.000000 -42.000000 C 5388.000000 -25.333333 5384.666667 -14.000000 5378.000000 -8.000000 C 5372.000000 -2.666667 5361.333333 0.000000 5346.000000 0.000000 C 5327.500000 0.000000 5309.000000 0.000000 5290.500000 0.000000 C 5272.000000 0.000000 5253.500000 0.000000 5235.000000 0.000000 C 5216.500000 0.000000 5198.000000 0.000000 5179.500000 0.000000 C 5161.000000 0.000000 5142.500000 0.000000 5124.000000 0.000000 C 5107.333333 0.000000 5095.666667 -2.666667 5089.000000 -8.000000 C 5083.000000 -14.000000 5080.000000 -26.000000 5080.000000 -44.000000 C 5080.000000 -60.645833 5080.000000 -77.291667 5080.000000 -93.937500 C 5080.000000 -110.583333 5080.000000 -127.229167 5080.000000 -143.875000 C 5080.000000 -160.520833 5080.000000 -177.166667 5080.000000 -193.812500 C 5080.000000 -210.458333 5080.000000 -227.104167 5080.000000 -243.750000 C 5080.000000 -260.395833 5080.000000 -277.041667 5080.000000 -293.687500 C 5080.000000 -310.333333 5080.000000 -326.979167 5080.000000 -343.625000 C 5080.000000 -360.270833 5080.000000 -376.916667 5080.000000 -393.562500 C 5080.000000 -410.208333 5080.000000 -426.854167 5080.000000 -443.500000 C 5080.000000 -460.145833 5080.000000 -476.791667 5080.000000 -493.437500 C 5080.000000 -510.083333 5080.000000 -526.729167 5080.000000 -543.375000 C 5080.000000 -560.020833 5080.000000 -576.666667 5080.000000 -593.312500 C 5080.000000 -609.958333 5080.000000 -626.604167 5080.000000 -643.250000 C 5080.000000 -659.895833 5080.000000 -676.541667 5080.000000 -693.187500 C 5080.000000 -709.833333 5080.000000 -726.479167 5080.000000 -743.125000 C 5080.000000 -759.770833 5080.000000 -776.416667 5080.000000 -793.062500 C 5080.000000 -809.708333 5080.000000 -826.354167 5080.000000 -843.000000 C 5080.000000 -875.000000 5083.666667 -898.333333 5091.000000 -913.000000 C 5099.000000 -928.333333 5114.000000 -941.666667 5136.000000 -953.000000 C 5160.000000 -965.666667 5186.666667 -976.000000 5216.000000 -984.000000 C 5246.000000 -992.666667 5276.333333 -1000.333333 5307.000000 -1007.000000 C 5327.000000 -1010.000000 5346.500000 -1012.583333 5365.500000 -1014.750000 C 5384.500000 -1016.916667 5403.000000 -1018.666667 5421.000000 -1020.000000 C 5457.666667 -1022.666667 5488.666667 -1024.000000 5514.000000 -1024.000000 C 5526.000000 -1024.000000 5543.000000 -1023.333333 5565.000000 -1022.000000 C 5587.666667 -1021.333333 5611.000000 -1018.333333 5635.000000 -1013.000000 C 5651.666667 -1009.000000 5667.583333 -1003.416667 5682.750000 -996.250000 C 5697.916667 -989.083333 5712.333333 -980.333333 5726.000000 -970.000000 C 5740.000000 -959.666667 5750.500000 -946.083333 5757.500000 -929.250000 C 5764.500000 -912.416667 5768.000000 -892.333333 5768.000000 -869.000000 C 5768.000000 -851.666667 5765.500000 -835.583333 5760.500000 -820.750000 C 5755.500000 -805.916667 5748.000000 -792.333333 5738.000000 -780.000000 C 5728.000000 -768.000000 5716.000000 -759.000000 5702.000000 -753.000000 C 5688.000000 -747.000000 5672.000000 -744.000000 5654.000000 -744.000000 C 5622.000000 -744.000000 5599.000000 -752.666667 5585.000000 -770.000000 C 5571.000000 -787.333333 5559.000000 -807.333333 5549.000000 -830.000000 C 5549.000000 -831.333333 5548.666667 -832.333333 5548.000000 -833.000000 C 5547.333333 -833.666667 5547.000000 -834.666667 5547.000000 -836.000000 C 5539.000000 -852.666667 5529.666667 -866.666667 5519.000000 -878.000000 C 5508.333333 -890.000000 5491.333333 -896.000000 5468.000000 -896.000000 C 5432.000000 -896.000000 5409.666667 -887.000000 5401.000000 -869.000000 C 5392.333333 -851.666667 5388.000000 -831.666667 5388.000000 -809.000000 C 5388.000000 -806.333333 5388.000000 -804.000000 5388.000000 -802.000000 C 5388.000000 -800.000000 5388.000000 -797.666667 5388.000000 -795.000000 C 5388.000000 -795.000000 5388.000000 -795.000000 5388.000000 -795.000000z "/>
</g></svg>
