<?xml version="1.0" ?>
<svg xmlns="http://www.w3.org/2000/svg" version="1.1" width="600" height="600">
  <defs/>
  <g>
    <path stroke-width="0" fill="rgb(0, 0, 0)" opacity="1.0" d="M 381.8095703125 189.75 C 372.9364013671875 192.6875 364.063232421875 195.625 355.1900634765625 198.5625 C 355.56494140625 199.5625 355.93994140625 200.5 356.3148193359375 201.375 C 356.689697265625 202.25 357.127197265625 203.375 357.6270751953125 204.75 C 358.876708984375 207.75 359.939208984375 211.4375 360.81396484375 215.8125 C 361.813720703125 220.1875 362.3135986328125 225.0625 362.3135986328125 230.4375 C 362.3135986328125 250.9375 356.2523193359375 266.375 344.1298828125 276.75 C 332.00732421875 287.125 318.6351318359375 293.5 304.01318359375 295.875 C 301.8885498046875 296.375 299.7015380859375 296.6875 297.451904296875 296.8125 C 295.327392578125 296.9375 293.202880859375 297.0 291.078369140625 297.0 C 287.4539794921875 297.0 283.954833984375 296.8125 280.5804443359375 296.4375 C 277.3310546875 296.0625 274.269287109375 295.625 271.394775390625 295.125 C 269.645263671875 297.625 268.1455078125 299.875 266.895751953125 301.875 C 265.77099609375 303.875 265.2086181640625 305.75 265.2086181640625 307.5 C 265.2086181640625 311.875 267.520751953125 314.5625 272.144775390625 315.5625 C 276.893798828125 316.5625 284.2047119140625 317.25 294.07763671875 317.625 C 294.70263671875 317.875 295.452392578125 318.0 296.3271484375 318.0 C 297.2020263671875 318.0 297.951904296875 318.0 298.57666015625 318.0 C 307.574951171875 318.4375 316.572998046875 318.875 325.5711669921875 319.3125 C 329.1954345703125 319.5625 333.694580078125 319.9375 339.068359375 320.4375 C 344.5673828125 320.9375 350.316162109375 321.9375 356.3148193359375 323.4375 C 365.43798828125 325.8125 373.811279296875 330.0 381.4346923828125 336.0 C 389.18310546875 341.875 393.0572509765625 350.8125 393.0572509765625 362.8125 C 393.0572509765625 367.1875 392.244873046875 372.1875 390.620361328125 377.8125 C 389.12060546875 383.4375 386.68359375 389.1875 383.309326171875 395.0625 C 376.3106689453125 406.5625 364.7506103515625 417.0625 348.62890625 426.5625 C 332.6322021484375 436.1875 310.2618408203125 441.0 281.517822265625 441.0 C 279.143310546875 441.0 274.5191650390625 440.8125 267.6456298828125 440.4375 C 260.7720947265625 440.0625 253.3985595703125 438.875 245.525146484375 436.875 C 236.402099609375 434.5 227.90380859375 430.3125 220.030517578125 424.3125 C 212.281982421875 418.3125 208.4078369140625 409.4375 208.4078369140625 397.6875 C 208.4078369140625 389.6875 211.0322265625 382.25 216.28125 375.375 C 221.5301513671875 368.5 228.966064453125 362.375 238.589111328125 357.0 C 237.33935546875 356.5 235.8397216796875 355.9375 234.090087890625 355.3125 C 232.46533203125 354.5625 230.8406982421875 353.5625 229.216064453125 352.3125 C 225.841796875 350.3125 222.7799072265625 347.4375 220.030517578125 343.6875 C 217.281005859375 339.8125 215.90625 334.625 215.90625 328.125 C 215.90625 319.875 218.9056396484375 312.0625 224.9044189453125 304.6875 C 230.9031982421875 297.1875 237.58935546875 290.5 244.9627685546875 284.625 C 245.712646484375 283.875 246.46240234375 283.25 247.21240234375 282.75 C 247.962158203125 282.125 248.6494140625 281.5625 249.2744140625 281.0625 C 242.6507568359375 277.6875 237.21435546875 273.875 232.96533203125 269.625 C 228.7161865234375 265.25 225.404296875 260.625 223.02978515625 255.75 C 219.655517578125 249.0 217.593505859375 242.6875 216.843505859375 236.8125 C 216.21875 230.8125 215.90625 226.5 215.90625 223.875 C 215.90625 207.75 221.5301513671875 193.0 232.77783203125 179.625 C 244.0255126953125 166.25 262.834228515625 159.5625 289.20361328125 159.5625 C 296.2022705078125 159.5625 302.138427734375 160.0 307.012451171875 160.875 C 312.011474609375 161.75 316.322998046875 162.75 319.947265625 163.875 C 320.8221435546875 164.125 321.759521484375 164.4375 322.75927734375 164.8125 C 323.759033203125 165.1875 324.6964111328125 165.5 325.5711669921875 165.75 C 327.82080078125 166.75 329.8203125 167.5625 331.5699462890625 168.1875 C 333.319580078125 168.6875 335.0692138671875 169.0625 336.81884765625 169.3125 C 338.193603515625 169.8125 339.630859375 170.125 341.1304931640625 170.25 C 342.755126953125 170.375 344.5673828125 170.4375 346.56689453125 170.4375 C 348.19140625 170.4375 349.628662109375 170.375 350.87841796875 170.25 C 352.253173828125 170.125 353.6904296875 169.9375 355.1900634765625 169.6875 C 355.81494140625 169.4375 356.5023193359375 169.25 357.252197265625 169.125 C 358.001953125 169.0 358.7518310546875 168.9375 359.501708984375 168.9375 C 359.8765869140625 168.9375 361.06396484375 168.6875 363.0634765625 168.1875 C 365.06298828125 167.6875 367.2501220703125 167.25 369.62451171875 166.875 C 371.9990234375 166.375 374.186279296875 165.9375 376.185791015625 165.5625 C 378.310302734375 165.1875 379.43505859375 165.0 379.56005859375 165.0 C 380.559814453125 165.0 381.3720703125 165.25 381.9970703125 165.75 C 382.6219482421875 166.25 383.059326171875 166.8125 383.309326171875 167.4375 C 383.559326171875 167.9375 383.7467041015625 168.375 383.87158203125 168.75 C 383.99658203125 169.125 384.05908203125 169.4375 384.05908203125 169.6875 C 384.18408203125 170.1875 384.30908203125 170.625 384.43408203125 171.0 C 384.55908203125 171.375 384.62158203125 171.8125 384.62158203125 172.3125 C 384.8714599609375 172.8125 385.0589599609375 173.375 385.183837890625 174.0 C 385.308837890625 174.5 385.371337890625 175.0 385.371337890625 175.5 C 385.8712158203125 177.5 386.30859375 179.4375 386.68359375 181.3125 C 387.05859375 183.0625 387.2459716796875 184.1875 387.2459716796875 184.6875 C 387.2459716796875 185.6875 387.05859375 186.4375 386.68359375 186.9375 C 386.30859375 187.4375 385.621337890625 188.0 384.62158203125 188.625 C 384.37158203125 188.875 383.99658203125 189.0625 383.496826171875 189.1875 C 383.121826171875 189.3125 382.5594482421875 189.5 381.8095703125 189.75 C 381.8095703125 189.75 381.8095703125 189.75 381.8095703125 189.75M 263.708984375 363.75 C 261.33447265625 366.25 259.1473388671875 369.0 257.147705078125 372.0 C 255.273193359375 375.0 254.3359375 378.375 254.3359375 382.125 C 254.3359375 382.375 254.3359375 382.6875 254.3359375 383.0625 C 254.3359375 383.4375 254.3359375 383.75 254.3359375 384.0 C 255.085693359375 389.625 258.6474609375 394.8125 265.021240234375 399.5625 C 271.394775390625 404.3125 281.767822265625 406.6875 296.1397705078125 406.6875 C 307.88720703125 406.6875 318.32275390625 404.4375 327.44580078125 399.9375 C 336.56884765625 395.4375 341.1304931640625 389.5 341.1304931640625 382.125 C 341.1304931640625 377.125 339.505859375 373.625 336.2564697265625 371.625 C 333.007080078125 369.625 329.3204345703125 368.25 325.1962890625 367.5 C 324.071533203125 367.25 322.88427734375 367.0625 321.634521484375 366.9375 C 320.509765625 366.8125 319.322509765625 366.625 318.07275390625 366.375 C 316.1981201171875 366.125 312.5738525390625 365.875 307.199951171875 365.625 C 301.9510498046875 365.375 296.4521484375 365.125 290.703369140625 364.875 C 284.95458984375 364.75 279.5181884765625 364.5625 274.394287109375 364.3125 C 269.395263671875 364.0625 265.83349609375 363.8125 263.708984375 363.5625 C 263.708984375 363.625 263.708984375 363.6875 263.708984375 363.75M 310.57421875 220.125 C 310.32421875 219.125 310.074462890625 218.1875 309.824462890625 217.3125 C 309.574462890625 216.3125 309.386962890625 215.25 309.261962890625 214.125 C 307.512451171875 207.875 304.762939453125 202.125 301.013671875 196.875 C 297.389404296875 191.625 292.5780029296875 189.0 286.5792236328125 189.0 C 281.205322265625 189.0 276.456298828125 191.5 272.3321533203125 196.5 C 268.3330078125 201.5 266.3333740234375 208.6875 266.3333740234375 218.0625 C 266.3333740234375 220.3125 266.458251953125 222.5625 266.708251953125 224.8125 C 266.958251953125 227.0625 267.333251953125 229.4375 267.8330078125 231.9375 C 269.207763671875 239.4375 271.957275390625 246.4375 276.081298828125 252.9375 C 280.20556640625 259.4375 285.4544677734375 262.6875 291.828125 262.6875 C 298.82666015625 262.6875 303.88818359375 259.875 307.012451171875 254.25 C 310.1368408203125 248.5 311.698974609375 241.875 311.698974609375 234.375 C 311.698974609375 233.0 311.698974609375 231.8125 311.698974609375 230.8125 C 311.698974609375 229.6875 311.5740966796875 228.4375 311.3240966796875 227.0625 C 311.3240966796875 225.9375 311.2615966796875 224.8125 311.13671875 223.6875 C 311.01171875 222.4375 310.82421875 221.25 310.57421875 220.125 C 310.57421875 220.125 310.57421875 220.125 310.57421875 220.125"/>
  </g>
</svg>
