<?xml version="1.0" ?>
<svg xmlns="http://www.w3.org/2000/svg" version="1.1" width="600" height="600">
  <defs/>
  <g>
    <path stroke-width="0" fill="rgb(0, 0, 0)" opacity="1.0" d="M 211.997802734375 255.5994873046875 C 199.99114990234375 290.88140869140625 187.9844970703125 326.163330078125 175.97784423828125 361.4453125 C 175.379150390625 363.16961669921875 174.68072509765625 365.02655029296875 173.88247680664062 367.01611328125 C 173.15078735351562 369.0057373046875 172.25277709960938 371.0284423828125 171.1884765625 373.0843505859375 C 168.5277099609375 378.7215576171875 164.80267333984375 383.861328125 160.0133056640625 388.503662109375 C 155.22393798828125 393.21234130859375 148.4722900390625 395.566650390625 139.75830078125 395.566650390625 C 133.1064453125 395.566650390625 128.2838134765625 394.0081787109375 125.29046630859375 390.89111328125 C 122.297119140625 387.774169921875 120.80044555664062 384.358642578125 120.80044555664062 380.644775390625 C 120.80044555664062 377.328857421875 121.89801025390625 374.44390869140625 124.0931396484375 371.9901123046875 C 126.35476684570312 369.60260009765625 129.1485595703125 368.4088134765625 132.4744873046875 368.4088134765625 C 133.60531616210938 368.4088134765625 134.66961669921875 368.54150390625 135.66741943359375 368.8067626953125 C 136.73171997070312 369.072021484375 137.7294921875 369.30419921875 138.6607666015625 369.50311279296875 C 139.65853881835938 369.9010009765625 140.49002075195312 370.26580810546875 141.15521240234375 370.597412109375 C 141.88690185546875 370.928955078125 142.65188598632812 371.09478759765625 143.45010375976562 371.09478759765625 C 143.7161865234375 371.2274169921875 143.91574096679688 371.29376220703125 144.04876708984375 371.29376220703125 C 144.24835205078125 371.29376220703125 144.48114013671875 371.29376220703125 144.74722290039062 371.29376220703125 C 147.20843505859375 371.29376220703125 149.23724365234375 370.0999755859375 150.83370971679688 367.7125244140625 C 152.43014526367188 365.391357421875 153.92681884765625 361.9427490234375 155.32373046875 357.36669921875 C 155.72283935546875 356.37188720703125 156.02218627929688 355.34393310546875 156.22174072265625 354.2828369140625 C 156.48779296875 353.2216796875 156.82040405273438 352.12744140625 157.21951293945312 351.0 C 145.51220703125 319.133544921875 133.80487060546875 287.2669677734375 122.09756469726562 255.4005126953125 C 121.76495361328125 254.14044189453125 121.53216552734375 253.3446044921875 121.39910888671875 253.01300048828125 C 121.26608276367188 252.6151123046875 121.19955444335938 252.28350830078125 121.19955444335938 252.0181884765625 C 121.19955444335938 252.0181884765625 121.19955444335938 251.985107421875 121.19955444335938 251.91876220703125 C 121.19955444335938 251.8524169921875 121.19955444335938 251.81927490234375 121.19955444335938 251.81927490234375 C 121.19955444335938 250.89080810546875 121.432373046875 250.2607421875 121.89801025390625 249.92919921875 C 122.43014526367188 249.53125 122.96231079101562 249.332275390625 123.49444580078125 249.332275390625 C 123.8935546875 249.19964599609375 124.19290161132812 249.13330078125 124.3924560546875 249.13330078125 C 124.65853881835938 249.13330078125 124.92462158203125 249.13330078125 125.190673828125 249.13330078125 C 132.94012451171875 249.13330078125 140.6895751953125 249.13330078125 148.43902587890625 249.13330078125 C 149.96896362304688 249.13330078125 151.0 249.2659912109375 151.53216552734375 249.53125 C 152.13082885742188 249.7965087890625 152.62969970703125 250.492919921875 153.02880859375 251.62030029296875 C 153.161865234375 251.8856201171875 153.26165771484375 252.18402099609375 153.32815551757812 252.515625 C 153.39468383789062 252.7808837890625 153.46121215820312 253.11248779296875 153.5277099609375 253.5103759765625 C 159.1485595703125 273.1409912109375 164.7694091796875 292.77154541015625 170.3902587890625 312.402099609375 C 176.14413452148438 292.970458984375 181.89801025390625 273.53887939453125 187.65188598632812 254.1072998046875 C 187.784912109375 253.57672119140625 187.91796875 253.11248779296875 188.05099487304688 252.714599609375 C 188.18402099609375 252.2503662109375 188.38360595703125 251.8856201171875 188.649658203125 251.62030029296875 C 189.04876708984375 250.62548828125 189.48114013671875 249.96234130859375 189.94677734375 249.6307373046875 C 190.47894287109375 249.29913330078125 191.44345092773438 249.13330078125 192.84036254882812 249.13330078125 C 198.0953369140625 249.13330078125 203.350341796875 249.13330078125 208.60531616210938 249.13330078125 C 208.87139892578125 249.13330078125 209.07095336914062 249.13330078125 209.2039794921875 249.13330078125 C 209.403564453125 249.13330078125 209.6363525390625 249.13330078125 209.90243530273438 249.13330078125 C 210.567626953125 249.2659912109375 211.19955444335938 249.49810791015625 211.7982177734375 249.8297119140625 C 212.46340942382812 250.1612548828125 212.7960205078125 250.89080810546875 212.7960205078125 252.0181884765625 C 212.7960205078125 252.4161376953125 212.76275634765625 252.88037109375 212.69622802734375 253.41094970703125 C 212.62969970703125 253.87518310546875 212.39691162109375 254.60467529296875 211.997802734375 255.5994873046875 C 211.997802734375 255.5994873046875 211.997802734375 255.5994873046875 211.997802734375 255.5994873046875"/>
    <path stroke-width="0" fill="rgb(0, 0, 0)" opacity="1.0" d="M 289.72503662109375 294.7943115234375 C 273.2283935546875 297.082275390625 256.7317199707031 299.37030029296875 240.23504638671875 301.6583251953125 C 240.5010986328125 302.7857666015625 240.80044555664062 304.0789794921875 241.133056640625 305.53802490234375 C 241.46563720703125 306.93072509765625 241.96453857421875 308.3565673828125 242.62969970703125 309.81561279296875 C 242.69622802734375 310.2135009765625 242.7960205078125 310.57830810546875 242.92904663085938 310.909912109375 C 243.06207275390625 311.1751708984375 243.19512939453125 311.4404296875 243.32815551757812 311.7056884765625 C 245.52328491210938 315.61859130859375 248.45013427734375 318.735595703125 252.108642578125 321.0567626953125 C 255.83370971679688 323.3116455078125 260.0576477050781 324.4390869140625 264.7804870605469 324.4390869140625 C 268.6385803222656 324.4390869140625 272.0643005371094 323.74267578125 275.0576477050781 322.3499755859375 C 278.0509948730469 320.957275390625 280.5787353515625 319.43194580078125 282.64080810546875 317.77392578125 C 282.9068603515625 317.5086669921875 283.2062072753906 317.210205078125 283.538818359375 316.878662109375 C 283.87139892578125 316.54705810546875 284.1374816894531 316.28173828125 284.3370361328125 316.08282470703125 C 285.66741943359375 314.623779296875 286.69842529296875 313.56268310546875 287.43017578125 312.89947509765625 C 288.2283935546875 312.169921875 288.92681884765625 311.639404296875 289.5255126953125 311.30780029296875 C 289.92462158203125 311.04254150390625 290.32373046875 310.876708984375 290.72283935546875 310.8104248046875 C 291.1219482421875 310.744140625 291.5543212890625 310.7109375 292.01995849609375 310.7109375 C 293.5498962402344 310.7109375 294.91351318359375 311.30780029296875 296.1108703613281 312.5015869140625 C 297.3082275390625 313.6953125 297.9068603515625 315.51910400390625 297.9068603515625 317.972900390625 C 297.9068603515625 319.23297119140625 297.50775146484375 321.38836669921875 296.70953369140625 324.4390869140625 C 295.91131591796875 327.48974609375 294.48114013671875 330.673095703125 292.4190673828125 333.98907470703125 C 289.75830078125 338.2998046875 285.8669738769531 342.212646484375 280.7449951171875 345.72760009765625 C 275.623046875 349.2425537109375 268.7051086425781 351.0 259.99114990234375 351.0 C 243.42794799804688 351.0 231.78713989257812 345.82708740234375 225.0687255859375 335.48126220703125 C 218.350341796875 325.069091796875 214.85809326171875 313.6290283203125 214.59201049804688 301.16094970703125 C 214.59201049804688 300.829345703125 214.59201049804688 300.5308837890625 214.59201049804688 300.265625 C 214.59201049804688 300.0003662109375 214.59201049804688 299.735107421875 214.59201049804688 299.46978759765625 C 214.59201049804688 283.0888671875 218.51663208007812 271.0518798828125 226.3658447265625 263.35888671875 C 234.215087890625 255.5994873046875 242.82928466796875 251.05657958984375 252.20843505859375 249.730224609375 C 253.4722900390625 249.4649658203125 254.702880859375 249.29913330078125 255.90020751953125 249.2327880859375 C 257.0975646972656 249.16650390625 258.294921875 249.13330078125 259.49224853515625 249.13330078125 C 268.6718444824219 249.13330078125 275.88916015625 251.189208984375 281.1441345214844 255.301025390625 C 286.46563720703125 259.3465576171875 290.42352294921875 263.8231201171875 293.01776123046875 268.730712890625 C 294.68072509765625 272.04669189453125 295.84478759765625 275.23004150390625 296.5099792480469 278.28076171875 C 297.24169921875 281.3314208984375 297.6075439453125 283.7520751953125 297.6075439453125 285.542724609375 C 297.6075439453125 288.527099609375 297.0421142578125 290.61614990234375 295.91131591796875 291.8099365234375 C 294.8470153808594 292.93731689453125 293.68292236328125 293.766357421875 292.4190673828125 294.296875 C 291.88690185546875 294.42950439453125 291.3880310058594 294.52899169921875 290.9223937988281 294.5953369140625 C 290.5232849121094 294.66162109375 290.1241760253906 294.7279052734375 289.72503662109375 294.7943115234375 C 289.72503662109375 294.7943115234375 289.72503662109375 294.7943115234375 289.72503662109375 294.7943115234375M 238.3392333984375 289.8203125 C 248.25054931640625 288.36126708984375 258.161865234375 286.9022216796875 268.07318115234375 285.4432373046875 C 267.674072265625 280.99981689453125 266.809326171875 277.6175537109375 265.47894287109375 275.29638671875 C 264.1485595703125 272.9088134765625 262.7184143066406 271.1845703125 261.1884765625 270.1234130859375 C 259.79156494140625 269.26129150390625 258.4279479980469 268.730712890625 257.0975646972656 268.53173828125 C 255.83370971679688 268.33282470703125 254.93569946289062 268.23333740234375 254.403564453125 268.23333740234375 C 248.81597900390625 268.23333740234375 244.75833129882812 270.4881591796875 242.2305908203125 274.9979248046875 C 239.7694091796875 279.4412841796875 238.4722900390625 284.382080078125 238.3392333984375 289.8203125 C 238.3392333984375 289.8203125 238.3392333984375 289.8203125 238.3392333984375 289.8203125"/>
    <path stroke-width="0" fill="rgb(0, 0, 0)" opacity="1.0" d="M 382.7183837890625 273.40625 C 382.7183837890625 291.511474609375 382.7183837890625 309.61669921875 382.7183837890625 327.72186279296875 C 382.7183837890625 328.38507080078125 382.7183837890625 329.1146240234375 382.7183837890625 329.910400390625 C 382.7183837890625 330.639892578125 382.65185546875 331.402587890625 382.51885986328125 332.19842529296875 C 382.3858642578125 333.657470703125 382.1197509765625 335.116455078125 381.7205810546875 336.5755615234375 C 381.3880615234375 337.96826171875 380.6895751953125 339.3277587890625 379.625244140625 340.6541748046875 C 379.292724609375 341.1846923828125 378.8603515625 341.71527099609375 378.328125 342.245849609375 C 377.7960205078125 342.7100830078125 377.1640625 343.20745849609375 376.432373046875 343.738037109375 C 373.705078125 345.6612548828125 369.74725341796875 347.3524169921875 364.55877685546875 348.81146240234375 C 359.43682861328125 350.2705078125 352.8514404296875 351.0 344.80267333984375 351.0 C 343.00665283203125 351.0 340.2794189453125 350.9337158203125 336.620849609375 350.801025390625 C 333.02880859375 350.60205078125 329.23724365234375 349.93890380859375 325.2461242675781 348.81146240234375 C 319.85809326171875 347.485107421875 314.9356994628906 345.03125 310.47894287109375 341.45001220703125 C 306.0221862792969 337.8687744140625 303.7937927246094 332.3642578125 303.7937927246094 324.93646240234375 C 303.7937927246094 313.46319580078125 308.8492431640625 305.6043701171875 318.9600830078125 301.35986328125 C 329.1374816894531 297.115478515625 340.3126220703125 293.733154296875 352.485595703125 291.2130126953125 C 352.81817626953125 291.08038330078125 353.11749267578125 290.98089599609375 353.38360595703125 290.91455078125 C 353.649658203125 290.8482666015625 353.915771484375 290.8150634765625 354.18182373046875 290.8150634765625 C 354.18182373046875 287.73126220703125 354.18182373046875 284.64739990234375 354.18182373046875 281.56353759765625 C 354.18182373046875 280.9666748046875 354.18182373046875 280.336669921875 354.18182373046875 279.6734619140625 C 354.18182373046875 279.01025390625 354.11529541015625 278.38018798828125 353.9822998046875 277.7833251953125 C 353.8492431640625 275.39581298828125 353.21728515625 273.207275390625 352.08648681640625 271.21771240234375 C 350.9556884765625 269.2281494140625 348.59423828125 268.23333740234375 345.002197265625 268.23333740234375 C 342.4744873046875 268.23333740234375 340.47894287109375 268.79705810546875 339.0155029296875 269.9244384765625 C 337.61865234375 271.0518798828125 336.5543212890625 272.34515380859375 335.8226318359375 273.80419921875 C 335.5565185546875 274.4010009765625 335.29046630859375 274.9647216796875 335.0244140625 275.49530029296875 C 334.75830078125 275.95953369140625 334.592041015625 276.4569091796875 334.5255126953125 276.98748779296875 C 334.5255126953125 277.1201171875 334.49224853515625 277.2196044921875 334.42572021484375 277.28594970703125 C 334.35919189453125 277.352294921875 334.325927734375 277.45172119140625 334.325927734375 277.5843505859375 C 333.26165771484375 280.1044921875 331.89801025390625 282.4588623046875 330.23504638671875 284.64739990234375 C 328.5720520019531 286.8359375 325.6452331542969 287.93017578125 321.45452880859375 287.93017578125 C 317.26385498046875 287.93017578125 314.0376892089844 286.70330810546875 311.77606201171875 284.24951171875 C 309.514404296875 281.7293701171875 308.38360595703125 278.8775634765625 308.38360595703125 275.69427490234375 C 308.38360595703125 274.8984375 308.4501037597656 274.1357421875 308.5831298828125 273.40625 C 308.7161865234375 272.61041259765625 308.915771484375 271.8477783203125 309.18182373046875 271.11822509765625 C 310.7117614746094 265.0831298828125 314.80267333984375 259.1475830078125 321.45452880859375 253.31146240234375 C 328.1064453125 247.475341796875 337.6851806640625 244.5572509765625 350.190673828125 244.5572509765625 C 351.7205810546875 244.5572509765625 353.31707763671875 244.5904541015625 354.98004150390625 244.65673828125 C 356.64300537109375 244.72308349609375 358.30596923828125 244.888916015625 359.968994140625 245.1541748046875 C 362.0975341796875 245.48577880859375 364.2261962890625 245.983154296875 366.354736328125 246.6463623046875 C 368.4833984375 247.3095703125 370.41241455078125 248.1385498046875 372.14190673828125 249.13330078125 C 374.73614501953125 250.857666015625 376.76495361328125 252.7808837890625 378.2283935546875 254.90313720703125 C 379.6917724609375 256.95904541015625 380.756103515625 259.08123779296875 381.4212646484375 261.269775390625 C 382.01995849609375 263.524658203125 382.3858642578125 265.71319580078125 382.51885986328125 267.83544921875 C 382.65185546875 269.891357421875 382.7183837890625 271.748291015625 382.7183837890625 273.40625 C 382.7183837890625 273.40625 382.7183837890625 273.40625 382.7183837890625 273.40625M 354.18182373046875 323.34478759765625 C 354.18182373046875 315.61859130859375 354.18182373046875 307.892333984375 354.18182373046875 300.1661376953125 C 348.92681884765625 301.8240966796875 344.104248046875 303.9132080078125 339.7139892578125 306.433349609375 C 335.32373046875 308.88714599609375 333.12860107421875 313.6290283203125 333.12860107421875 320.6588134765625 C 333.12860107421875 325.23486328125 334.12640380859375 328.650390625 336.1219482421875 330.90521240234375 C 338.18408203125 333.09375 340.51220703125 334.45330810546875 343.1064453125 334.98388671875 C 343.50555419921875 334.98388671875 343.838134765625 335.0169677734375 344.104248046875 335.0833740234375 C 344.436767578125 335.149658203125 344.80267333984375 335.18280029296875 345.2017822265625 335.18280029296875 C 348.26165771484375 335.18280029296875 350.3902587890625 334.386962890625 351.58758544921875 332.7952880859375 C 352.784912109375 331.20361328125 353.5831298828125 329.51251220703125 353.9822998046875 327.72186279296875 C 354.11529541015625 326.926025390625 354.18182373046875 326.163330078125 354.18182373046875 325.433837890625 C 354.18182373046875 324.6380615234375 354.18182373046875 323.941650390625 354.18182373046875 323.34478759765625 C 354.18182373046875 323.34478759765625 354.18182373046875 323.34478759765625 354.18182373046875 323.34478759765625"/>
    <path stroke-width="0" fill="rgb(0, 0, 0)" opacity="1.0" d="M 449.7694091796875 346.8218994140625 C 449.7694091796875 326.2628173828125 449.7694091796875 305.703857421875 449.7694091796875 285.144775390625 C 449.7694091796875 284.21630859375 449.73614501953125 283.1883544921875 449.66961669921875 282.0609130859375 C 449.60308837890625 280.9334716796875 449.5032958984375 279.80609130859375 449.37030029296875 278.67864990234375 C 448.838134765625 276.02587890625 447.84033203125 273.63836669921875 446.376953125 271.51611328125 C 444.91351318359375 269.32763671875 442.3525390625 268.23333740234375 438.69403076171875 268.23333740234375 C 437.031005859375 268.23333740234375 435.53436279296875 268.49859619140625 434.2039794921875 269.0291748046875 C 432.94012451171875 269.5596923828125 431.809326171875 270.1566162109375 430.8115234375 270.81982421875 C 430.2794189453125 271.21771240234375 429.780517578125 271.58245849609375 429.3148193359375 271.9140625 C 428.915771484375 272.1793212890625 428.5831298828125 272.444580078125 428.31707763671875 272.70989990234375 C 428.31707763671875 297.3475341796875 428.31707763671875 321.9852294921875 428.31707763671875 346.6229248046875 C 428.31707763671875 348.41357421875 427.951171875 349.6072998046875 427.219482421875 350.20416259765625 C 426.5543212890625 350.7347412109375 425.5233154296875 351.0 424.12640380859375 351.0 C 416.77606201171875 351.0 409.42572021484375 351.0 402.07537841796875 351.0 C 400.0133056640625 351.0 398.7161865234375 350.66839599609375 398.18408203125 350.0052490234375 C 397.7183837890625 349.27569580078125 397.485595703125 348.0819091796875 397.485595703125 346.4239501953125 C 397.485595703125 301.2603759765625 397.485595703125 256.09686279296875 397.485595703125 210.933349609375 C 397.485595703125 208.4132080078125 397.81817626953125 206.7220458984375 398.4833984375 205.85986328125 C 399.215087890625 204.99774169921875 400.2794189453125 204.566650390625 401.67626953125 204.566650390625 C 409.026611328125 204.566650390625 416.376953125 204.566650390625 423.727294921875 204.566650390625 C 425.3902587890625 204.566650390625 426.5543212890625 204.89825439453125 427.219482421875 205.56146240234375 C 427.951171875 206.1583251953125 428.31707763671875 207.948974609375 428.31707763671875 210.933349609375 C 428.31707763671875 226.8499755859375 428.31707763671875 242.76666259765625 428.31707763671875 258.683349609375 C 428.9822998046875 258.15277099609375 429.7139892578125 257.58905029296875 430.51220703125 256.9921875 C 431.376953125 256.3289794921875 432.374755859375 255.698974609375 433.50555419921875 255.10205078125 C 435.7672119140625 253.5103759765625 438.59423828125 252.11767578125 441.9866943359375 250.9239501953125 C 445.379150390625 249.730224609375 449.43682861328125 249.13330078125 454.15966796875 249.13330078125 C 455.9556884765625 249.13330078125 457.95123291015625 249.29913330078125 460.1463623046875 249.6307373046875 C 462.407958984375 249.96234130859375 464.702880859375 250.69183349609375 467.031005859375 251.81927490234375 C 468.294921875 252.54876708984375 469.5587158203125 253.444091796875 470.8226318359375 254.50518798828125 C 472.08648681640625 255.5 473.38360595703125 256.6937255859375 474.7139892578125 258.08642578125 C 475.3126220703125 258.88232421875 475.84478759765625 259.7113037109375 476.3104248046875 260.57342529296875 C 476.77606201171875 261.3692626953125 477.1751708984375 262.1319580078125 477.50775146484375 262.8614501953125 C 479.0377197265625 265.91217041015625 479.9356689453125 268.8634033203125 480.2017822265625 271.715087890625 C 480.4678955078125 274.50048828125 480.66741943359375 276.98748779296875 480.8004150390625 279.176025390625 C 480.8004150390625 301.6583251953125 480.8004150390625 324.140625 480.8004150390625 346.6229248046875 C 480.8004150390625 348.015625 480.53436279296875 349.10986328125 480.002197265625 349.90576171875 C 479.53662109375 350.63525390625 478.3392333984375 351.0 476.41021728515625 351.0 C 469.05987548828125 351.0 461.70953369140625 351.0 454.3592529296875 351.0 C 452.69622802734375 351.0 451.4989013671875 350.801025390625 450.7672119140625 350.40313720703125 C 450.10198974609375 349.93890380859375 449.7694091796875 348.7451171875 449.7694091796875 346.8218994140625 C 449.7694091796875 346.8218994140625 449.7694091796875 346.8218994140625 449.7694091796875 346.8218994140625"/>
  </g>
</svg>
