<?xml version="1.0" encoding="utf-8"?>
<svg xmlns="http://www.w3.org/2000/svg" xmlns:ev="http://www.w3.org/2001/xml-events" xmlns:xlink="http://www.w3.org/1999/xlink" version="1.1" baseProfile="full" width="5745.0" height="1398.0" viewBox="94.0 -1375.0 5745.0 1398.0">
<defs/>
<g><path d="M 5823.000000 -1275.000000 C 5795.000000 -1217.750000 5767.000000 -1160.500000 5739.000000 -1103.250000 C 5711.000000 -1046.000000 5683.000000 -988.750000 5655.000000 -931.500000 C 5627.000000 -874.250000 5599.000000 -817.000000 5571.000000 -759.750000 C 5543.000000 -702.500000 5515.000000 -645.250000 5487.000000 -588.000000 C 5487.000000 -497.666667 5487.000000 -407.333333 5487.000000 -317.000000 C 5487.000000 -226.666667 5487.000000 -136.333333 5487.000000 -46.000000 C 5487.000000 -28.000000 5484.000000 -15.666667 5478.000000 -9.000000 C 5472.666667 -3.000000 5461.000000 0.000000 5443.000000 0.000000 C 5358.666667 0.000000 5274.333333 0.000000 5190.000000 0.000000 C 5177.333333 0.000000 5166.666667 -2.000000 5158.000000 -6.000000 C 5150.000000 -10.666667 5146.000000 -22.000000 5146.000000 -40.000000 C 5146.000000 -133.500000 5146.000000 -227.000000 5146.000000 -320.500000 C 5146.000000 -414.000000 5146.000000 -507.500000 5146.000000 -601.000000 C 5090.500000 -713.333333 5035.000000 -825.666667 4979.500000 -938.000000 C 4924.000000 -1050.333333 4868.500000 -1162.666667 4813.000000 -1275.000000 C 4809.666667 -1282.333333 4807.000000 -1288.333333 4805.000000 -1293.000000 C 4803.000000 -1297.666667 4801.333333 -1301.666667 4800.000000 -1305.000000 C 4800.000000 -1306.333333 4800.000000 -1307.666667 4800.000000 -1309.000000 C 4800.000000 -1310.333333 4800.000000 -1311.666667 4800.000000 -1313.000000 C 4800.000000 -1323.666667 4802.666667 -1331.000000 4808.000000 -1335.000000 C 4814.000000 -1339.666667 4820.333333 -1342.000000 4827.000000 -1342.000000 C 4829.666667 -1343.333333 4832.333333 -1344.000000 4835.000000 -1344.000000 C 4838.333333 -1344.000000 4841.333333 -1344.000000 4844.000000 -1344.000000 C 4934.333333 -1344.000000 5024.666667 -1344.000000 5115.000000 -1344.000000 C 5127.666667 -1344.000000 5137.666667 -1343.000000 5145.000000 -1341.000000 C 5152.333333 -1339.000000 5158.333333 -1334.333333 5163.000000 -1327.000000 C 5164.333333 -1323.000000 5166.000000 -1319.000000 5168.000000 -1315.000000 C 5170.000000 -1311.666667 5172.333333 -1307.333333 5175.000000 -1302.000000 C 5206.000000 -1231.666667 5237.000000 -1161.333333 5268.000000 -1091.000000 C 5299.000000 -1020.666667 5330.000000 -950.333333 5361.000000 -880.000000 C 5394.166667 -950.000000 5427.333333 -1020.000000 5460.500000 -1090.000000 C 5493.666667 -1160.000000 5526.833333 -1230.000000 5560.000000 -1300.000000 C 5562.666667 -1305.333333 5565.000000 -1309.333333 5567.000000 -1312.000000 C 5569.000000 -1315.333333 5570.666667 -1319.000000 5572.000000 -1323.000000 C 5578.000000 -1330.333333 5584.333333 -1335.666667 5591.000000 -1339.000000 C 5597.666667 -1342.333333 5607.333333 -1344.000000 5620.000000 -1344.000000 C 5680.666667 -1344.000000 5741.333333 -1344.000000 5802.000000 -1344.000000 C 5804.666667 -1344.000000 5807.000000 -1344.000000 5809.000000 -1344.000000 C 5811.000000 -1344.000000 5813.333333 -1344.000000 5816.000000 -1344.000000 C 5822.000000 -1342.666667 5827.333333 -1340.333333 5832.000000 -1337.000000 C 5836.666667 -1333.666667 5839.000000 -1327.666667 5839.000000 -1319.000000 C 5839.000000 -1317.666667 5839.000000 -1316.666667 5839.000000 -1316.000000 C 5839.000000 -1315.333333 5839.000000 -1315.000000 5839.000000 -1315.000000 C 5839.000000 -1310.333333 5837.666667 -1305.000000 5835.000000 -1299.000000 C 5832.333333 -1293.000000 5828.333333 -1285.000000 5823.000000 -1275.000000 C 5823.000000 -1275.000000 5823.000000 -1275.000000 5823.000000 -1275.000000z "/>
</g></svg>
