<?xml version="1.0" ?>
<svg xmlns="http://www.w3.org/2000/svg" version="1.1" width="600" height="600">
  <defs/>
  <g>
    <path stroke-width="0" fill="rgb(0, 0, 0)" opacity="1.0" d="M 320.35589599609375 430.125 C 320.35589599609375 391.375 320.35589599609375 352.625 320.35589599609375 313.875 C 320.35589599609375 312.125 320.29345703125 310.1875 320.16851806640625 308.0625 C 320.0435791015625 305.9375 319.856201171875 303.8125 319.6064453125 301.6875 C 318.607177734375 296.6875 316.73358154296875 292.1875 313.985595703125 288.1875 C 311.23760986328125 284.0625 306.4287109375 282.0 299.55877685546875 282.0 C 296.43603515625 282.0 293.6256103515625 282.5 291.12750244140625 283.5 C 288.75421142578125 284.5 286.63079833984375 285.625 284.7572021484375 286.875 C 283.7579345703125 287.625 282.8211669921875 288.3125 281.94677734375 288.9375 C 281.19732666015625 289.4375 280.57281494140625 289.9375 280.07318115234375 290.4375 C 280.07318115234375 336.875 280.07318115234375 383.3125 280.07318115234375 429.75 C 280.07318115234375 433.125 279.38616943359375 435.375 278.01220703125 436.5 C 276.76312255859375 437.5 274.8270263671875 438.0 272.2039794921875 438.0 C 258.40167236328125 438.0 244.59942626953125 438.0 230.797119140625 438.0 C 226.92498779296875 438.0 224.4892578125 437.375 223.49005126953125 436.125 C 222.61566162109375 434.75 222.178466796875 432.5 222.178466796875 429.375 C 222.178466796875 344.25 222.178466796875 259.125 222.178466796875 174.0 C 222.178466796875 169.25 222.80303955078125 166.0625 224.0521240234375 164.4375 C 225.42608642578125 162.8125 227.42462158203125 162.0 230.04766845703125 162.0 C 243.8499755859375 162.0 257.6522216796875 162.0 271.45452880859375 162.0 C 274.5772705078125 162.0 276.76312255859375 162.625 278.01220703125 163.875 C 279.38616943359375 165.0 280.07318115234375 168.375 280.07318115234375 174.0 C 280.07318115234375 204.0 280.07318115234375 234.0 280.07318115234375 264.0 C 281.322265625 263.0 282.69622802734375 261.9375 284.19512939453125 260.8125 C 285.81890869140625 259.5625 287.69256591796875 258.375 289.81597900390625 257.25 C 294.0628662109375 254.25 299.37139892578125 251.625 305.74169921875 249.375 C 312.11199951171875 247.125 319.7313232421875 246.0 328.59979248046875 246.0 C 331.9722900390625 246.0 335.719482421875 246.3125 339.84149169921875 246.9375 C 344.08831787109375 247.5625 348.39764404296875 248.9375 352.7694091796875 251.0625 C 355.14263916015625 252.4375 357.515869140625 254.125 359.88916015625 256.125 C 362.26239013671875 258.0 364.6981201171875 260.25 367.19622802734375 262.875 C 368.32037353515625 264.375 369.31964111328125 265.9375 370.19403076171875 267.5625 C 371.068359375 269.0625 371.81781005859375 270.5 372.44232177734375 271.875 C 375.315185546875 277.625 377.00146484375 283.1875 377.5010986328125 288.5625 C 378.000732421875 293.8125 378.37548828125 298.5 378.62530517578125 302.625 C 378.62530517578125 345.0 378.62530517578125 387.375 378.62530517578125 429.75 C 378.62530517578125 432.375 378.1256103515625 434.4375 377.12640380859375 435.9375 C 376.25201416015625 437.3125 374.003662109375 438.0 370.38134765625 438.0 C 356.57904052734375 438.0 342.77679443359375 438.0 328.9744873046875 438.0 C 325.851806640625 438.0 323.60345458984375 437.625 322.2294921875 436.875 C 320.98040771484375 436.0 320.35589599609375 433.75 320.35589599609375 430.125 C 320.35589599609375 430.125 320.35589599609375 430.125 320.35589599609375 430.125"/>
  </g>
</svg>
