<?xml version="1.0" encoding="utf-8"?>
<svg xmlns="http://www.w3.org/2000/svg" xmlns:ev="http://www.w3.org/2001/xml-events" xmlns:xlink="http://www.w3.org/1999/xlink" version="1.1" baseProfile="full" width="8087.0" height="1920.0" viewBox="40.0 -1472.0 8087.0 1920.0">
<defs/>
<g><path d="M 831.000000 -780.000000 C 831.000000 -598.000000 831.000000 -416.000000 831.000000 -234.000000 C 831.000000 -227.333333 831.000000 -220.000000 831.000000 -212.000000 C 831.000000 -204.666667 830.333333 -197.000000 829.000000 -189.000000 C 827.666667 -174.333333 825.000000 -159.666667 821.000000 -145.000000 C 817.666667 -131.000000 810.666667 -117.333333 800.000000 -104.000000 C 796.666667 -98.666667 792.333333 -93.333333 787.000000 -88.000000 C 781.666667 -83.333333 775.333333 -78.333333 768.000000 -73.000000 C 740.666667 -53.666667 701.000000 -36.666667 649.000000 -22.000000 C 597.666667 -7.333333 531.666667 0.000000 451.000000 0.000000 C 433.000000 0.000000 405.666667 -0.666667 369.000000 -2.000000 C 333.000000 -4.000000 295.000000 -10.666667 255.000000 -22.000000 C 201.000000 -35.333333 151.666667 -60.000000 107.000000 -96.000000 C 62.333333 -132.000000 40.000000 -187.333333 40.000000 -262.000000 C 40.000000 -377.333333 90.666667 -456.333333 192.000000 -499.000000 C 294.000000 -541.666667 406.000000 -575.666667 528.000000 -601.000000 C 531.333333 -602.333333 534.333333 -603.333333 537.000000 -604.000000 C 539.666667 -604.666667 542.333333 -605.000000 545.000000 -605.000000 C 545.000000 -636.000000 545.000000 -667.000000 545.000000 -698.000000 C 545.000000 -704.000000 545.000000 -710.333333 545.000000 -717.000000 C 545.000000 -723.666667 544.333333 -730.000000 543.000000 -736.000000 C 541.666667 -760.000000 535.333333 -782.000000 524.000000 -802.000000 C 512.666667 -822.000000 489.000000 -832.000000 453.000000 -832.000000 C 427.666667 -832.000000 407.666667 -826.333333 393.000000 -815.000000 C 379.000000 -803.666667 368.333333 -790.666667 361.000000 -776.000000 C 358.333333 -770.000000 355.666667 -764.333333 353.000000 -759.000000 C 350.333333 -754.333333 348.666667 -749.333333 348.000000 -744.000000 C 348.000000 -742.666667 347.666667 -741.666667 347.000000 -741.000000 C 346.333333 -740.333333 346.000000 -739.333333 346.000000 -738.000000 C 335.333333 -712.666667 321.666667 -689.000000 305.000000 -667.000000 C 288.333333 -645.000000 259.000000 -634.000000 217.000000 -634.000000 C 175.000000 -634.000000 142.666667 -646.333333 120.000000 -671.000000 C 97.333333 -696.333333 86.000000 -725.000000 86.000000 -757.000000 C 86.000000 -765.000000 86.666667 -772.666667 88.000000 -780.000000 C 89.333333 -788.000000 91.333333 -795.666667 94.000000 -803.000000 C 109.333333 -863.666667 150.333333 -923.333333 217.000000 -982.000000 C 283.666667 -1040.666667 379.666667 -1070.000000 505.000000 -1070.000000 C 520.333333 -1070.000000 536.333333 -1069.666667 553.000000 -1069.000000 C 569.666667 -1068.333333 586.333333 -1066.666667 603.000000 -1064.000000 C 624.333333 -1060.666667 645.666667 -1055.666667 667.000000 -1049.000000 C 688.333333 -1042.333333 707.666667 -1034.000000 725.000000 -1024.000000 C 751.000000 -1006.666667 771.333333 -987.333333 786.000000 -966.000000 C 800.666667 -945.333333 811.333333 -924.000000 818.000000 -902.000000 C 824.000000 -879.333333 827.666667 -857.333333 829.000000 -836.000000 C 830.333333 -815.333333 831.000000 -796.666667 831.000000 -780.000000 C 831.000000 -780.000000 831.000000 -780.000000 831.000000 -780.000000z M 545.000000 -278.000000 C 545.000000 -355.666667 545.000000 -433.333333 545.000000 -511.000000 C 492.333333 -494.333333 444.000000 -473.333333 400.000000 -448.000000 C 356.000000 -423.333333 334.000000 -375.666667 334.000000 -305.000000 C 334.000000 -259.000000 344.000000 -224.666667 364.000000 -202.000000 C 384.666667 -180.000000 408.000000 -166.333333 434.000000 -161.000000 C 438.000000 -161.000000 441.333333 -160.666667 444.000000 -160.000000 C 447.333333 -159.333333 451.000000 -159.000000 455.000000 -159.000000 C 485.666667 -159.000000 507.000000 -167.000000 519.000000 -183.000000 C 531.000000 -199.000000 539.000000 -216.000000 543.000000 -234.000000 C 544.333333 -242.000000 545.000000 -249.666667 545.000000 -257.000000 C 545.000000 -265.000000 545.000000 -272.000000 545.000000 -278.000000 C 545.000000 -278.000000 545.000000 -278.000000 545.000000 -278.000000z "/>
</g>
<g><path d="M 979.000000 -44.000000 C 979.000000 -300.333333 979.000000 -556.666667 979.000000 -813.000000 C 979.000000 -847.000000 980.666667 -873.333333 984.000000 -892.000000 C 987.333333 -910.666667 996.666667 -927.000000 1012.000000 -941.000000 C 1014.000000 -943.666667 1016.666667 -946.666667 1020.000000 -950.000000 C 1023.333333 -953.333333 1027.000000 -956.333333 1031.000000 -959.000000 C 1052.333333 -974.333333 1077.666667 -987.000000 1107.000000 -997.000000 C 1137.000000 -1007.666667 1167.333333 -1016.000000 1198.000000 -1022.000000 C 1235.333333 -1030.666667 1270.333333 -1036.666667 1303.000000 -1040.000000 C 1336.333333 -1043.333333 1364.000000 -1045.000000 1386.000000 -1045.000000 C 1448.666667 -1045.000000 1499.666667 -1038.333333 1539.000000 -1025.000000 C 1579.000000 -1012.333333 1611.333333 -998.333333 1636.000000 -983.000000 C 1648.666667 -975.666667 1659.333333 -968.333333 1668.000000 -961.000000 C 1677.333333 -954.333333 1685.000000 -947.666667 1691.000000 -941.000000 C 1697.666667 -946.333333 1704.000000 -951.333333 1710.000000 -956.000000 C 1716.666667 -961.333333 1724.000000 -967.333333 1732.000000 -974.000000 C 1744.666667 -982.666667 1760.666667 -991.000000 1780.000000 -999.000000 C 1800.000000 -1007.666667 1824.333333 -1016.000000 1853.000000 -1024.000000 C 1882.333333 -1031.333333 1912.333333 -1036.666667 1943.000000 -1040.000000 C 1973.666667 -1043.333333 2005.000000 -1045.000000 2037.000000 -1045.000000 C 2137.000000 -1045.000000 2209.333333 -1026.000000 2254.000000 -988.000000 C 2298.666667 -950.000000 2329.333333 -907.333333 2346.000000 -860.000000 C 2354.666667 -832.666667 2360.333333 -805.333333 2363.000000 -778.000000 C 2365.666667 -751.333333 2367.000000 -729.666667 2367.000000 -713.000000 C 2367.000000 -490.666667 2367.000000 -268.333333 2367.000000 -46.000000 C 2367.000000 -30.666667 2364.666667 -19.000000 2360.000000 -11.000000 C 2356.000000 -3.666667 2345.666667 0.000000 2329.000000 0.000000 C 2254.333333 0.000000 2179.666667 0.000000 2105.000000 0.000000 C 2088.333333 0.000000 2076.666667 -3.333333 2070.000000 -10.000000 C 2064.000000 -17.333333 2061.000000 -28.666667 2061.000000 -44.000000 C 2061.000000 -254.000000 2061.000000 -464.000000 2061.000000 -674.000000 C 2061.000000 -682.000000 2061.000000 -689.666667 2061.000000 -697.000000 C 2061.000000 -705.000000 2060.333333 -712.666667 2059.000000 -720.000000 C 2057.666667 -748.000000 2049.666667 -773.666667 2035.000000 -797.000000 C 2020.333333 -820.333333 1991.333333 -832.000000 1948.000000 -832.000000 C 1923.333333 -832.000000 1904.000000 -828.333333 1890.000000 -821.000000 C 1876.000000 -814.333333 1865.333333 -806.666667 1858.000000 -798.000000 C 1841.333333 -782.666667 1831.666667 -765.666667 1829.000000 -747.000000 C 1826.333333 -729.000000 1825.000000 -704.666667 1825.000000 -674.000000 C 1825.000000 -464.000000 1825.000000 -254.000000 1825.000000 -44.000000 C 1825.000000 -27.333333 1822.000000 -15.666667 1816.000000 -9.000000 C 1810.666667 -3.000000 1799.000000 0.000000 1781.000000 0.000000 C 1711.333333 0.000000 1641.666667 0.000000 1572.000000 0.000000 C 1555.333333 0.000000 1542.333333 -2.333333 1533.000000 -7.000000 C 1524.333333 -12.333333 1520.000000 -25.333333 1520.000000 -46.000000 C 1520.000000 -259.000000 1520.000000 -472.000000 1520.000000 -685.000000 C 1520.000000 -704.333333 1519.666667 -719.666667 1519.000000 -731.000000 C 1518.333333 -743.000000 1516.666667 -753.333333 1514.000000 -762.000000 C 1509.333333 -784.000000 1500.333333 -801.000000 1487.000000 -813.000000 C 1474.333333 -825.000000 1460.333333 -833.666667 1445.000000 -839.000000 C 1439.000000 -841.666667 1432.333333 -843.666667 1425.000000 -845.000000 C 1417.666667 -846.333333 1411.000000 -847.000000 1405.000000 -847.000000 C 1388.333333 -847.000000 1372.000000 -843.666667 1356.000000 -837.000000 C 1340.000000 -831.000000 1327.000000 -822.666667 1317.000000 -812.000000 C 1300.333333 -795.333333 1290.666667 -777.333333 1288.000000 -758.000000 C 1285.333333 -739.333333 1284.000000 -717.666667 1284.000000 -693.000000 C 1284.000000 -478.000000 1284.000000 -263.000000 1284.000000 -48.000000 C 1284.000000 -31.333333 1281.000000 -19.000000 1275.000000 -11.000000 C 1269.666667 -3.666667 1256.666667 0.000000 1236.000000 0.000000 C 1165.666667 0.000000 1095.333333 0.000000 1025.000000 0.000000 C 1008.333333 0.000000 996.333333 -2.666667 989.000000 -8.000000 C 982.333333 -14.000000 979.000000 -26.000000 979.000000 -44.000000 C 979.000000 -44.000000 979.000000 -44.000000 979.000000 -44.000000z "/>
</g>
<g><path d="M 2818.000000 -1410.000000 C 2818.000000 -1245.333333 2818.000000 -1080.666667 2818.000000 -916.000000 C 2824.666667 -922.666667 2832.333333 -929.666667 2841.000000 -937.000000 C 2849.666667 -945.000000 2860.666667 -953.333333 2874.000000 -962.000000 C 2896.666667 -977.333333 2924.000000 -991.333333 2956.000000 -1004.000000 C 2988.000000 -1017.333333 3025.333333 -1024.000000 3068.000000 -1024.000000 C 3180.000000 -1024.000000 3261.666667 -978.666667 3313.000000 -888.000000 C 3364.333333 -798.000000 3390.000000 -693.666667 3390.000000 -575.000000 C 3390.000000 -562.333333 3389.666667 -549.333333 3389.000000 -536.000000 C 3388.333333 -523.333333 3387.333333 -510.000000 3386.000000 -496.000000 C 3376.000000 -372.000000 3333.666667 -258.333333 3259.000000 -155.000000 C 3185.000000 -51.666667 3063.333333 0.000000 2894.000000 0.000000 C 2892.000000 0.000000 2890.000000 0.000000 2888.000000 0.000000 C 2886.000000 0.000000 2883.666667 0.000000 2881.000000 0.000000 C 2822.333333 -1.333333 2765.666667 -9.333333 2711.000000 -24.000000 C 2656.333333 -38.666667 2611.666667 -60.666667 2577.000000 -90.000000 C 2576.333333 -91.333333 2575.000000 -92.666667 2573.000000 -94.000000 C 2571.000000 -95.333333 2569.333333 -97.000000 2568.000000 -99.000000 C 2543.333333 -120.333333 2528.333333 -144.000000 2523.000000 -170.000000 C 2518.333333 -196.000000 2516.000000 -232.666667 2516.000000 -280.000000 C 2516.000000 -656.000000 2516.000000 -1032.000000 2516.000000 -1408.000000 C 2516.000000 -1434.000000 2519.333333 -1451.000000 2526.000000 -1459.000000 C 2533.333333 -1467.666667 2545.333333 -1472.000000 2562.000000 -1472.000000 C 2632.000000 -1472.000000 2702.000000 -1472.000000 2772.000000 -1472.000000 C 2786.000000 -1472.000000 2797.000000 -1468.000000 2805.000000 -1460.000000 C 2813.666667 -1452.666667 2818.000000 -1436.000000 2818.000000 -1410.000000 C 2818.000000 -1410.000000 2818.000000 -1410.000000 2818.000000 -1410.000000z M 2818.000000 -796.000000 C 2818.000000 -642.000000 2818.000000 -488.000000 2818.000000 -334.000000 C 2818.000000 -325.333333 2818.333333 -315.666667 2819.000000 -305.000000 C 2819.666667 -294.333333 2820.666667 -283.333333 2822.000000 -272.000000 C 2826.000000 -248.666667 2834.666667 -227.666667 2848.000000 -209.000000 C 2861.333333 -191.000000 2884.000000 -182.000000 2916.000000 -182.000000 C 2968.666667 -182.000000 3010.000000 -215.666667 3040.000000 -283.000000 C 3070.000000 -350.333333 3085.000000 -431.000000 3085.000000 -525.000000 C 3085.000000 -541.666667 3084.333333 -558.000000 3083.000000 -574.000000 C 3081.666667 -590.666667 3080.333333 -608.000000 3079.000000 -626.000000 C 3076.333333 -640.000000 3073.666667 -654.000000 3071.000000 -668.000000 C 3069.000000 -682.000000 3066.000000 -695.333333 3062.000000 -708.000000 C 3050.666667 -744.666667 3033.666667 -774.333333 3011.000000 -797.000000 C 2988.333333 -820.333333 2958.666667 -832.000000 2922.000000 -832.000000 C 2908.000000 -832.000000 2895.000000 -830.333333 2883.000000 -827.000000 C 2871.666667 -823.666667 2861.000000 -819.000000 2851.000000 -813.000000 C 2845.666667 -810.333333 2840.333333 -807.666667 2835.000000 -805.000000 C 2830.333333 -803.000000 2824.666667 -800.000000 2818.000000 -796.000000 C 2818.000000 -796.000000 2818.000000 -796.000000 2818.000000 -796.000000z "/>
</g>
<g><path d="M 3853.000000 -980.000000 C 3853.000000 -669.333333 3853.000000 -358.666667 3853.000000 -48.000000 C 3853.000000 -27.333333 3849.000000 -14.000000 3841.000000 -8.000000 C 3833.666667 -2.666667 3821.666667 0.000000 3805.000000 0.000000 C 3729.333333 0.000000 3653.666667 0.000000 3578.000000 0.000000 C 3560.666667 0.000000 3550.000000 -4.000000 3546.000000 -12.000000 C 3542.000000 -20.666667 3540.000000 -32.000000 3540.000000 -46.000000 C 3540.000000 -358.000000 3540.000000 -670.000000 3540.000000 -982.000000 C 3540.000000 -996.000000 3542.000000 -1006.333333 3546.000000 -1013.000000 C 3550.666667 -1020.333333 3562.000000 -1024.000000 3580.000000 -1024.000000 C 3655.666667 -1024.000000 3731.333333 -1024.000000 3807.000000 -1024.000000 C 3825.000000 -1024.000000 3837.000000 -1021.000000 3843.000000 -1015.000000 C 3849.666667 -1009.666667 3853.000000 -998.000000 3853.000000 -980.000000 C 3853.000000 -980.000000 3853.000000 -980.000000 3853.000000 -980.000000z M 3848.000000 -1216.000000 C 3848.000000 -1172.000000 3832.666667 -1139.666667 3802.000000 -1119.000000 C 3772.000000 -1098.333333 3738.000000 -1088.000000 3700.000000 -1088.000000 C 3656.666667 -1088.000000 3619.000000 -1098.666667 3587.000000 -1120.000000 C 3555.666667 -1141.333333 3540.000000 -1172.666667 3540.000000 -1214.000000 C 3540.000000 -1249.333333 3553.000000 -1279.666667 3579.000000 -1305.000000 C 3605.666667 -1331.000000 3645.333333 -1344.000000 3698.000000 -1344.000000 C 3750.666667 -1344.000000 3788.333333 -1331.000000 3811.000000 -1305.000000 C 3834.333333 -1279.666667 3846.666667 -1250.000000 3848.000000 -1216.000000 C 3848.000000 -1216.000000 3848.000000 -1216.000000 3848.000000 -1216.000000z "/>
</g>
<g><path d="M 4928.000000 -892.000000 C 4880.666667 -876.333333 4833.333333 -860.666667 4786.000000 -845.000000 C 4788.000000 -839.666667 4790.000000 -834.666667 4792.000000 -830.000000 C 4794.000000 -825.333333 4796.333333 -819.333333 4799.000000 -812.000000 C 4805.666667 -796.000000 4811.333333 -776.333333 4816.000000 -753.000000 C 4821.333333 -729.666667 4824.000000 -703.666667 4824.000000 -675.000000 C 4824.000000 -565.666667 4791.666667 -483.333333 4727.000000 -428.000000 C 4662.333333 -372.666667 4591.000000 -338.666667 4513.000000 -326.000000 C 4501.666667 -323.333333 4490.000000 -321.666667 4478.000000 -321.000000 C 4466.666667 -320.333333 4455.333333 -320.000000 4444.000000 -320.000000 C 4424.666667 -320.000000 4406.000000 -321.000000 4388.000000 -323.000000 C 4370.666667 -325.000000 4354.333333 -327.333333 4339.000000 -330.000000 C 4329.666667 -316.666667 4321.666667 -304.666667 4315.000000 -294.000000 C 4309.000000 -283.333333 4306.000000 -273.333333 4306.000000 -264.000000 C 4306.000000 -240.666667 4318.333333 -226.333333 4343.000000 -221.000000 C 4368.333333 -215.666667 4407.333333 -212.000000 4460.000000 -210.000000 C 4463.333333 -208.666667 4467.333333 -208.000000 4472.000000 -208.000000 C 4476.666667 -208.000000 4480.666667 -208.000000 4484.000000 -208.000000 C 4532.000000 -205.666667 4580.000000 -203.333333 4628.000000 -201.000000 C 4647.333333 -199.666667 4671.333333 -197.666667 4700.000000 -195.000000 C 4729.333333 -192.333333 4760.000000 -187.000000 4792.000000 -179.000000 C 4840.666667 -166.333333 4885.333333 -144.000000 4926.000000 -112.000000 C 4967.333333 -80.666667 4988.000000 -33.000000 4988.000000 31.000000 C 4988.000000 54.333333 4983.666667 81.000000 4975.000000 111.000000 C 4967.000000 141.000000 4954.000000 171.666667 4936.000000 203.000000 C 4898.666667 264.333333 4837.000000 320.333333 4751.000000 371.000000 C 4665.666667 422.333333 4546.333333 448.000000 4393.000000 448.000000 C 4380.333333 448.000000 4355.666667 447.000000 4319.000000 445.000000 C 4282.333333 443.000000 4243.000000 436.666667 4201.000000 426.000000 C 4152.333333 413.333333 4107.000000 391.000000 4065.000000 359.000000 C 4023.666667 327.000000 4003.000000 279.666667 4003.000000 217.000000 C 4003.000000 174.333333 4017.000000 134.666667 4045.000000 98.000000 C 4073.000000 61.333333 4112.666667 28.666667 4164.000000 0.000000 C 4157.333333 -2.666667 4149.333333 -5.666667 4140.000000 -9.000000 C 4131.333333 -13.000000 4122.666667 -18.333333 4114.000000 -25.000000 C 4096.000000 -35.666667 4079.666667 -51.000000 4065.000000 -71.000000 C 4050.333333 -91.666667 4043.000000 -119.333333 4043.000000 -154.000000 C 4043.000000 -198.000000 4059.000000 -239.666667 4091.000000 -279.000000 C 4123.000000 -319.000000 4158.666667 -354.666667 4198.000000 -386.000000 C 4202.000000 -390.000000 4206.000000 -393.333333 4210.000000 -396.000000 C 4214.000000 -399.333333 4217.666667 -402.333333 4221.000000 -405.000000 C 4185.666667 -423.000000 4156.666667 -443.333333 4134.000000 -466.000000 C 4111.333333 -489.333333 4093.666667 -514.000000 4081.000000 -540.000000 C 4063.000000 -576.000000 4052.000000 -609.666667 4048.000000 -641.000000 C 4044.666667 -673.000000 4043.000000 -696.000000 4043.000000 -710.000000 C 4043.000000 -796.000000 4073.000000 -874.666667 4133.000000 -946.000000 C 4193.000000 -1017.333333 4293.333333 -1053.000000 4434.000000 -1053.000000 C 4471.333333 -1053.000000 4503.000000 -1050.666667 4529.000000 -1046.000000 C 4555.666667 -1041.333333 4578.666667 -1036.000000 4598.000000 -1030.000000 C 4602.666667 -1028.666667 4607.666667 -1027.000000 4613.000000 -1025.000000 C 4618.333333 -1023.000000 4623.333333 -1021.333333 4628.000000 -1020.000000 C 4640.000000 -1014.666667 4650.666667 -1010.333333 4660.000000 -1007.000000 C 4669.333333 -1004.333333 4678.666667 -1002.333333 4688.000000 -1001.000000 C 4695.333333 -998.333333 4703.000000 -996.666667 4711.000000 -996.000000 C 4719.666667 -995.333333 4729.333333 -995.000000 4740.000000 -995.000000 C 4748.666667 -995.000000 4756.333333 -995.333333 4763.000000 -996.000000 C 4770.333333 -996.666667 4778.000000 -997.666667 4786.000000 -999.000000 C 4789.333333 -1000.333333 4793.000000 -1001.333333 4797.000000 -1002.000000 C 4801.000000 -1002.666667 4805.000000 -1003.000000 4809.000000 -1003.000000 C 4811.000000 -1003.000000 4817.333333 -1004.333333 4828.000000 -1007.000000 C 4838.666667 -1009.666667 4850.333333 -1012.000000 4863.000000 -1014.000000 C 4875.666667 -1016.666667 4887.333333 -1019.000000 4898.000000 -1021.000000 C 4909.333333 -1023.000000 4915.333333 -1024.000000 4916.000000 -1024.000000 C 4921.333333 -1024.000000 4925.666667 -1022.666667 4929.000000 -1020.000000 C 4932.333333 -1017.333333 4934.666667 -1014.333333 4936.000000 -1011.000000 C 4937.333333 -1008.333333 4938.333333 -1006.000000 4939.000000 -1004.000000 C 4939.666667 -1002.000000 4940.000000 -1000.333333 4940.000000 -999.000000 C 4940.666667 -996.333333 4941.333333 -994.000000 4942.000000 -992.000000 C 4942.666667 -990.000000 4943.000000 -987.666667 4943.000000 -985.000000 C 4944.333333 -982.333333 4945.333333 -979.333333 4946.000000 -976.000000 C 4946.666667 -973.333333 4947.000000 -970.666667 4947.000000 -968.000000 C 4949.666667 -957.333333 4952.000000 -947.000000 4954.000000 -937.000000 C 4956.000000 -927.666667 4957.000000 -921.666667 4957.000000 -919.000000 C 4957.000000 -913.666667 4956.000000 -909.666667 4954.000000 -907.000000 C 4952.000000 -904.333333 4948.333333 -901.333333 4943.000000 -898.000000 C 4941.666667 -896.666667 4939.666667 -895.666667 4937.000000 -895.000000 C 4935.000000 -894.333333 4932.000000 -893.333333 4928.000000 -892.000000 C 4928.000000 -892.000000 4928.000000 -892.000000 4928.000000 -892.000000z M 4298.000000 36.000000 C 4285.333333 49.333333 4273.666667 64.000000 4263.000000 80.000000 C 4253.000000 96.000000 4248.000000 114.000000 4248.000000 134.000000 C 4248.000000 135.333333 4248.000000 137.000000 4248.000000 139.000000 C 4248.000000 141.000000 4248.000000 142.666667 4248.000000 144.000000 C 4252.000000 174.000000 4271.000000 201.666667 4305.000000 227.000000 C 4339.000000 252.333333 4394.333333 265.000000 4471.000000 265.000000 C 4533.666667 265.000000 4589.333333 253.000000 4638.000000 229.000000 C 4686.666667 205.000000 4711.000000 173.333333 4711.000000 134.000000 C 4711.000000 107.333333 4702.333333 88.666667 4685.000000 78.000000 C 4667.666667 67.333333 4648.000000 60.000000 4626.000000 56.000000 C 4620.000000 54.666667 4613.666667 53.666667 4607.000000 53.000000 C 4601.000000 52.333333 4594.666667 51.333333 4588.000000 50.000000 C 4578.000000 48.666667 4558.666667 47.333333 4530.000000 46.000000 C 4502.000000 44.666667 4472.666667 43.333333 4442.000000 42.000000 C 4411.333333 41.333333 4382.333333 40.333333 4355.000000 39.000000 C 4328.333333 37.666667 4309.333333 36.333333 4298.000000 35.000000 C 4298.000000 35.333333 4298.000000 35.666667 4298.000000 36.000000z M 4548.000000 -730.000000 C 4546.666667 -735.333333 4545.333333 -740.333333 4544.000000 -745.000000 C 4542.666667 -750.333333 4541.666667 -756.000000 4541.000000 -762.000000 C 4531.666667 -795.333333 4517.000000 -826.000000 4497.000000 -854.000000 C 4477.666667 -882.000000 4452.000000 -896.000000 4420.000000 -896.000000 C 4391.333333 -896.000000 4366.000000 -882.666667 4344.000000 -856.000000 C 4322.666667 -829.333333 4312.000000 -791.000000 4312.000000 -741.000000 C 4312.000000 -729.000000 4312.666667 -717.000000 4314.000000 -705.000000 C 4315.333333 -693.000000 4317.333333 -680.333333 4320.000000 -667.000000 C 4327.333333 -627.000000 4342.000000 -589.666667 4364.000000 -555.000000 C 4386.000000 -520.333333 4414.000000 -503.000000 4448.000000 -503.000000 C 4485.333333 -503.000000 4512.333333 -518.000000 4529.000000 -548.000000 C 4545.666667 -578.666667 4554.000000 -614.000000 4554.000000 -654.000000 C 4554.000000 -661.333333 4554.000000 -667.666667 4554.000000 -673.000000 C 4554.000000 -679.000000 4553.333333 -685.666667 4552.000000 -693.000000 C 4552.000000 -699.000000 4551.666667 -705.000000 4551.000000 -711.000000 C 4550.333333 -717.666667 4549.333333 -724.000000 4548.000000 -730.000000 C 4548.000000 -730.000000 4548.000000 -730.000000 4548.000000 -730.000000z "/>
</g>
<g><path d="M 5388.000000 -795.000000 C 5388.000000 -779.312500 5388.000000 -763.625000 5388.000000 -747.937500 C 5388.000000 -732.250000 5388.000000 -716.562500 5388.000000 -700.875000 C 5388.000000 -669.500000 5388.000000 -638.125000 5388.000000 -606.750000 C 5388.000000 -591.062500 5388.000000 -575.375000 5388.000000 -559.687500 C 5388.000000 -544.000000 5388.000000 -528.312500 5388.000000 -512.625000 C 5388.000000 -481.250000 5388.000000 -449.875000 5388.000000 -418.500000 C 5388.000000 -387.125000 5388.000000 -355.750000 5388.000000 -324.375000 C 5388.000000 -308.687500 5388.000000 -293.000000 5388.000000 -277.312500 C 5388.000000 -261.625000 5388.000000 -245.937500 5388.000000 -230.250000 C 5388.000000 -198.875000 5388.000000 -167.500000 5388.000000 -136.125000 C 5388.000000 -120.437500 5388.000000 -104.750000 5388.000000 -89.062500 C 5388.000000 -73.375000 5388.000000 -57.687500 5388.000000 -42.000000 C 5388.000000 -25.333333 5384.666667 -14.000000 5378.000000 -8.000000 C 5372.000000 -2.666667 5361.333333 0.000000 5346.000000 0.000000 C 5327.500000 0.000000 5309.000000 0.000000 5290.500000 0.000000 C 5272.000000 0.000000 5253.500000 0.000000 5235.000000 0.000000 C 5216.500000 0.000000 5198.000000 0.000000 5179.500000 0.000000 C 5161.000000 0.000000 5142.500000 0.000000 5124.000000 0.000000 C 5107.333333 0.000000 5095.666667 -2.666667 5089.000000 -8.000000 C 5083.000000 -14.000000 5080.000000 -26.000000 5080.000000 -44.000000 C 5080.000000 -60.645833 5080.000000 -77.291667 5080.000000 -93.937500 C 5080.000000 -110.583333 5080.000000 -127.229167 5080.000000 -143.875000 C 5080.000000 -160.520833 5080.000000 -177.166667 5080.000000 -193.812500 C 5080.000000 -210.458333 5080.000000 -227.104167 5080.000000 -243.750000 C 5080.000000 -260.395833 5080.000000 -277.041667 5080.000000 -293.687500 C 5080.000000 -310.333333 5080.000000 -326.979167 5080.000000 -343.625000 C 5080.000000 -360.270833 5080.000000 -376.916667 5080.000000 -393.562500 C 5080.000000 -410.208333 5080.000000 -426.854167 5080.000000 -443.500000 C 5080.000000 -460.145833 5080.000000 -476.791667 5080.000000 -493.437500 C 5080.000000 -510.083333 5080.000000 -526.729167 5080.000000 -543.375000 C 5080.000000 -560.020833 5080.000000 -576.666667 5080.000000 -593.312500 C 5080.000000 -609.958333 5080.000000 -626.604167 5080.000000 -643.250000 C 5080.000000 -659.895833 5080.000000 -676.541667 5080.000000 -693.187500 C 5080.000000 -709.833333 5080.000000 -726.479167 5080.000000 -743.125000 C 5080.000000 -759.770833 5080.000000 -776.416667 5080.000000 -793.062500 C 5080.000000 -809.708333 5080.000000 -826.354167 5080.000000 -843.000000 C 5080.000000 -875.000000 5083.666667 -898.333333 5091.000000 -913.000000 C 5099.000000 -928.333333 5114.000000 -941.666667 5136.000000 -953.000000 C 5160.000000 -965.666667 5186.666667 -976.000000 5216.000000 -984.000000 C 5246.000000 -992.666667 5276.333333 -1000.333333 5307.000000 -1007.000000 C 5327.000000 -1010.000000 5346.500000 -1012.583333 5365.500000 -1014.750000 C 5384.500000 -1016.916667 5403.000000 -1018.666667 5421.000000 -1020.000000 C 5457.666667 -1022.666667 5488.666667 -1024.000000 5514.000000 -1024.000000 C 5526.000000 -1024.000000 5543.000000 -1023.333333 5565.000000 -1022.000000 C 5587.666667 -1021.333333 5611.000000 -1018.333333 5635.000000 -1013.000000 C 5651.666667 -1009.000000 5667.583333 -1003.416667 5682.750000 -996.250000 C 5697.916667 -989.083333 5712.333333 -980.333333 5726.000000 -970.000000 C 5740.000000 -959.666667 5750.500000 -946.083333 5757.500000 -929.250000 C 5764.500000 -912.416667 5768.000000 -892.333333 5768.000000 -869.000000 C 5768.000000 -851.666667 5765.500000 -835.583333 5760.500000 -820.750000 C 5755.500000 -805.916667 5748.000000 -792.333333 5738.000000 -780.000000 C 5728.000000 -768.000000 5716.000000 -759.000000 5702.000000 -753.000000 C 5688.000000 -747.000000 5672.000000 -744.000000 5654.000000 -744.000000 C 5622.000000 -744.000000 5599.000000 -752.666667 5585.000000 -770.000000 C 5571.000000 -787.333333 5559.000000 -807.333333 5549.000000 -830.000000 C 5549.000000 -831.333333 5548.666667 -832.333333 5548.000000 -833.000000 C 5547.333333 -833.666667 5547.000000 -834.666667 5547.000000 -836.000000 C 5539.000000 -852.666667 5529.666667 -866.666667 5519.000000 -878.000000 C 5508.333333 -890.000000 5491.333333 -896.000000 5468.000000 -896.000000 C 5432.000000 -896.000000 5409.666667 -887.000000 5401.000000 -869.000000 C 5392.333333 -851.666667 5388.000000 -831.666667 5388.000000 -809.000000 C 5388.000000 -806.333333 5388.000000 -804.000000 5388.000000 -802.000000 C 5388.000000 -800.000000 5388.000000 -797.666667 5388.000000 -795.000000 C 5388.000000 -795.000000 5388.000000 -795.000000 5388.000000 -795.000000z "/>
</g>
<g><path d="M 6591.000000 -780.000000 C 6591.000000 -598.000000 6591.000000 -416.000000 6591.000000 -234.000000 C 6591.000000 -227.333333 6591.000000 -220.000000 6591.000000 -212.000000 C 6591.000000 -204.666667 6590.333333 -197.000000 6589.000000 -189.000000 C 6587.666667 -174.333333 6585.000000 -159.666667 6581.000000 -145.000000 C 6577.666667 -131.000000 6570.666667 -117.333333 6560.000000 -104.000000 C 6556.666667 -98.666667 6552.333333 -93.333333 6547.000000 -88.000000 C 6541.666667 -83.333333 6535.333333 -78.333333 6528.000000 -73.000000 C 6500.666667 -53.666667 6461.000000 -36.666667 6409.000000 -22.000000 C 6357.666667 -7.333333 6291.666667 0.000000 6211.000000 0.000000 C 6193.000000 0.000000 6165.666667 -0.666667 6129.000000 -2.000000 C 6093.000000 -4.000000 6055.000000 -10.666667 6015.000000 -22.000000 C 5961.000000 -35.333333 5911.666667 -60.000000 5867.000000 -96.000000 C 5822.333333 -132.000000 5800.000000 -187.333333 5800.000000 -262.000000 C 5800.000000 -377.333333 5850.666667 -456.333333 5952.000000 -499.000000 C 6054.000000 -541.666667 6166.000000 -575.666667 6288.000000 -601.000000 C 6291.333333 -602.333333 6294.333333 -603.333333 6297.000000 -604.000000 C 6299.666667 -604.666667 6302.333333 -605.000000 6305.000000 -605.000000 C 6305.000000 -636.000000 6305.000000 -667.000000 6305.000000 -698.000000 C 6305.000000 -704.000000 6305.000000 -710.333333 6305.000000 -717.000000 C 6305.000000 -723.666667 6304.333333 -730.000000 6303.000000 -736.000000 C 6301.666667 -760.000000 6295.333333 -782.000000 6284.000000 -802.000000 C 6272.666667 -822.000000 6249.000000 -832.000000 6213.000000 -832.000000 C 6187.666667 -832.000000 6167.666667 -826.333333 6153.000000 -815.000000 C 6139.000000 -803.666667 6128.333333 -790.666667 6121.000000 -776.000000 C 6118.333333 -770.000000 6115.666667 -764.333333 6113.000000 -759.000000 C 6110.333333 -754.333333 6108.666667 -749.333333 6108.000000 -744.000000 C 6108.000000 -742.666667 6107.666667 -741.666667 6107.000000 -741.000000 C 6106.333333 -740.333333 6106.000000 -739.333333 6106.000000 -738.000000 C 6095.333333 -712.666667 6081.666667 -689.000000 6065.000000 -667.000000 C 6048.333333 -645.000000 6019.000000 -634.000000 5977.000000 -634.000000 C 5935.000000 -634.000000 5902.666667 -646.333333 5880.000000 -671.000000 C 5857.333333 -696.333333 5846.000000 -725.000000 5846.000000 -757.000000 C 5846.000000 -765.000000 5846.666667 -772.666667 5848.000000 -780.000000 C 5849.333333 -788.000000 5851.333333 -795.666667 5854.000000 -803.000000 C 5869.333333 -863.666667 5910.333333 -923.333333 5977.000000 -982.000000 C 6043.666667 -1040.666667 6139.666667 -1070.000000 6265.000000 -1070.000000 C 6280.333333 -1070.000000 6296.333333 -1069.666667 6313.000000 -1069.000000 C 6329.666667 -1068.333333 6346.333333 -1066.666667 6363.000000 -1064.000000 C 6384.333333 -1060.666667 6405.666667 -1055.666667 6427.000000 -1049.000000 C 6448.333333 -1042.333333 6467.666667 -1034.000000 6485.000000 -1024.000000 C 6511.000000 -1006.666667 6531.333333 -987.333333 6546.000000 -966.000000 C 6560.666667 -945.333333 6571.333333 -924.000000 6578.000000 -902.000000 C 6584.000000 -879.333333 6587.666667 -857.333333 6589.000000 -836.000000 C 6590.333333 -815.333333 6591.000000 -796.666667 6591.000000 -780.000000 C 6591.000000 -780.000000 6591.000000 -780.000000 6591.000000 -780.000000z M 6305.000000 -278.000000 C 6305.000000 -355.666667 6305.000000 -433.333333 6305.000000 -511.000000 C 6252.333333 -494.333333 6204.000000 -473.333333 6160.000000 -448.000000 C 6116.000000 -423.333333 6094.000000 -375.666667 6094.000000 -305.000000 C 6094.000000 -259.000000 6104.000000 -224.666667 6124.000000 -202.000000 C 6144.666667 -180.000000 6168.000000 -166.333333 6194.000000 -161.000000 C 6198.000000 -161.000000 6201.333333 -160.666667 6204.000000 -160.000000 C 6207.333333 -159.333333 6211.000000 -159.000000 6215.000000 -159.000000 C 6245.666667 -159.000000 6267.000000 -167.000000 6279.000000 -183.000000 C 6291.000000 -199.000000 6299.000000 -216.000000 6303.000000 -234.000000 C 6304.333333 -242.000000 6305.000000 -249.666667 6305.000000 -257.000000 C 6305.000000 -265.000000 6305.000000 -272.000000 6305.000000 -278.000000 C 6305.000000 -278.000000 6305.000000 -278.000000 6305.000000 -278.000000z "/>
</g>
<g><path d="M 6739.000000 -44.000000 C 6739.000000 -300.333333 6739.000000 -556.666667 6739.000000 -813.000000 C 6739.000000 -847.000000 6740.666667 -873.333333 6744.000000 -892.000000 C 6747.333333 -910.666667 6756.666667 -927.000000 6772.000000 -941.000000 C 6774.000000 -943.666667 6776.666667 -946.666667 6780.000000 -950.000000 C 6783.333333 -953.333333 6787.000000 -956.333333 6791.000000 -959.000000 C 6812.333333 -974.333333 6837.666667 -987.000000 6867.000000 -997.000000 C 6897.000000 -1007.666667 6927.333333 -1016.000000 6958.000000 -1022.000000 C 6995.333333 -1030.666667 7030.333333 -1036.666667 7063.000000 -1040.000000 C 7096.333333 -1043.333333 7124.000000 -1045.000000 7146.000000 -1045.000000 C 7208.666667 -1045.000000 7259.666667 -1038.333333 7299.000000 -1025.000000 C 7339.000000 -1012.333333 7371.333333 -998.333333 7396.000000 -983.000000 C 7408.666667 -975.666667 7419.333333 -968.333333 7428.000000 -961.000000 C 7437.333333 -954.333333 7445.000000 -947.666667 7451.000000 -941.000000 C 7457.666667 -946.333333 7464.000000 -951.333333 7470.000000 -956.000000 C 7476.666667 -961.333333 7484.000000 -967.333333 7492.000000 -974.000000 C 7504.666667 -982.666667 7520.666667 -991.000000 7540.000000 -999.000000 C 7560.000000 -1007.666667 7584.333333 -1016.000000 7613.000000 -1024.000000 C 7642.333333 -1031.333333 7672.333333 -1036.666667 7703.000000 -1040.000000 C 7733.666667 -1043.333333 7765.000000 -1045.000000 7797.000000 -1045.000000 C 7897.000000 -1045.000000 7969.333333 -1026.000000 8014.000000 -988.000000 C 8058.666667 -950.000000 8089.333333 -907.333333 8106.000000 -860.000000 C 8114.666667 -832.666667 8120.333333 -805.333333 8123.000000 -778.000000 C 8125.666667 -751.333333 8127.000000 -729.666667 8127.000000 -713.000000 C 8127.000000 -490.666667 8127.000000 -268.333333 8127.000000 -46.000000 C 8127.000000 -30.666667 8124.666667 -19.000000 8120.000000 -11.000000 C 8116.000000 -3.666667 8105.666667 0.000000 8089.000000 0.000000 C 8014.333333 0.000000 7939.666667 0.000000 7865.000000 0.000000 C 7848.333333 0.000000 7836.666667 -3.333333 7830.000000 -10.000000 C 7824.000000 -17.333333 7821.000000 -28.666667 7821.000000 -44.000000 C 7821.000000 -254.000000 7821.000000 -464.000000 7821.000000 -674.000000 C 7821.000000 -682.000000 7821.000000 -689.666667 7821.000000 -697.000000 C 7821.000000 -705.000000 7820.333333 -712.666667 7819.000000 -720.000000 C 7817.666667 -748.000000 7809.666667 -773.666667 7795.000000 -797.000000 C 7780.333333 -820.333333 7751.333333 -832.000000 7708.000000 -832.000000 C 7683.333333 -832.000000 7664.000000 -828.333333 7650.000000 -821.000000 C 7636.000000 -814.333333 7625.333333 -806.666667 7618.000000 -798.000000 C 7601.333333 -782.666667 7591.666667 -765.666667 7589.000000 -747.000000 C 7586.333333 -729.000000 7585.000000 -704.666667 7585.000000 -674.000000 C 7585.000000 -464.000000 7585.000000 -254.000000 7585.000000 -44.000000 C 7585.000000 -27.333333 7582.000000 -15.666667 7576.000000 -9.000000 C 7570.666667 -3.000000 7559.000000 0.000000 7541.000000 0.000000 C 7471.333333 0.000000 7401.666667 0.000000 7332.000000 0.000000 C 7315.333333 0.000000 7302.333333 -2.333333 7293.000000 -7.000000 C 7284.333333 -12.333333 7280.000000 -25.333333 7280.000000 -46.000000 C 7280.000000 -259.000000 7280.000000 -472.000000 7280.000000 -685.000000 C 7280.000000 -704.333333 7279.666667 -719.666667 7279.000000 -731.000000 C 7278.333333 -743.000000 7276.666667 -753.333333 7274.000000 -762.000000 C 7269.333333 -784.000000 7260.333333 -801.000000 7247.000000 -813.000000 C 7234.333333 -825.000000 7220.333333 -833.666667 7205.000000 -839.000000 C 7199.000000 -841.666667 7192.333333 -843.666667 7185.000000 -845.000000 C 7177.666667 -846.333333 7171.000000 -847.000000 7165.000000 -847.000000 C 7148.333333 -847.000000 7132.000000 -843.666667 7116.000000 -837.000000 C 7100.000000 -831.000000 7087.000000 -822.666667 7077.000000 -812.000000 C 7060.333333 -795.333333 7050.666667 -777.333333 7048.000000 -758.000000 C 7045.333333 -739.333333 7044.000000 -717.666667 7044.000000 -693.000000 C 7044.000000 -478.000000 7044.000000 -263.000000 7044.000000 -48.000000 C 7044.000000 -31.333333 7041.000000 -19.000000 7035.000000 -11.000000 C 7029.666667 -3.666667 7016.666667 0.000000 6996.000000 0.000000 C 6925.666667 0.000000 6855.333333 0.000000 6785.000000 0.000000 C 6768.333333 0.000000 6756.333333 -2.666667 6749.000000 -8.000000 C 6742.333333 -14.000000 6739.000000 -26.000000 6739.000000 -44.000000 C 6739.000000 -44.000000 6739.000000 -44.000000 6739.000000 -44.000000z "/>
</g>
</svg>
