<?xml version="1.0" encoding="utf-8"?>
<svg xmlns="http://www.w3.org/2000/svg" xmlns:ev="http://www.w3.org/2001/xml-events" xmlns:xlink="http://www.w3.org/1999/xlink" version="1.1" baseProfile="full" width="3608.0" height="1920.0" viewBox="-2.0 -1472.0 3608.0 1920.0">
<defs/>
<g><path d="M 1691.000000 -565.000000 C 1525.666667 -542.000000 1360.333333 -519.000000 1195.000000 -496.000000 C 1197.666667 -484.666667 1200.666667 -471.666667 1204.000000 -457.000000 C 1207.333333 -443.000000 1212.333333 -428.666667 1219.000000 -414.000000 C 1219.666667 -410.000000 1220.666667 -406.333333 1222.000000 -403.000000 C 1223.333333 -400.333333 1224.666667 -397.666667 1226.000000 -395.000000 C 1248.000000 -355.666667 1277.333333 -324.333333 1314.000000 -301.000000 C 1351.333333 -278.333333 1393.666667 -267.000000 1441.000000 -267.000000 C 1479.666667 -267.000000 1514.000000 -274.000000 1544.000000 -288.000000 C 1574.000000 -302.000000 1599.333333 -317.333333 1620.000000 -334.000000 C 1622.666667 -336.666667 1625.666667 -339.666667 1629.000000 -343.000000 C 1632.333333 -346.333333 1635.000000 -349.000000 1637.000000 -351.000000 C 1650.333333 -365.666667 1660.666667 -376.333333 1668.000000 -383.000000 C 1676.000000 -390.333333 1683.000000 -395.666667 1689.000000 -399.000000 C 1693.000000 -401.666667 1697.000000 -403.333333 1701.000000 -404.000000 C 1705.000000 -404.666667 1709.333333 -405.000000 1714.000000 -405.000000 C 1729.333333 -405.000000 1743.000000 -399.000000 1755.000000 -387.000000 C 1767.000000 -375.000000 1773.000000 -356.666667 1773.000000 -332.000000 C 1773.000000 -319.333333 1769.000000 -297.666667 1761.000000 -267.000000 C 1753.000000 -236.333333 1738.666667 -204.333333 1718.000000 -171.000000 C 1691.333333 -127.666667 1652.333333 -88.333333 1601.000000 -53.000000 C 1549.666667 -17.666667 1480.333333 0.000000 1393.000000 0.000000 C 1227.000000 0.000000 1110.333333 -52.000000 1043.000000 -156.000000 C 975.666667 -260.666667 940.666667 -375.666667 938.000000 -501.000000 C 938.000000 -504.333333 938.000000 -507.333333 938.000000 -510.000000 C 938.000000 -512.666667 938.000000 -515.333333 938.000000 -518.000000 C 938.000000 -682.666667 977.333333 -803.666667 1056.000000 -881.000000 C 1134.666667 -959.000000 1221.000000 -1004.666667 1315.000000 -1018.000000 C 1327.666667 -1020.666667 1340.000000 -1022.333333 1352.000000 -1023.000000 C 1364.000000 -1023.666667 1376.000000 -1024.000000 1388.000000 -1024.000000 C 1480.000000 -1024.000000 1552.333333 -1003.333333 1605.000000 -962.000000 C 1658.333333 -921.333333 1698.000000 -876.333333 1724.000000 -827.000000 C 1740.666667 -793.666667 1752.333333 -761.666667 1759.000000 -731.000000 C 1766.333333 -700.333333 1770.000000 -676.000000 1770.000000 -658.000000 C 1770.000000 -628.000000 1764.333333 -607.000000 1753.000000 -595.000000 C 1742.333333 -583.666667 1730.666667 -575.333333 1718.000000 -570.000000 C 1712.666667 -568.666667 1707.666667 -567.666667 1703.000000 -567.000000 C 1699.000000 -566.333333 1695.000000 -565.666667 1691.000000 -565.000000 C 1691.000000 -565.000000 1691.000000 -565.000000 1691.000000 -565.000000z M 1176.000000 -615.000000 C 1275.333333 -629.666667 1374.666667 -644.333333 1474.000000 -659.000000 C 1470.000000 -703.666667 1461.333333 -737.666667 1448.000000 -761.000000 C 1434.666667 -785.000000 1420.333333 -802.333333 1405.000000 -813.000000 C 1391.000000 -821.666667 1377.333333 -827.000000 1364.000000 -829.000000 C 1351.333333 -831.000000 1342.333333 -832.000000 1337.000000 -832.000000 C 1281.000000 -832.000000 1240.333333 -809.333333 1215.000000 -764.000000 C 1190.333333 -719.333333 1177.333333 -669.666667 1176.000000 -615.000000 C 1176.000000 -615.000000 1176.000000 -615.000000 1176.000000 -615.000000z "/>
</g></svg>
